<svg width="24" height="24" viewBox="0 0 24 24" xmlns="http://www.w3.org/2000/svg">
<path d="M3 7L8 3C8 3 3 13.5 3 17"  stroke="var(--icon-color, #FFFFFF)" stroke-width="2" stroke-linecap="round" stroke-linejoin="round"/>
<path d="M12.4359 3C10.9359 3.5 9.9359 6 9.4359 8C8.9359 10 8.34415 13 10.9359 13C14.5276 13 14.0277 5 14.0277 5"  stroke="var(--icon-color, #FFFFFF)" stroke-width="2" stroke-linecap="round"/>
<path d="M19.4359 3C17.9359 3.5 16.9359 6 16.4359 8C15.9359 10 15.3441 13 17.9359 13C21.5276 13 21.0277 5 21.0277 5"  stroke="var(--icon-color, #FFFFFF)" stroke-width="2" stroke-linecap="round"/>
<path d="M7 17C7 17 12 15 18 16"  stroke="var(--icon-color, #FFFFFF)" stroke-width="2" stroke-linecap="round"/>
<path d="M19 19C10.5 18.102 4 21 4 21"  stroke="var(--icon-color, #FFFFFF)" stroke-width="2" stroke-linecap="round" stroke-linejoin="round"/>
</svg>
