<svg width="24" height="24" viewBox="0 0 24 24" xmlns="http://www.w3.org/2000/svg">
<path d="M12 22C17.5228 22 22 17.5228 22 12C22 6.47715 17.5228 2 12 2C6.47715 2 2 6.47715 2 12C2 17.5228 6.47715 22 12 22Z"  stroke="var(--icon-color, #FFFFFF)" stroke-width="2"/>
<path d="M12 9C13.1046 9 14 8.10457 14 7C14 5.89543 13.1046 5 12 5C10.8954 5 10 5.89543 10 7C10 8.10457 10.8954 9 12 9Z" fill="var(--icon-color, #FFFFFF)"/>
<path d="M7.5 10C7.5 10 9.03406 11 12 11C14.9659 11 16.5 9.99585 16.5 9.99585"  stroke="var(--icon-color, #FFFFFF)" stroke-width="2" stroke-linecap="round"/>
<path d="M10 18C10 18 11.1716 15.3138 11.5 14C11.8284 12.6862 11.5 11 11.5 11H12.5C12.5 11 12.295 13.1799 12.5 14C12.8392 15.3569 14 18 14 18"  stroke="var(--icon-color, #FFFFFF)" stroke-width="2" stroke-linecap="round" stroke-linejoin="round"/>
</svg>
