<svg width="24" height="24" viewBox="0 0 24 24" xmlns="http://www.w3.org/2000/svg">
<path d="M12 22C17.5228 22 22 17.5228 22 12C22 6.47715 17.5228 2 12 2C6.47715 2 2 6.47715 2 12C2 17.5228 6.47715 22 12 22Z"  stroke="var(--icon-color, #FFFFFF)" stroke-width="2"/>
<path fill-rule="evenodd" clip-rule="evenodd" d="M13 11V7.9954C13 7.45566 12.5523 7 12 7C11.4439 7 11 7.44565 11 7.9954V11H7.9954C7.45566 11 7 11.4477 7 12C7 12.5561 7.44565 13 7.9954 13H11V16.0046C11 16.5443 11.4477 17 12 17C12.5561 17 13 16.5543 13 16.0046V13H16.0046C16.5443 13 17 12.5523 17 12C17 11.4439 16.5543 11 16.0046 11H13Z" fill="var(--icon-color, #FFFFFF)"/>
</svg>
