<svg width="24" height="24" viewBox="0 0 24 24" xmlns="http://www.w3.org/2000/svg">
<path fill-rule="evenodd" clip-rule="evenodd" d="M7 10C7 10 6 11.5 4 11C2 10.5 1 8 1 8V5C1 5 1.89625 2 5 2C10 2 10 7 10 10V20.9938C10 21.5495 9.55734 22 9.00104 22H7.99896C7.44725 22 7 21.5442 7 20.9975V10Z"  stroke="var(--icon-color, #FFFFFF)" stroke-width="2" stroke-linecap="round" stroke-linejoin="round"/>
<path d="M2 3L3.19645 4.59527C3.3641 4.8188 3.5 5.21575 3.5 5.49539V7.50461C3.5 7.77821 3.36157 8.18457 3.19645 8.40473L2 10"  stroke="var(--icon-color, #FFFFFF)" stroke-width="2"/>
<path d="M8 19.5H9"  stroke="var(--icon-color, #FFFFFF)" stroke-width="2"/>
<path fill-rule="evenodd" clip-rule="evenodd" d="M17 10C17 10 18 11.5 20 11C22 10.5 23 8 23 8V5C23 5 22.1038 2 19 2C14 2 14 7 14 10V20.9938C14 21.5495 14.4427 22 14.999 22H16.001C16.5528 22 17 21.5442 17 20.9975V10Z"  stroke="var(--icon-color, #FFFFFF)" stroke-width="2" stroke-linecap="round" stroke-linejoin="round"/>
<path d="M22 3L20.8035 4.59527C20.6359 4.8188 20.5 5.21575 20.5 5.49539V7.50461C20.5 7.77821 20.6384 8.18457 20.8035 8.40473L22 10"  stroke="var(--icon-color, #FFFFFF)" stroke-width="2"/>
<path d="M16 19.5H15"  stroke="var(--icon-color, #FFFFFF)" stroke-width="2"/>
</svg>
