<svg width="24" height="24" viewBox="0 0 24 24" xmlns="http://www.w3.org/2000/svg">
<path d="M19.1632 17.9959C20.7455 17.9132 22 16.5985 22 14.9915V7.00853C22 5.35044 20.6598 4 19.0049 4H4.99509C3.33899 4 2 5.3483 2 7.00853V14.9915C2 16.5964 3.25553 17.913 4.83678 17.9959L6.5 16H4.99509C4.44816 16 4 15.5484 4 14.9915V7.00853C4 6.44978 4.44667 6 4.99509 6H19.0049C19.5518 6 20 6.4516 20 7.00853V14.9915C20 15.5502 19.5533 16 19.0049 16H17.5L19.1632 17.9959Z" fill="var(--icon-color, #FFFFFF)"/>
<path fill-rule="evenodd" clip-rule="evenodd" d="M12 14L17 20H7L12 14Z" fill="var(--icon-color, #FFFFFF)"  stroke="var(--icon-color, #FFFFFF)" stroke-width="2" stroke-linejoin="round"/>
</svg>
