<svg width="24" height="24" viewBox="0 0 24 24" xmlns="http://www.w3.org/2000/svg">
<path d="M4.9831 19.1248C3.14165 17.3111 2 14.7889 2 12C2 6.47715 6.47715 2 12 2C17.5228 2 22 6.47715 22 12C22 14.7889 20.8583 17.3111 19.0169 19.1248L17.7062 17.6071C19.1249 16.1635 20 14.184 20 12C20 7.58172 16.4183 4 12 4C7.58172 4 4 7.58172 4 12C4 14.184 4.87513 16.1635 6.29385 17.6071L4.9831 19.1248ZM6.94997 16.8474C5.74228 15.5896 5 13.8815 5 12C5 8.13401 8.13401 5 12 5C15.866 5 19 8.13401 19 12C19 13.8815 18.2577 15.5896 17.05 16.8474L15.7348 15.3245C16.5218 14.4409 17 13.2763 17 12C17 9.23858 14.7614 7 12 7C9.23858 7 7 9.23858 7 12C7 13.2763 7.47821 14.4409 8.26524 15.3245L6.94997 16.8474ZM8.92592 14.5595C8.3478 13.8659 8 12.9735 8 12C8 9.79086 9.79086 8 12 8C14.2091 8 16 9.79086 16 12C16 12.9735 15.6522 13.8659 15.0741 14.5595L13.7304 13.0036C13.9018 12.7086 14 12.3658 14 12C14 10.8954 13.1046 10 12 10C10.8954 10 10 10.8954 10 12C10 12.3658 10.0982 12.7086 10.2696 13.0036L8.92592 14.5595Z" fill="var(--icon-color, #FFFFFF)"/>
<path fill-rule="evenodd" clip-rule="evenodd" d="M12 15L17 21H7L12 15Z" fill="var(--icon-color, #FFFFFF)"  stroke="var(--icon-color, #FFFFFF)" stroke-width="2" stroke-linejoin="round"/>
</svg>
