<svg width="24" height="24" viewBox="0 0 24 24" xmlns="http://www.w3.org/2000/svg">
<path d="M13.6686 3.13859C14.4613 1.85522 15.8808 1 17.5 1C19.9853 1 22 3.01472 22 5.5C22 6.62544 21.5869 7.65439 20.9039 8.44345C20.5745 7.80091 20.1775 7.19871 19.7224 6.64619C19.8998 6.30285 20 5.91313 20 5.5C20 4.11929 18.8807 3 17.5 3C16.8142 3 16.1929 3.27615 15.7412 3.72333C15.0823 3.45734 14.3885 3.25951 13.6686 3.13859Z" fill="var(--icon-color, #FFFFFF)"/>
<path d="M10.3314 3.13859C9.53869 1.85522 8.11921 1 6.49999 1C4.01471 1 1.99999 3.01472 1.99999 5.5C1.99999 6.62544 2.41314 7.65439 3.09605 8.44345C3.42553 7.80091 3.82251 7.19871 4.27763 6.64619C4.1002 6.30285 3.99999 5.91313 3.99999 5.5C3.99999 4.11929 5.11928 3 6.49999 3C7.18581 3 7.80712 3.27615 8.25881 3.72333C8.91774 3.45734 9.61151 3.25951 10.3314 3.13859Z" fill="var(--icon-color, #FFFFFF)"/>
<path d="M12 21C16.4183 21 20 17.4183 20 13C20 8.58172 16.4183 5 12 5C7.58172 5 4 8.58172 4 13C4 17.4183 7.58172 21 12 21Z"  stroke="var(--icon-color, #FFFFFF)" stroke-width="2"/>
<path d="M17 20L19 22"  stroke="var(--icon-color, #FFFFFF)" stroke-width="2" stroke-linecap="round"/>
<path d="M7 20L5 22"  stroke="var(--icon-color, #FFFFFF)" stroke-width="2" stroke-linecap="round"/>
<path d="M12 9V13H15"  stroke="var(--icon-color, #FFFFFF)" stroke-width="2" stroke-linecap="round" stroke-linejoin="round"/>
</svg>
