<svg width="24" height="24" viewBox="0 0 24 24" xmlns="http://www.w3.org/2000/svg">
<path d="M19 6H5C4.44772 6 4 6.44772 4 7V21C4 21.5523 4.44772 22 5 22H19C19.5523 22 20 21.5523 20 21V7C20 6.44772 19.5523 6 19 6Z"  stroke="var(--icon-color, #FFFFFF)" stroke-width="2"/>
<path fill-rule="evenodd" clip-rule="evenodd" d="M16 10.97V15.0009V16.4966C16 17.3251 15.3342 17.9966 14.5 17.9966C13.6716 17.9966 13 17.3308 13 16.4966C13 15.6682 13.6658 14.9966 14.5 14.9966H15V12.1263L11 12.8925V16.5235V17.5417C11 18.3702 10.3342 19.0417 9.5 19.0417C8.67157 19.0417 8 18.376 8 17.5417C8 16.7133 8.6658 16.0417 9.5 16.0417H10V12.0386V11.0227C10 10.4685 10.4315 9.93651 10.9908 9.82938L15.0092 9.05962C15.5564 8.9548 16 9.32207 16 9.87339V10.97Z" fill="var(--icon-color, #FFFFFF)"/>
<path fill-rule="evenodd" clip-rule="evenodd" d="M5 3.5C5 3.22386 5.21991 3 5.49827 3H18.5017C18.7769 3 19 3.23193 19 3.5C19 3.77614 18.7801 4 18.5017 4H5.49827C5.22308 4 5 3.76807 5 3.5ZM6 1.5C6 1.22386 6.229 1 6.50035 1H17.4997C17.776 1 18 1.23193 18 1.5C18 1.77614 17.771 2 17.4997 2H6.50035C6.22401 2 6 1.76807 6 1.5Z" fill="var(--icon-color, #FFFFFF)"/>
</svg>
