<svg width="24" height="24" viewBox="0 0 24 24" xmlns="http://www.w3.org/2000/svg">
<path d="M16 6H8C7.44772 6 7 6.44772 7 7V9C7 9.55228 7.44772 10 8 10H16C16.5523 10 17 9.55228 17 9V7C17 6.44772 16.5523 6 16 6Z"  stroke="var(--icon-color, #FFFFFF)" stroke-width="2"/>
<path d="M18 14H6C5.44772 14 5 14.4477 5 15V17C5 17.5523 5.44772 18 6 18H18C18.5523 18 19 17.5523 19 17V15C19 14.4477 18.5523 14 18 14Z"  stroke="var(--icon-color, #FFFFFF)" stroke-width="2"/>
<path d="M21 18L3 18"  stroke="var(--icon-color, #FFFFFF)" stroke-width="2" stroke-linecap="round"/>
<path d="M21 10H3"  stroke="var(--icon-color, #FFFFFF)" stroke-width="2" stroke-linecap="round"/>
</svg>
