<svg width="24" height="24" viewBox="0 0 24 24" xmlns="http://www.w3.org/2000/svg">
<path d="M21 21H3"  stroke="var(--icon-color, #FFFFFF)" stroke-width="2" stroke-linecap="round" stroke-linejoin="round"/>
<path d="M17 8H15C14.4477 8 14 8.44772 14 9V17C14 17.5523 14.4477 18 15 18H17C17.5523 18 18 17.5523 18 17V9C18 8.44772 17.5523 8 17 8Z"  stroke="var(--icon-color, #FFFFFF)" stroke-width="2"/>
<path d="M9 3H7C6.44772 3 6 3.44772 6 4V17C6 17.5523 6.44772 18 7 18H9C9.55228 18 10 17.5523 10 17V4C10 3.44772 9.55228 3 9 3Z"  stroke="var(--icon-color, #FFFFFF)" stroke-width="2"/>
</svg>
