<svg width="24" height="24" viewBox="0 0 24 24" xmlns="http://www.w3.org/2000/svg">
<path d="M21 3V21"  stroke="var(--icon-color, #FFFFFF)" stroke-width="2" stroke-linecap="round" stroke-linejoin="round"/>
<path d="M17 6H9C8.44772 6 8 6.44772 8 7V9C8 9.55228 8.44772 10 9 10H17C17.5523 10 18 9.55228 18 9V7C18 6.44772 17.5523 6 17 6Z"  stroke="var(--icon-color, #FFFFFF)" stroke-width="2"/>
<path d="M17 14H4C3.44772 14 3 14.4477 3 15V17C3 17.5523 3.44772 18 4 18H17C17.5523 18 18 17.5523 18 17V15C18 14.4477 17.5523 14 17 14Z"  stroke="var(--icon-color, #FFFFFF)" stroke-width="2"/>
</svg>
