<svg width="24" height="24" viewBox="0 0 24 24" xmlns="http://www.w3.org/2000/svg">
<path d="M21 3H3"  stroke="var(--icon-color, #FFFFFF)" stroke-width="2" stroke-linecap="round" stroke-linejoin="round"/>
<path d="M17 6H15C14.4477 6 14 6.44772 14 7V15C14 15.5523 14.4477 16 15 16H17C17.5523 16 18 15.5523 18 15V7C18 6.44772 17.5523 6 17 6Z"  stroke="var(--icon-color, #FFFFFF)" stroke-width="2"/>
<path d="M9 6H7C6.44772 6 6 6.44772 6 7V20C6 20.5523 6.44772 21 7 21H9C9.55228 21 10 20.5523 10 20V7C10 6.44772 9.55228 6 9 6Z"  stroke="var(--icon-color, #FFFFFF)" stroke-width="2"/>
</svg>
