<svg width="24" height="24" viewBox="0 0 24 24" xmlns="http://www.w3.org/2000/svg">
<path d="M3 3V21"  stroke="var(--icon-color, #FFFFFF)" stroke-width="2" stroke-linecap="round" stroke-linejoin="round"/>
<path d="M15 6H7C6.44772 6 6 6.44772 6 7V9C6 9.55228 6.44772 10 7 10H15C15.5523 10 16 9.55228 16 9V7C16 6.44772 15.5523 6 15 6Z"  stroke="var(--icon-color, #FFFFFF)" stroke-width="2"/>
<path d="M20 14H7C6.44772 14 6 14.4477 6 15V17C6 17.5523 6.44772 18 7 18H20C20.5523 18 21 17.5523 21 17V15C21 14.4477 20.5523 14 20 14Z"  stroke="var(--icon-color, #FFFFFF)" stroke-width="2"/>
</svg>
