<svg width="24" height="24" viewBox="0 0 24 24" xmlns="http://www.w3.org/2000/svg">
<g clip-path="url(#clip0)">
<path d="M12 14C13.1046 14 14 13.1046 14 12C14 10.8954 13.1046 10 12 10C10.8954 10 10 10.8954 10 12C10 13.1046 10.8954 14 12 14Z" fill="var(--icon-color, #FFFFFF)"/>
<path d="M12 23C14.2091 23 16 18.0751 16 12C16 5.92487 14.2091 1 12 1C9.79086 1 8 5.92487 8 12C8 18.0751 9.79086 23 12 23Z"  stroke="var(--icon-color, #FFFFFF)" stroke-width="2"/>
<path d="M21.5263 17.5C22.6308 15.5868 19.2612 11.5735 14 8.53591C8.73875 5.49834 3.57826 4.58684 2.47369 6.50001C1.36912 8.41318 4.73875 12.4265 9.99997 15.4641C15.2612 18.5017 20.4217 19.4132 21.5263 17.5Z"  stroke="var(--icon-color, #FFFFFF)" stroke-width="2"/>
<path d="M21.5263 6.49999C22.6308 8.41316 19.2612 12.4265 14 15.4641C8.73875 18.5017 3.57826 19.4132 2.47369 17.5C1.36912 15.5868 4.73875 11.5735 9.99997 8.53589C15.2612 5.49832 20.4217 4.58682 21.5263 6.49999Z"  stroke="var(--icon-color, #FFFFFF)" stroke-width="2"/>
</g>
<defs>
<clipPath id="clip0">
<rect width="24" height="24" fill="var(--icon-color, #FFFFFF)"/>
</clipPath>
</defs>
</svg>
