<svg width="24" height="24" viewBox="0 0 24 24" xmlns="http://www.w3.org/2000/svg">
<path d="M12 18C13.6569 18 15 16.6569 15 15C15 13.3431 13.6569 12 12 12C10.3431 12 9 13.3431 9 15C9 16.6569 10.3431 18 12 18Z" fill="var(--icon-color, #FFFFFF)"/>
<path fill-rule="evenodd" clip-rule="evenodd" d="M12 21C15.3166 21 18 18.3515 18 15.0909C18 14.3679 17.7788 13.4195 17.334 12.1104C17.2333 11.8141 17.1244 11.5072 16.9801 11.1102C16.2326 9.05311 16.2035 8.96978 16.0313 8.29842C15.1259 4.76712 13.756 3 12 3C10.242 3 8.87565 4.76121 7.96866 8.29842C7.79651 8.96978 7.76743 9.05311 7.01986 11.1102C6.87559 11.5072 6.76667 11.8141 6.666 12.1104C6.22119 13.4195 6 14.3679 6 15.0909C6 18.3515 8.68339 21 12 21Z"  stroke="var(--icon-color, #FFFFFF)" stroke-opacity="0.246377" stroke-width="2"/>
<path d="M12 22C15.866 22 19 18.9067 19 15.0909C19 13 17.5 10 17 8.05004C16.0707 4.42592 14.5 2 12 2C9.5 2 7.93176 4.41625 7 8.05004C6.5 10 5 13 5 15.0909C5 18.9067 8.13401 22 12 22Z"  stroke="var(--icon-color, #FFFFFF)" stroke-width="2"/>
</svg>
