<svg width="24" height="24" viewBox="0 0 24 24" xmlns="http://www.w3.org/2000/svg">
<path fill-rule="evenodd" clip-rule="evenodd" d="M4 10.9908C4 6.57758 7.59071 3 12 3C16.4183 3 20 6.5756 20 10.9908V21.0092C20 22.1087 19.1055 23 18.0059 23H5.99406C4.89277 23 4 22.1018 4 21.0092V10.9908Z"  stroke="var(--icon-color, #FFFFFF)" stroke-width="2"/>
<path d="M16 14H8C7.44772 14 7 14.4477 7 15V22C7 22.5523 7.44772 23 8 23H16C16.5523 23 17 22.5523 17 22V15C17 14.4477 16.5523 14 16 14Z"  stroke="var(--icon-color, #FFFFFF)" stroke-width="2"/>
<path d="M22 16C22 15.4477 21.5523 15 21 15C20.4477 15 20 15.4477 20 16V20C20 20.5523 20.4477 21 21 21C21.5523 21 22 20.5523 22 20V16Z" fill="var(--icon-color, #FFFFFF)"/>
<path d="M4 16C4 15.4477 3.55228 15 3 15C2.44772 15 2 15.4477 2 16V20C2 20.5523 2.44772 21 3 21C3.55228 21 4 20.5523 4 20V16Z" fill="var(--icon-color, #FFFFFF)"/>
<path d="M17 17H7V18H17V17Z" fill="var(--icon-color, #FFFFFF)"/>
<path fill-rule="evenodd" clip-rule="evenodd" d="M12 7L11 8L12 9L13 8L12 7Z" fill="var(--icon-color, #FFFFFF)"  stroke="var(--icon-color, #FFFFFF)" stroke-width="2" stroke-linecap="round" stroke-linejoin="round"/>
<path fill-rule="evenodd" clip-rule="evenodd" d="M9.5246 2.5H14.4754C14.3311 1.12531 13.5473 0.5 12 0.5C10.4527 0.5 9.66891 1.12531 9.5246 2.5Z"  stroke="var(--icon-color, #FFFFFF)"/>
</svg>
