<svg width="24" height="24" viewBox="0 0 24 24" xmlns="http://www.w3.org/2000/svg">
<path fill-rule="evenodd" clip-rule="evenodd" d="M2 3.9934C2 3.44476 2.44386 3 3 3C3.55228 3 4 3.44495 4 3.9934V20.0066C4 20.5552 3.55614 21 3 21C2.44772 21 2 20.5551 2 20.0066V3.9934ZM20 3.9934C20 3.44476 20.4439 3 21 3C21.5523 3 22 3.44495 22 3.9934V20.0066C22 20.5552 21.5561 21 21 21C20.4477 21 20 20.5551 20 20.0066V3.9934ZM15 4.00748C15 3.45107 15.4439 3 16 3C16.5523 3 17 3.44892 17 4.00748V16.9925C17 17.5489 16.5561 18 16 18C15.4477 18 15 17.5511 15 16.9925V4.00748ZM10 4.00748C10 3.45107 10.4439 3 11 3C11.5523 3 12 3.44892 12 4.00748V16.9925C12 17.5489 11.5561 18 11 18C10.4477 18 10 17.5511 10 16.9925V4.00748ZM5 3.49908C5 3.22344 5.23193 3 5.5 3C5.77614 3 6 3.22368 6 3.49908V17.5009C6 17.7766 5.76807 18 5.5 18C5.22386 18 5 17.7763 5 17.5009V3.49908ZM13 3.49908C13 3.22344 13.2319 3 13.5 3C13.7761 3 14 3.22368 14 3.49908V17.5009C14 17.7766 13.7681 18 13.5 18C13.2239 18 13 17.7763 13 17.5009V3.49908ZM18 3.49908C18 3.22344 18.2319 3 18.5 3C18.7761 3 19 3.22368 19 3.49908V17.5009C19 17.7766 18.7681 18 18.5 18C18.2239 18 18 17.7763 18 17.5009V3.49908ZM7 4.00748C7 3.45107 7.44386 3 8 3C8.55228 3 9 3.44892 9 4.00748V16.9925C9 17.5489 8.55614 18 8 18C7.44772 18 7 17.5511 7 16.9925V4.00748ZM5 19H9V20H5V19ZM11 19H13V20H11V19ZM14 19H19V20H14V19Z" fill="var(--icon-color, #FFFFFF)"/>
</svg>
