<svg width="24" height="24" viewBox="0 0 24 24" xmlns="http://www.w3.org/2000/svg">
<path d="M21 9H3C2.44772 9 2 9.44772 2 10V12C2 12.5523 2.44772 13 3 13H21C21.5523 13 22 12.5523 22 12V10C22 9.44772 21.5523 9 21 9Z"  stroke="var(--icon-color, #FFFFFF)" stroke-width="2"/>
<path d="M3.5 13L5.25875 20.035C5.39199 20.568 5.94749 21 6.4985 21H17.5015C18.053 21 18.6075 20.5699 18.7412 20.035L20.5 13"  stroke="var(--icon-color, #FFFFFF)" stroke-width="2"/>
<path fill-rule="evenodd" clip-rule="evenodd" d="M10 15.4905C10 15.2196 10.2319 15 10.5 15C10.7761 15 11 15.2151 11 15.4905V18.5095C11 18.7804 10.7681 19 10.5 19C10.2239 19 10 18.7849 10 18.5095V15.4905ZM13 15.4905C13 15.2196 13.2319 15 13.5 15C13.7761 15 14 15.2151 14 15.4905V18.5095C14 18.7804 13.7681 19 13.5 19C13.2239 19 13 18.7849 13 18.5095V15.4905ZM16 15.4954C16 15.2218 16.2319 15 16.5 15C16.7761 15 17 15.2158 17 15.4954V17.5046C17 17.7782 16.7681 18 16.5 18C16.2239 18 16 17.7842 16 17.5046V15.4954ZM7 15.4954C7 15.2218 7.23193 15 7.5 15C7.77614 15 8 15.2158 8 15.4954V17.5046C8 17.7782 7.76807 18 7.5 18C7.22386 18 7 17.7842 7 17.5046V15.4954Z" fill="var(--icon-color, #FFFFFF)"/>
<path d="M11.5 9L17 3"  stroke="var(--icon-color, #FFFFFF)" stroke-width="2" stroke-linecap="round" stroke-linejoin="round"/>
</svg>
