<svg width="24" height="24" viewBox="0 0 24 24" xmlns="http://www.w3.org/2000/svg">
<path fill-rule="evenodd" clip-rule="evenodd" d="M9 21C9 22.6569 10.3431 24 12 24C13.6569 24 15 22.6569 15 21H9Z" fill="var(--icon-color, #FFFFFF)"/>
<path fill-rule="evenodd" clip-rule="evenodd" d="M4.29287 15.2929C5.96177 13.624 5.99997 13.5001 5.99997 10C5.99997 5.72811 8.08618 3 12 3C15.9138 3 18 5.72811 18 10V10.0212C17.9999 11.535 18.104 12.4589 18.5289 13.5051C18.8011 14.1755 19.1866 14.7724 19.7071 15.2929C21.1098 16.6956 20.7257 19 19 19H4.99997C3.27424 19 2.89017 16.6956 4.29287 15.2929Z"  stroke="var(--icon-color, #FFFFFF)" stroke-width="2" stroke-linecap="round" stroke-linejoin="round"/>
</svg>
