<svg width="24" height="24" viewBox="0 0 24 24" xmlns="http://www.w3.org/2000/svg">
<path opacity="0.75" d="M11 7.17635V1.99996C11 1.15212 11.9889 0.688964 12.6402 1.23174L18.6402 6.23174C19.12 6.63153 19.12 7.36838 18.6402 7.76818L16.8975 9.22044C16.7658 8.72891 16.507 8.26433 16.1213 7.87864C16.0064 7.76368 15.8844 7.66 15.7568 7.5676L17.3598 6.23174V7.76818L11.3598 2.76818L13 1.99996V7.17079C12.637 7.29883 12.2937 7.49883 11.9922 7.7708C11.6951 7.50273 11.3573 7.30458 11 7.17635ZM13 16.8447V22L11.3598 21.2317L17.3598 16.2317V17.7682L15.7668 16.4407C15.8908 16.3501 16.0094 16.2489 16.1213 16.1369C16.5104 15.7479 16.7702 15.2786 16.9009 14.7823L18.6402 16.2317C19.12 16.6315 19.12 17.3684 18.6402 17.7682L12.6402 22.7682C11.9889 23.311 11 22.8478 11 22V16.8392C11.3573 16.711 11.6951 16.5128 11.9922 16.2447C12.2937 16.5167 12.637 16.7167 13 16.8447ZM7.0898 9.20981L5.35984 7.76818C4.93556 7.41462 4.87824 6.78405 5.2318 6.35977C5.58537 5.9355 6.21593 5.87817 6.64021 6.23174L8.23599 7.56156C8.10535 7.65547 7.98056 7.76116 7.86309 7.87864C7.48018 8.26155 7.22241 8.72222 7.0898 9.20981ZM8.22595 16.4467L6.64021 17.7682C6.21593 18.1217 5.58537 18.0644 5.2318 17.6401C4.87824 17.2159 4.93556 16.5853 5.35984 16.2317L7.08636 14.793C7.21793 15.2853 7.47684 15.7507 7.86309 16.1369C7.97755 16.2514 8.09895 16.3546 8.22595 16.4467Z" fill="var(--icon-color, #FFFFFF)"/>
<path d="M14 9.99994L10 13.9999"  stroke="var(--icon-color, #FFFFFF)" stroke-width="2" stroke-linecap="round"/>
<path d="M10 9.99994L14 13.9999"  stroke="var(--icon-color, #FFFFFF)" stroke-width="2" stroke-linecap="round"/>
</svg>
