<svg width="24" height="24" viewBox="0 0 24 24" xmlns="http://www.w3.org/2000/svg">
<path opacity="0.75" d="M15.6163 10.2881L18.6402 7.76818C19.12 7.36838 19.12 6.63153 18.6402 6.23174L12.6402 1.23174C11.9889 0.688964 11 1.15212 11 1.99996V8.12598C11.3196 8.04371 11.6547 7.99996 12 7.99996C12.3453 7.99996 12.6804 8.04371 13 8.12598V1.99996L11.3598 2.76818L17.3598 7.76818V6.23174L14.3354 8.75212C14.8819 9.14576 15.325 9.67394 15.6163 10.2881ZM9.66466 15.2478L6.64021 17.7682C6.21593 18.1217 5.58537 18.0644 5.2318 17.6401C4.87824 17.2159 4.93556 16.5853 5.35984 16.2317L8.38379 13.7118C8.67505 14.326 9.11817 14.8542 9.66466 15.2478ZM13 15.8739V22L11.3598 21.2317L17.3598 16.2317V17.7682L14.3354 15.2478C14.8819 14.8542 15.325 14.326 15.6163 13.7118L18.6402 16.2317C19.12 16.6315 19.12 17.3684 18.6402 17.7682L12.6402 22.7682C11.9889 23.311 11 22.8478 11 22V15.8739C11.3196 15.9562 11.6547 16 12 16C12.3453 16 12.6804 15.9562 13 15.8739ZM8.38379 10.2881L5.35984 7.76818C4.93556 7.41462 4.87824 6.78405 5.2318 6.35977C5.58537 5.9355 6.21593 5.87817 6.64021 6.23174L9.66466 8.75212C9.11817 9.14576 8.67505 9.67394 8.38379 10.2881Z" fill="var(--icon-color, #FFFFFF)"/>
<path fill-rule="evenodd" clip-rule="evenodd" d="M4.00001 13.9981C2.89544 13.9981 2 13.1026 2 11.9981C2 10.8935 2.89544 9.99805 4.00001 9.99805C5.10459 9.99805 6.00003 10.8935 6.00003 11.9981C6.00003 13.1026 5.10459 13.9981 4.00001 13.9981ZM20 13.9981C18.8954 13.9981 18 13.1026 18 11.9981C18 10.8935 18.8954 9.99805 20 9.99805C21.1046 9.99805 22 10.8935 22 11.9981C22 13.1026 21.1046 13.9981 20 13.9981ZM12 13.9981C10.8954 13.9981 10 13.1026 10 11.9981C10 10.8935 10.8954 9.99805 12 9.99805C13.1046 9.99805 14 10.8935 14 11.9981C14 13.1026 13.1046 13.9981 12 13.9981Z"  stroke="var(--icon-color, #FFFFFF)" stroke-width="2"/>
</svg>
