<svg width="24" height="24" viewBox="0 0 24 24" xmlns="http://www.w3.org/2000/svg">
<path d="M22 6H2C1.44772 6 1 6.44772 1 7V21C1 21.5523 1.44772 22 2 22H22C22.5523 22 23 21.5523 23 21V7C23 6.44772 22.5523 6 22 6Z"  stroke="var(--icon-color, #FFFFFF)" stroke-width="2"/>
<path d="M8 6.0019V3.9981C8 2.89458 8.90195 2 10.0085 2H13.9915C15.1007 2 16 2.88671 16 3.9981V6.0019"  stroke="var(--icon-color, #FFFFFF)" stroke-width="2"/>
<path d="M23 9C23 9 23 14.0311 17.9689 14.0311C12.9377 14.0311 9 14.0311 4.99082 14.0311C0.98164 14.0311 1 9 1 9"  stroke="var(--icon-color, #FFFFFF)" stroke-width="2" stroke-linejoin="round"/>
<path fill-rule="evenodd" clip-rule="evenodd" d="M16 11.9908C16 11.4436 16.4439 11 17 11C17.5523 11 18 11.451 18 11.9908V16.0092C18 16.5564 17.5561 17 17 17C16.4477 17 16 16.549 16 16.0092V11.9908ZM6 11.9908C6 11.4436 6.44386 11 7 11C7.55228 11 8 11.451 8 11.9908V16.0092C8 16.5564 7.55614 17 7 17C6.44772 17 6 16.549 6 16.0092V11.9908Z" fill="var(--icon-color, #FFFFFF)"/>
</svg>
