<svg width="24" height="24" viewBox="0 0 24 24" xmlns="http://www.w3.org/2000/svg">
<path d="M12 16C14.2091 16 16 14.2091 16 12C16 9.79086 14.2091 8 12 8C9.79086 8 8 9.79086 8 12C8 14.2091 9.79086 16 12 16Z"  stroke="var(--icon-color, #FFFFFF)" stroke-width="2"/>
<path d="M7.05025 7.05025L4.92893 4.92893M12 5V2V5ZM16.9497 7.05025L19.0711 4.92893L16.9497 7.05025ZM19 12H22H19ZM16.9497 16.9497L19.0711 19.0711L16.9497 16.9497ZM12 19V22V19ZM7.05025 16.9497L4.92893 19.0711L7.05025 16.9497ZM5 12H2H5Z"  stroke="var(--icon-color, #FFFFFF)" stroke-width="2" stroke-linecap="round"/>
</svg>
