<svg width="24" height="24" viewBox="0 0 24 24" xmlns="http://www.w3.org/2000/svg">
<path d="M12 16C14.2091 16 16 14.2091 16 12C16 9.79086 14.2091 8 12 8C9.79086 8 8 9.79086 8 12C8 14.2091 9.79086 16 12 16Z"  stroke="var(--icon-color, #FFFFFF)" stroke-width="2"/>
<path d="M7.05025 7.05025L5.63604 5.63604M12 5V3V5ZM16.9497 7.05025L18.364 5.63604L16.9497 7.05025ZM19 12H21H19ZM16.9497 16.9497L18.364 18.364L16.9497 16.9497ZM12 19V21V19ZM7.05025 16.9497L5.63604 18.364L7.05025 16.9497ZM5 12H3H5Z"  stroke="var(--icon-color, #FFFFFF)" stroke-width="2" stroke-linecap="round" stroke-linejoin="round"/>
</svg>
