<svg width="24" height="24" viewBox="0 0 24 24" xmlns="http://www.w3.org/2000/svg">
<path fill-rule="evenodd" clip-rule="evenodd" d="M22 18C22 22 22 22 12 22C2 22 2 22 2 18C4 18 20 18 22 18Z"  stroke="var(--icon-color, #FFFFFF)" stroke-width="2" stroke-linecap="round" stroke-linejoin="round"/>
<path d="M21.5 13H2.5C1.67157 13 1 13.6716 1 14.5C1 15.3284 1.67157 16 2.5 16H21.5C22.3284 16 23 15.3284 23 14.5C23 13.6716 22.3284 13 21.5 13Z" fill="var(--icon-color, #FFFFFF)"/>
<path opacity="0.9" d="M2 11C2 11 3 12 4 12C5 12 5 11 6 11C7 11 7 12 8 12C9 12 9 11 10 11C11 11 11 12 12 12C13 12 13 11 14 11C15 11 15 12 16 12C17 12 17 11 18 11C19 11 19 12 20 12C21 12 22 11 22 11"  stroke="var(--icon-color, #FFFFFF)" stroke-width="2" stroke-linecap="round" stroke-linejoin="round"/>
<path opacity="0.5" fill-rule="evenodd" clip-rule="evenodd" d="M6.5 5C6.22386 5 6 4.77614 6 4.5C6 4.22386 6.22386 4 6.5 4C6.77614 4 7 4.22386 7 4.5C7 4.77614 6.77614 5 6.5 5ZM8.5 6C8.22386 6 8 5.77614 8 5.5C8 5.22386 8.22386 5 8.5 5C8.77614 5 9 5.22386 9 5.5C9 5.77614 8.77614 6 8.5 6ZM9.5 4C9.22386 4 9 3.77614 9 3.5C9 3.22386 9.22386 3 9.5 3C9.77614 3 10 3.22386 10 3.5C10 3.77614 9.77614 4 9.5 4ZM11.5 5C11.2239 5 11 4.77614 11 4.5C11 4.22386 11.2239 4 11.5 4C11.7761 4 12 4.22386 12 4.5C12 4.77614 11.7761 5 11.5 5ZM14.5 4C14.2239 4 14 3.77614 14 3.5C14 3.22386 14.2239 3 14.5 3C14.7761 3 15 3.22386 15 3.5C15 3.77614 14.7761 4 14.5 4ZM16.5 6C16.2239 6 16 5.77614 16 5.5C16 5.22386 16.2239 5 16.5 5C16.7761 5 17 5.22386 17 5.5C17 5.77614 16.7761 6 16.5 6ZM17.5 4C17.2239 4 17 3.77614 17 3.5C17 3.22386 17.2239 3 17.5 3C17.7761 3 18 3.22386 18 3.5C18 3.77614 17.7761 4 17.5 4Z" fill="var(--icon-color, #FFFFFF)"/>
<path fill-rule="evenodd" clip-rule="evenodd" d="M22 8C22 2 18 2 12 2C6 2 2 2 2 8C4 8 20 8 22 8Z"  stroke="var(--icon-color, #FFFFFF)" stroke-width="2" stroke-linecap="round" stroke-linejoin="round"/>
</svg>
