<svg width="24" height="24" viewBox="0 0 24 24" xmlns="http://www.w3.org/2000/svg">
<path d="M19 3H5C3.89543 3 3 3.89543 3 5V19C3 20.1046 3.89543 21 5 21H19C20.1046 21 21 20.1046 21 19V5C21 3.89543 20.1046 3 19 3Z"  stroke="var(--icon-color, #FFFFFF)" stroke-width="2"/>
<path fill-rule="evenodd" clip-rule="evenodd" d="M8 7V5.4977C8 5.21484 7.77614 5 7.5 5C7.23193 5 7 5.22283 7 5.4977V7H5.4977C5.21484 7 5 7.22386 5 7.5C5 7.76807 5.22283 8 5.4977 8H7V9.5023C7 9.78516 7.22386 10 7.5 10C7.76807 10 8 9.77717 8 9.5023V8H9.5023C9.78516 8 10 7.77614 10 7.5C10 7.23193 9.77717 7 9.5023 7H8Z" fill="var(--icon-color, #FFFFFF)"/>
<path fill-rule="evenodd" clip-rule="evenodd" d="M7.50001 15.7929L6.43772 14.7306C6.23772 14.5306 5.92751 14.537 5.73224 14.7322C5.54269 14.9218 5.53625 15.2433 5.73062 15.4377L6.7929 16.5L5.73062 17.5623C5.53061 17.7623 5.53698 18.0725 5.73224 18.2678C5.9218 18.4573 6.24336 18.4638 6.43772 18.2694L7.50001 17.2071L8.5623 18.2694C8.76231 18.4694 9.07252 18.463 9.26778 18.2678C9.45733 18.0782 9.46377 17.7567 9.2694 17.5623L8.20712 16.5L9.26941 15.4377C9.46941 15.2377 9.46304 14.9275 9.26778 14.7322C9.07823 14.5427 8.75666 14.5362 8.5623 14.7306L7.50001 15.7929Z" fill="var(--icon-color, #FFFFFF)"/>
<path d="M14.5 7C14.2239 7 14 7.22386 14 7.5C14 7.77614 14.2239 8 14.5 8H18.5C18.7761 8 19 7.77614 19 7.5C19 7.22386 18.7761 7 18.5 7H14.5Z" fill="var(--icon-color, #FFFFFF)"/>
<path fill-rule="evenodd" clip-rule="evenodd" d="M14.4977 16C14.2228 16 14 15.7681 14 15.5C14 15.2239 14.2148 15 14.4977 15H18.5023C18.7772 15 19 15.2319 19 15.5C19 15.7761 18.7852 16 18.5023 16H14.4977ZM14.4977 18C14.2228 18 14 17.7681 14 17.5C14 17.2239 14.2148 17 14.4977 17H18.5023C18.7772 17 19 17.2319 19 17.5C19 17.7761 18.7852 18 18.5023 18H14.4977Z" fill="var(--icon-color, #FFFFFF)"/>
<path fill-rule="evenodd" clip-rule="evenodd" d="M13 11V3H11V11H3V13H11V21H13V13H21V11H13Z" fill="var(--icon-color, #FFFFFF)"/>
</svg>
