<svg width="24" height="24" viewBox="0 0 24 24" xmlns="http://www.w3.org/2000/svg">
<path fill-rule="evenodd" clip-rule="evenodd" d="M5.58579 6L8.58579 3H15.4142L18.4142 6H20C21.658 6 23 7.3424 23 9.00276V17.9972C23 19.6524 21.6573 21 20.0092 21H3.9908C2.33685 21 1 19.6566 1 17.9972V9.00276C1 7.34261 2.3372 6 4 6H5.58579Z"  stroke="var(--icon-color, #FFFFFF)" stroke-width="2" stroke-linejoin="round"/>
<path d="M12 17C14.2091 17 16 15.2091 16 13C16 10.7909 14.2091 9 12 9C9.79086 9 8 10.7909 8 13C8 15.2091 9.79086 17 12 17Z"  stroke="var(--icon-color, #FFFFFF)" stroke-width="2"/>
</svg>
