<svg width="24" height="24" viewBox="0 0 24 24" xmlns="http://www.w3.org/2000/svg">
<path fill-rule="evenodd" clip-rule="evenodd" d="M5.58579 6L8.58579 3H15.4142L18.4142 6H20C21.658 6 23 7.3424 23 9.00276V17.9972C23 19.6524 21.6573 21 20.0092 21H3.9908C2.33685 21 1 19.6566 1 17.9972V9.00276C1 7.34261 2.3372 6 4 6H5.58579Z"  stroke="var(--icon-color, #FFFFFF)" stroke-width="2" stroke-linejoin="round"/>
<path fill-rule="evenodd" clip-rule="evenodd" d="M17 13H18.0092C18.549 13 18.7314 13.3581 18.4001 13.7998L16.5999 16.2002C16.3389 16.5481 15.9549 16.622 15.6415 16.4263C15.6295 16.4391 15.6174 16.4517 15.6053 16.4644L15.4801 16.2944C15.4523 16.2656 15.4256 16.2342 15.4001 16.2002L13.5999 13.7998C13.2662 13.355 13.4436 13 13.9908 13H15C15 11.3431 13.6569 10 12 10C11.6398 10 11.2945 10.0635 10.9746 10.1798L9.75848 8.52937C10.4327 8.19067 11.1941 8 12 8C14.7614 8 17 10.2386 17 13ZM7 13H5.99077C5.44358 13 5.26623 12.645 5.59988 12.2002L7.40011 9.79985C7.73142 9.3581 8.26623 9.35497 8.59988 9.79985L10.4001 12.2002C10.7314 12.6419 10.549 13 10.0092 13H9C9 14.6569 10.3431 16 12 16C12.3865 16 12.756 15.9269 13.0953 15.7938L14.322 17.4293C13.6281 17.7938 12.8381 18 12 18C9.23857 18 7 15.7614 7 13Z" fill="var(--icon-color, #FFFFFF)"/>
</svg>
