<svg width="24" height="24" viewBox="0 0 24 24" xmlns="http://www.w3.org/2000/svg">
<path d="M17 7.00086V7.00001V7.00087V20.9991C17 22.1047 16.1079 23 15 23C13.8946 23 13 22.1068 13 20.9991V7.00087V7.00086V7C13 5.89543 12.1046 5 11 5C9.89543 5 9 5.89543 9 7V9C9 10.1046 8.10457 11 7 11C5.89543 11 5 10.1046 5 9V7C5 3.68629 7.68629 1 11 1C14.3137 1 17 3.68629 17 7V7.00086Z"  stroke="var(--icon-color, #FFFFFF)" stroke-width="2"/>
<path d="M14 20L16.0616 17.9385"  stroke="var(--icon-color, #FFFFFF)" stroke-linecap="square"/>
<path d="M14 16L16.0616 13.9385"  stroke="var(--icon-color, #FFFFFF)" stroke-linecap="square"/>
<path d="M14 12L16.0616 9.93848"  stroke="var(--icon-color, #FFFFFF)" stroke-linecap="square"/>
<path d="M14 8.00003L16.0616 5.93848"  stroke="var(--icon-color, #FFFFFF)" stroke-linecap="square"/>
<path d="M8.06152 9.00003L5.99997 6.93848"  stroke="var(--icon-color, #FFFFFF)" stroke-linecap="square"/>
<path d="M13 5L14 3"  stroke="var(--icon-color, #FFFFFF)" stroke-linecap="square"/>
<path d="M10.5 4V2"  stroke="var(--icon-color, #FFFFFF)" stroke-linecap="square"/>
<path d="M8.5 5.5L7 3.5"  stroke="var(--icon-color, #FFFFFF)" stroke-linecap="square"/>
</svg>
