<svg width="24" height="24" viewBox="0 0 24 24" xmlns="http://www.w3.org/2000/svg">
<path fill-rule="evenodd" clip-rule="evenodd" d="M9 9.99558C9 9.44573 9.45098 9.07516 9.99078 9.16513L14.0092 9.83487C14.5564 9.92607 15 10.4557 15 10.9954V19.0046C15 19.5543 14.549 20 14.0092 20H9.99078C9.44359 20 9 19.5552 9 19.0044V9.99558Z"  stroke="var(--icon-color, #FFFFFF)" stroke-width="2" stroke-linecap="round" stroke-linejoin="round"/>
<path d="M13 10.5C13 10.2239 12.7761 10 12.5 10C12.2239 10 12 10.2239 12 10.5V13.5C12 13.7761 12.2239 14 12.5 14C12.7761 14 13 13.7761 13 13.5V10.5Z" fill="var(--icon-color, #FFFFFF)"/>
<path fill-rule="evenodd" clip-rule="evenodd" d="M4.83657 21.2549C4.37453 20.5618 4.66711 20 5.50522 20H18.4947C19.3261 20 19.6238 20.5643 19.1634 21.2549L18 23H5.99998L4.83657 21.2549Z"  stroke="var(--icon-color, #FFFFFF)" stroke-width="2" stroke-linejoin="round"/>
<path fill-rule="evenodd" clip-rule="evenodd" d="M12 7C13.1046 7 14 6 14 5C14 3.5 12 3 12 1C11 1 10 3.89543 10 5C10 6.10457 10.8954 7 12 7Z"  stroke="var(--icon-color, #FFFFFF)" stroke-width="2" stroke-linecap="round" stroke-linejoin="round"/>
</svg>
