<svg width="24" height="24" viewBox="0 0 24 24" xmlns="http://www.w3.org/2000/svg">
<path fill-rule="evenodd" clip-rule="evenodd" d="M2.44289 9.83567C2.75057 9.37414 3.44495 9 3.9934 9H20.0066C20.5552 9 21.2452 9.36786 21.5571 9.83567L21.8947 10.3421C22.5051 11.2577 23 12.8983 23 13.9979V17.0092C23 17.5564 22.5621 18.0995 22.0198 18.2072C22.0198 18.2072 19.1353 19 12 19C4.86472 19 1.95442 18.2024 1.95442 18.2024C1.42731 18.0906 1 17.549 1 17.0092V13.9979C1 12.8945 1.49438 11.2584 2.10529 10.3421L2.44289 9.83567Z"  stroke="var(--icon-color, #FFFFFF)" stroke-width="2" stroke-linecap="round" stroke-linejoin="round"/>
<path fill-rule="evenodd" clip-rule="evenodd" d="M8.5 14C9.5 14 14.5 14 15.5 14C16.5 14 17.5 15 17.5 15.5C17.5 16 17 17 16.5 17C16 17 8 17 7.5 17C7 17 6.5 16 6.5 15.5C6.5 15 7.5 14 8.5 14Z" fill="var(--icon-color, #FFFFFF)"/>
<path fill-rule="evenodd" clip-rule="evenodd" d="M19.1718 15.1997C18.356 15.3436 17.5391 14.5784 17.3473 13.4906C17.1555 12.4028 17.6614 11.4043 18.4772 11.2605C19.2931 11.1166 20.1099 11.8818 20.3017 12.9696C20.4935 14.0574 19.9877 15.0559 19.1718 15.1997ZM4.82721 15.1997C4.01137 15.0559 3.50549 14.0574 3.6973 12.9696C3.8891 11.8818 4.70596 11.1166 5.5218 11.2605C6.33764 11.4043 6.84353 12.4028 6.65172 13.4906C6.45991 14.5784 5.64305 15.3436 4.82721 15.1997Z" fill="var(--icon-color, #FFFFFF)"/>
<path fill-rule="evenodd" clip-rule="evenodd" d="M20 18L24 17V21.0002C24 21.5524 23.5566 22 22.9906 22H21.0094C20.4519 22 20 21.5566 20 20.9906V18ZM0 17L4 19V21.001C4 21.5528 3.55665 22 2.99063 22H1.00937C0.45191 22 0 21.5563 0 21.0002V17Z" fill="var(--icon-color, #FFFFFF)"/>
<path fill-rule="evenodd" clip-rule="evenodd" d="M3.80243 4.98784C3.91155 4.44227 4.42796 3.90046 4.97679 3.78301C4.97679 3.78301 8 3 12 3C16 3 19.047 3.78793 19.047 3.78793C19.5733 3.90505 20.0887 4.44372 20.1976 4.98784L21 9H3L3.80243 4.98784Z"  stroke="var(--icon-color, #FFFFFF)" stroke-width="2"/>
<path fill-rule="evenodd" clip-rule="evenodd" d="M24 8.5C24 9.5 22.5 10 21 10C21 8.5 21.5 7 22.5 7C23.5 7 24 7.5 24 8.5ZM0 8.5C0 7.5 0.5 7 1.5 7C2.5 7 3 8.5 3 10C1.5 10 0 9.5 0 8.5Z" fill="var(--icon-color, #FFFFFF)"/>
</svg>
