<svg width="24" height="24" viewBox="0 0 24 24" xmlns="http://www.w3.org/2000/svg">
<path d="M15.2929 22.7071C15.6834 23.0976 16.3166 23.0976 16.7071 22.7071L19.4142 20H20C21.5523 20 23 18.5523 23 17V11C23 9.44772 21.5523 8 20 8V10C20.4477 10 21 10.5523 21 11V17C21 17.4477 20.4477 18 20 18H19C18.7348 18 18.4804 18.1054 18.2929 18.2929L16 20.5858L13.7071 18.2929C13.5196 18.1054 13.2652 18 13 18H8C7.55228 18 7 17.4477 7 17L5 15.5V17C5 18.5523 6.44772 20 8 20H10.3878H11.9259C12.4493 20 12.6511 20 12.7804 20L15.2929 22.7071Z" fill="var(--icon-color, #FFFFFF)"/>
<path fill-rule="evenodd" clip-rule="evenodd" d="M4.00043 10C4.00105 9.99859 4.00194 10 4 10H4.00043ZM11.4142 12L8 15.4142L4.58579 12H4C2.89736 12 2 11.1012 2 10.003V3.99703C2 2.89174 2.90001 2 4.00685 2H15.9932C17.098 2 18 2.89729 18 3.99703V10.003C18 11.1031 17.1041 12 16.0092 12H11.4142Z"  stroke="var(--icon-color, #FFFFFF)" stroke-width="2" stroke-linejoin="round"/>
</svg>
