<svg width="24" height="24" viewBox="0 0 24 24" xmlns="http://www.w3.org/2000/svg">
<path fill-rule="evenodd" clip-rule="evenodd" d="M12.4142 18L9 21.4142L5.58579 18H3.99896C2.89548 18 2 17.0971 2 15.9975V6.00247C2 4.8986 2.89058 4 3.9934 4H20.0066C21.1083 4 22 4.90416 22 6.00247V15.9975C22 17.1024 21.107 18 20.0025 18H12.4142Z"  stroke="var(--icon-color, #FFFFFF)" stroke-width="2" stroke-linejoin="round"/>
<path fill-rule="evenodd" clip-rule="evenodd" d="M6 9C6 8.44772 6.45576 8 7.00247 8H16.9975C17.5512 8 18 8.44386 18 9C18 9.55228 17.5442 10 16.9975 10H7.00247C6.44882 10 6 9.55614 6 9ZM6 13C6 12.4477 6.45576 12 7.00247 12H16.9975C17.5512 12 18 12.4439 18 13C18 13.5523 17.5442 14 16.9975 14H7.00247C6.44882 14 6 13.5561 6 13Z" fill="var(--icon-color, #FFFFFF)"/>
</svg>
