<svg width="24" height="24" viewBox="0 0 24 24" xmlns="http://www.w3.org/2000/svg">
<path fill-rule="evenodd" clip-rule="evenodd" d="M2 4.9942C2 3.34055 3.34331 2 4.9942 2H19.0058C20.6595 2 22 3.34331 22 4.9942V19.0058C22 20.6595 20.6567 22 19.0058 22H4.9942C3.34055 22 2 20.6567 2 19.0058V4.9942ZM8.76822 12.3598C8.41466 11.9355 7.78409 11.8782 7.35982 12.2318C6.93554 12.5853 6.87821 13.2159 7.23178 13.6402L9.73178 16.6402C10.1558 17.149 10.9484 17.1125 11.3238 16.5669L16.8394 8.55126C17.1525 8.09628 17.0375 7.47366 16.5825 7.16058C16.1275 6.84751 15.5049 6.96254 15.1918 7.41752L10.4239 14.3466L8.76822 12.3598Z" fill="var(--icon-color, #FFFFFF)"/>
</svg>
