<svg width="24" height="24" viewBox="0 0 24 24" xmlns="http://www.w3.org/2000/svg">
<path d="M8.39842 4.74957C5.22064 6.13874 3 9.31004 3 13C3 17.9706 7.02944 22 12 22C16.9706 22 21 17.9706 21 13C21 9.49541 18.9969 6.45867 16.0731 4.97226"  stroke="var(--icon-color, #FFFFFF)" stroke-width="2"/>
<path d="M3 11C3 11 5 10 5.5 11C6 12 6 14 8 14C10 14 9 10 11 10C13 10 12 15 14.5 15C17 15 15.5 10 17.5 10C19.5 10 18.5 12 21 12"  stroke="var(--icon-color, #FFFFFF)" stroke-width="2"/>
<path fill-rule="evenodd" clip-rule="evenodd" d="M14 6C12.8954 6 12 5.10457 12 4C12 2.89543 12.8954 2 14 2C15.1046 2 16 2.89543 16 4C16 5.10457 15.1046 6 14 6ZM10 5C8.89543 5 8 4.10457 8 3C8 1.89543 8.89543 1 10 1C11.1046 1 12 1.89543 12 3C12 4.10457 11.1046 5 10 5Z"  stroke="var(--icon-color, #FFFFFF)" stroke-width="2"/>
</svg>
