<svg width="24" height="24" viewBox="0 0 24 24" xmlns="http://www.w3.org/2000/svg">
<path d="M12 22C17.5228 22 22 17.5228 22 12C22 6.47715 17.5228 2 12 2C6.47715 2 2 6.47715 2 12C2 17.5228 6.47715 22 12 22Z"  stroke="var(--icon-color, #FFFFFF)" stroke-width="2"/>
<path fill-rule="evenodd" clip-rule="evenodd" d="M12 10.5858L9.87545 8.46121C9.4938 8.07956 8.85501 8.07394 8.46449 8.46447C8.07124 8.85771 8.07251 9.4867 8.46123 9.87543L10.5858 12L8.46123 14.1246C8.07959 14.5062 8.07396 15.145 8.46449 15.5355C8.85774 15.9288 9.48672 15.9275 9.87545 15.5388L12 13.4142L14.1246 15.5388C14.5062 15.9204 15.145 15.9261 15.5356 15.5355C15.9288 15.1423 15.9275 14.5133 15.5388 14.1246L13.4142 12L15.5388 9.87543C15.9205 9.49378 15.9261 8.85499 15.5356 8.46447C15.1423 8.07122 14.5133 8.07248 14.1246 8.46121L12 10.5858Z" fill="var(--icon-color, #FFFFFF)"/>
</svg>
