<svg width="24" height="24" viewBox="0 0 24 24" xmlns="http://www.w3.org/2000/svg">
<path d="M7 18H5C2.79086 18 1 16.2091 1 14C1 11.7909 2.79086 10 5 10C5.3584 10 5.7058 10.0471 6.03632 10.1356C6.01233 9.92703 6 9.71495 6 9.5C6 6.46243 8.46243 4 11.5 4C14.0673 4 16.2238 5.75905 16.83 8.13765C17.2053 8.04766 17.5971 8 18 8C20.7614 8 23 10.2386 23 13C23 15.7614 20.7614 18 18 18H17"  stroke="var(--icon-color, #FFFFFF)" stroke-width="2" stroke-linecap="round" stroke-linejoin="round"/>
<path d="M12 22C12.5523 22 13 21.5523 13 21C13 20.4477 12.5523 20 12 20C11.4477 20 11 20.4477 11 21C11 21.5523 11.4477 22 12 22Z" fill="var(--icon-color, #FFFFFF)"/>
<path fill-rule="evenodd" clip-rule="evenodd" d="M11.9999 19C11.4477 19 10.9504 18.5537 10.8891 18.0025L10.1999 11.7997C10.0895 10.8057 10.8094 10 11.8127 10H12.1872C13.1883 10 13.9112 10.7987 13.8 11.7997L13.1108 18.0025C13.0496 18.5534 12.5561 19 11.9999 19Z" fill="var(--icon-color, #FFFFFF)"/>
</svg>
