<svg width="24" height="24" viewBox="0 0 24 24" xmlns="http://www.w3.org/2000/svg">
<g clip-path="url(#clip0)">
<path d="M11 12C15.9706 12 20 10.6569 20 9C20 7.34315 15.9706 6 11 6C6.02944 6 2 7.34315 2 9C2 10.6569 6.02944 12 11 12Z"  stroke="var(--icon-color, #FFFFFF)" stroke-width="2"/>
<path d="M2 9C2 17 8 19 8 19H14C14 19 20 17 20 9"  stroke="var(--icon-color, #FFFFFF)" stroke-width="2" stroke-linejoin="round"/>
<path d="M20 11C20 11 23.5 10.5 23 14C22.5 17.5 18 16 18 16"  stroke="var(--icon-color, #FFFFFF)" stroke-width="2"/>
<path opacity="0.5" d="M7 2C7 3 6 4 6 5C6 6 7 7 7 8"  stroke="var(--icon-color, #FFFFFF)" stroke-width="2" stroke-linecap="round" stroke-linejoin="round"/>
<path opacity="0.5" d="M11 2C11 3 10 4 10 5C10 6 11 7 11 8"  stroke="var(--icon-color, #FFFFFF)" stroke-width="2" stroke-linecap="round" stroke-linejoin="round"/>
<path opacity="0.5" d="M15 2C15 3 14 4 14 5C14 6 15 7 15 8"  stroke="var(--icon-color, #FFFFFF)" stroke-width="2" stroke-linecap="round" stroke-linejoin="round"/>
</g>
<defs>
<clipPath id="clip0">
<rect width="24" height="24" fill="var(--icon-color, #FFFFFF)"/>
</clipPath>
</defs>
</svg>
