<svg width="24" height="24" viewBox="0 0 24 24" xmlns="http://www.w3.org/2000/svg">
<path d="M12 22C17.5228 22 22 17.5228 22 12C22 6.47715 17.5228 2 12 2C6.47715 2 2 6.47715 2 12C2 17.5228 6.47715 22 12 22Z"  stroke="var(--icon-color, #FFFFFF)" stroke-width="2"/>
<path d="M12 19.5C16.1421 19.5 19.5 16.1421 19.5 12C19.5 7.85786 16.1421 4.5 12 4.5C7.85786 4.5 4.5 7.85786 4.5 12C4.5 16.1421 7.85786 19.5 12 19.5Z"  stroke="var(--icon-color, #FFFFFF)"/>
<path fill-rule="evenodd" clip-rule="evenodd" d="M9.48602 14.496C9.48602 14.775 9.71102 15 10.044 15H13.815C14.148 15 14.418 14.739 14.418 14.406C14.418 14.073 14.148 13.803 13.815 13.803H11.628V12.597H13.158C13.473 12.597 13.734 12.345 13.734 12.03C13.734 11.715 13.473 11.454 13.158 11.454H11.628V10.761C11.628 10.473 11.718 10.239 11.862 10.095C11.997 9.95999 12.159 9.89699 12.375 9.89699C12.672 9.89699 12.888 10.014 13.122 10.257C13.212 10.347 13.374 10.464 13.617 10.464C13.995 10.464 14.301 10.167 14.301 9.78899C14.301 9.56399 14.211 9.41999 14.085 9.29399C13.689 8.88899 13.158 8.60999 12.357 8.60999C11.664 8.60999 11.133 8.81699 10.764 9.18599C10.413 9.53699 10.224 10.077 10.224 10.725V11.454H10.062C9.74702 11.454 9.48602 11.715 9.48602 12.03C9.48602 12.345 9.74702 12.597 10.062 12.597H10.224V13.866L9.86402 13.983C9.62102 14.064 9.48602 14.271 9.48602 14.496Z" fill="var(--icon-color, #FFFFFF)"/>
</svg>
