<svg width="24" height="24" viewBox="0 0 24 24" xmlns="http://www.w3.org/2000/svg">
<path d="M12 22C17.5228 22 22 17.5228 22 12C22 6.47715 17.5228 2 12 2C6.47715 2 2 6.47715 2 12C2 17.5228 6.47715 22 12 22Z"  stroke="var(--icon-color, #FFFFFF)" stroke-width="2"/>
<path d="M12 19.5C16.1421 19.5 19.5 16.1421 19.5 12C19.5 7.85786 16.1421 4.5 12 4.5C7.85786 4.5 4.5 7.85786 4.5 12C4.5 16.1421 7.85786 19.5 12 19.5Z"  stroke="var(--icon-color, #FFFFFF)"/>
<path fill-rule="evenodd" clip-rule="evenodd" d="M11.619 8.59202C11.619 8.33102 11.826 8.12402 12.087 8.12402C12.348 8.12402 12.555 8.33102 12.555 8.59202V8.71802C13.041 8.79002 13.473 8.93402 13.86 9.15002C14.031 9.24902 14.184 9.42002 14.184 9.69002C14.184 10.032 13.914 10.293 13.572 10.293C13.464 10.293 13.356 10.266 13.257 10.212C13.005 10.077 12.753 9.96902 12.51 9.90602V11.274C13.878 11.643 14.463 12.201 14.463 13.209C14.463 14.217 13.689 14.865 12.555 14.991V15.468C12.555 15.729 12.348 15.936 12.087 15.936C11.826 15.936 11.619 15.729 11.619 15.468V14.982C10.98 14.901 10.377 14.676 9.84598 14.352C9.65698 14.235 9.53998 14.055 9.53998 13.812C9.53998 13.461 9.80998 13.2 10.161 13.2C10.278 13.2 10.404 13.245 10.512 13.317C10.89 13.56 11.25 13.731 11.664 13.821V12.39C10.368 12.039 9.72898 11.544 9.72898 10.473C9.72898 9.48302 10.485 8.81702 11.619 8.70002V8.59202ZM13.149 13.281C13.149 12.984 12.996 12.786 12.51 12.615V13.866C12.933 13.803 13.149 13.605 13.149 13.281ZM11.043 10.392C11.043 10.671 11.169 10.86 11.664 11.04V9.82502C11.232 9.88802 11.043 10.104 11.043 10.392Z" fill="var(--icon-color, #FFFFFF)"/>
</svg>
