<svg width="24" height="24" viewBox="0 0 24 24" xmlns="http://www.w3.org/2000/svg">
<path fill-rule="evenodd" clip-rule="evenodd" d="M6 11C3.23858 11 1 13.2386 1 16C1 18.7614 3.23858 21 6 21C7.63582 21 9.08816 20.2144 10.0004 19H13.9996C14.9118 20.2144 16.3642 21 18 21C20.7614 21 23 18.7614 23 16C23 13.2386 20.7614 11 18 11H6Z"  stroke="var(--icon-color, #FFFFFF)" stroke-width="2"/>
<path fill-rule="evenodd" clip-rule="evenodd" d="M18 15C17.4477 15 17 14.5523 17 14C17 13.4477 17.4477 13 18 13C18.5523 13 19 13.4477 19 14C19 14.5523 18.5523 15 18 15ZM20 17C19.4477 17 19 16.5523 19 16C19 15.4477 19.4477 15 20 15C20.5523 15 21 15.4477 21 16C21 16.5523 20.5523 17 20 17ZM16 17C15.4477 17 15 16.5523 15 16C15 15.4477 15.4477 15 16 15C16.5523 15 17 15.4477 17 16C17 16.5523 16.5523 17 16 17ZM18 19C17.4477 19 17 18.5523 17 18C17 17.4477 17.4477 17 18 17C18.5523 17 19 17.4477 19 18C19 18.5523 18.5523 19 18 19Z" fill="var(--icon-color, #FFFFFF)"/>
<path fill-rule="evenodd" clip-rule="evenodd" d="M7 15V13.9908C7 13.451 6.55228 13 6 13C5.44386 13 5 13.4436 5 13.9908V15H3.99078C3.45098 15 3 15.4477 3 16C3 16.5561 3.44359 17 3.99078 17H5V18.0092C5 18.549 5.44772 19 6 19C6.55614 19 7 18.5564 7 18.0092V17H8.00922C8.54902 17 9 16.5523 9 16C9 15.4439 8.55641 15 8.00922 15H7Z" fill="var(--icon-color, #FFFFFF)"/>
<path d="M12 11V10.001C12 8.8959 11.1017 8 10.0021 8H7.49858C6.67094 8 6 7.3342 6 6.5C6 5.67157 6.67955 5 7.49555 5H15.9915C17.1007 5 18 4.10529 18 3"  stroke="var(--icon-color, #FFFFFF)" stroke-width="2" stroke-linecap="round" stroke-linejoin="round"/>
</svg>
