<svg width="24" height="24" viewBox="0 0 24 24" xmlns="http://www.w3.org/2000/svg">
<path d="M6 3V7C6 7.55228 6.44772 8 7 8C7.55228 8 8 7.55228 8 7V3C8 2.44772 7.55228 2 7 2C6.44772 2 6 2.44772 6 3ZM8 9H6V17.0078C6 17.5603 6.44801 18.0081 7.00049 18.0078L21.0005 18C21.5528 17.9997 22.0003 17.5518 22 16.9995C21.9997 16.4472 21.5518 15.9997 20.9995 16L8 16.0073V9Z" fill="var(--icon-color, #FFFFFF)"/>
<path d="M18 21V19H16V21C16 21.5523 16.4477 22 17 22C17.5523 22 18 21.5523 18 21ZM16 17C16 17.5523 16.4477 18 17 18C17.5523 18 18 17.5523 18 17V7C18 6.44772 17.5523 6 17 6H3C2.44772 6 2 6.44772 2 7C2 7.55228 2.44772 8 3 8H16V17Z" fill="var(--icon-color, #FFFFFF)"/>
</svg>
