<svg width="24" height="24" viewBox="0 0 24 24" xmlns="http://www.w3.org/2000/svg">
<path d="M16 21L3 10L4.82251 20.0238C4.92054 20.563 5.45004 21 6.00705 21H17.9958C18.552 21 19.0837 20.5552 19.1803 20.0238L21.0028 10L8 21"  stroke="var(--icon-color, #FFFFFF)" stroke-width="2" stroke-linecap="round" stroke-linejoin="round"/>
<path d="M19 21L12 6L5 21"  stroke="var(--icon-color, #FFFFFF)" stroke-width="2" stroke-linejoin="round"/>
<path fill-rule="evenodd" clip-rule="evenodd" d="M21.5 10C20.6716 10 20 9.32843 20 8.5C20 7.67157 20.6716 7 21.5 7C22.3284 7 23 7.67157 23 8.5C23 9.32843 22.3284 10 21.5 10ZM2.5 10C1.67157 10 1 9.32843 1 8.5C1 7.67157 1.67157 7 2.5 7C3.32843 7 4 7.67157 4 8.5C4 9.32843 3.32843 10 2.5 10ZM12 6C10.8954 6 10 5.10457 10 4C10 2.89543 10.8954 2 12 2C13.1046 2 14 2.89543 14 4C14 5.10457 13.1046 6 12 6Z"  stroke="var(--icon-color, #FFFFFF)" stroke-width="2"/>
</svg>
