<svg width="24" height="24" viewBox="0 0 24 24" xmlns="http://www.w3.org/2000/svg">
<path d="M5 7V20.0081C5 21.1082 5.89706 22 7.00586 22H16.9941C18.1019 22 19 21.1066 19 20.0081V7"  stroke="var(--icon-color, #FFFFFF)" stroke-width="2"/>
<path fill-rule="evenodd" clip-rule="evenodd" d="M9 10.997C9 10.4464 9.44386 10 10 10C10.5523 10 11 10.453 11 10.997V17.003C11 17.5536 10.5561 18 10 18C9.44772 18 9 17.547 9 17.003V10.997ZM13 10.997C13 10.4464 13.4439 10 14 10C14.5523 10 15 10.453 15 10.997V17.003C15 17.5536 14.5561 18 14 18C13.4477 18 13 17.547 13 17.003V10.997Z" fill="var(--icon-color, #FFFFFF)"/>
<path d="M21 4H3C2.44772 4 2 4.44772 2 5C2 5.55228 2.44772 6 3 6H21C21.5523 6 22 5.55228 22 5C22 4.44772 21.5523 4 21 4Z" fill="var(--icon-color, #FFFFFF)"/>
<path d="M9 5V2.99896C9 2.44725 9.45098 2 9.99078 2H14.0092C14.5564 2 15 2.44266 15 2.99896V5"  stroke="var(--icon-color, #FFFFFF)" stroke-width="2" stroke-linejoin="round"/>
</svg>
