<svg width="24" height="24" viewBox="0 0 24 24" xmlns="http://www.w3.org/2000/svg">
<path d="M19.5 1H4.5C3.67157 1 3 1.67157 3 2.5C3 3.32843 3.67157 4 4.5 4H19.5C20.3284 4 21 3.32843 21 2.5C21 1.67157 20.3284 1 19.5 1Z" fill="var(--icon-color, #FFFFFF)"/>
<path d="M19.5 20H4.5C3.67157 20 3 20.6716 3 21.5C3 22.3284 3.67157 23 4.5 23H19.5C20.3284 23 21 22.3284 21 21.5C21 20.6716 20.3284 20 19.5 20Z" fill="var(--icon-color, #FFFFFF)"/>
<path fill-rule="evenodd" clip-rule="evenodd" d="M6 3C7 3 17 3 18 3C18 3.14743 17.9909 3.29095 17.9911 3.43154C18 9 13 9.07371 13 12C13 15 18 15 18 21C17 21 7 21 6 21C6 15 11 15 11 12C11 9 6 8 6 3Z"  stroke="var(--icon-color, #FFFFFF)" stroke-width="2"/>
<path opacity="0.2" fill-rule="evenodd" clip-rule="evenodd" d="M7 6H17L13 12V20C13 20 11.1414 20.5657 11 20C10.8586 19.4343 11 12 11 12L7 6Z" fill="var(--icon-color, #FFFFFF)"/>
</svg>
