<svg width="24" height="24" viewBox="0 0 24 24" xmlns="http://www.w3.org/2000/svg">
<g clip-path="url(#clip0)">
<path fill-rule="evenodd" clip-rule="evenodd" d="M16.8528 2.90622C18.0232 1.73587 19.9241 1.73924 21.0932 2.90843C22.2648 4.08 22.2618 5.9825 21.0955 7.14886L16.8506 11.3937L12.608 7.15107L16.8528 2.90622Z" fill="var(--icon-color, #FFFFFF)"/>
<path d="M19.3255 9.62595L14.3758 4.6762C13.79 4.09041 12.8403 4.09041 12.2545 4.6762C11.6687 5.26199 11.6687 6.21173 12.2545 6.79752L17.2042 11.7473C17.79 12.3331 18.7397 12.3331 19.3255 11.7473C19.9113 11.1615 19.9113 10.2117 19.3255 9.62595Z" fill="var(--icon-color, #FFFFFF)"/>
<path d="M13.3151 6.44397L4.12758 15.6315C3.73438 16.0247 3.49123 16.7881 3.56349 17.3326C3.56349 17.3326 4.12274 19.879 3.06208 20.9397C4.12274 19.879 6.66918 20.4382 6.66918 20.4382C7.21544 20.5199 7.97643 20.2679 8.37022 19.8742L17.5578 10.6866"  stroke="var(--icon-color, #FFFFFF)" stroke-width="2" stroke-linejoin="round"/>
</g>
<defs>
<clipPath id="clip0">
<rect width="24" height="24" fill="var(--icon-color, #FFFFFF)"/>
</clipPath>
</defs>
</svg>
