<svg width="24" height="24" viewBox="0 0 24 24" xmlns="http://www.w3.org/2000/svg">
<path fill-rule="evenodd" clip-rule="evenodd" d="M5.50104 3C6.05275 3 6.5252 3.44631 6.55633 3.99754L7.00818 12L12.0085 8L12.0082 12L17.0082 8V12L22.0082 8L22.0006 20.0015C22.0003 20.553 21.5491 21 21.0052 21H3.99477C3.44537 21 3 20.5537 3 20.0025V12.9975C3 12.4466 3.0248 11.5537 3.05542 11.0025L3.44458 3.99754C3.47519 3.44662 3.94266 3 4.49896 3H5.50104ZM7 16V17H8V16H7ZM12 16V17H13V16H12ZM17 16V17H18V16H17Z"  stroke="var(--icon-color, #FFFFFF)" stroke-width="2" stroke-linecap="round" stroke-linejoin="round"/>
</svg>
