<svg width="24" height="24" viewBox="0 0 24 24" xmlns="http://www.w3.org/2000/svg">
<path d="M12 22C17.5228 22 22 17.5228 22 12C22 6.47715 17.5228 2 12 2C6.47715 2 2 6.47715 2 12C2 17.5228 6.47715 22 12 22Z"  stroke="var(--icon-color, #FFFFFF)" stroke-width="2"/>
<path fill-rule="evenodd" clip-rule="evenodd" d="M6 9C6 8.44772 6.45576 8 7.00247 8H16.9975C17.5512 8 18 8.44386 18 9C18 9.55228 17.5442 10 16.9975 10H7.00247C6.44882 10 6 9.55614 6 9ZM8 13C8 12.4477 8.45304 12 8.99703 12H15.003C15.5536 12 16 12.4439 16 13C16 13.5523 15.547 14 15.003 14H8.99703C8.44639 14 8 13.5561 8 13ZM10 17C10 16.4477 10.4434 16 11.0094 16H12.9906C13.5481 16 14 16.4439 14 17C14 17.5523 13.5566 18 12.9906 18H11.0094C10.4519 18 10 17.5561 10 17Z" fill="var(--icon-color, #FFFFFF)"/>
</svg>
