<svg width="24" height="24" viewBox="0 0 24 24" xmlns="http://www.w3.org/2000/svg">
<path opacity="0.25" d="M12 14C15.3137 14 18 11.3137 18 8C18 4.68629 15.3137 2 12 2C8.68629 2 6 4.68629 6 8C6 11.3137 8.68629 14 12 14Z" fill="var(--icon-color, #FFFFFF)"/>
<path opacity="0.5" d="M8 22C11.3137 22 14 19.3137 14 16C14 12.6863 11.3137 10 8 10C4.68629 10 2 12.6863 2 16C2 19.3137 4.68629 22 8 22Z" fill="var(--icon-color, #FFFFFF)"/>
<path opacity="0.75" d="M16 22C19.3137 22 22 19.3137 22 16C22 12.6863 19.3137 10 16 10C12.6863 10 10 12.6863 10 16C10 19.3137 12.6863 22 16 22Z" fill="var(--icon-color, #FFFFFF)"/>
</svg>
