<svg width="24" height="24" viewBox="0 0 24 24" xmlns="http://www.w3.org/2000/svg">
<path d="M21 4H3C1.89543 4 1 4.89543 1 6V18C1 19.1046 1.89543 20 3 20H21C22.1046 20 23 19.1046 23 18V6C23 4.89543 22.1046 4 21 4Z"  stroke="var(--icon-color, #FFFFFF)" stroke-width="2"/>
<path opacity="0.75" fill-rule="evenodd" clip-rule="evenodd" d="M13 11H23V13H13V19H11V13H1V11H11V5H13V11ZM14 10L21 5H22L15 10H14ZM15 14H16L23 19H22L15 14ZM2 19L9 14H10L3 19H2ZM9 10H8L1 5H2L9 10Z" fill="var(--icon-color, #FFFFFF)"/>
<path opacity="0.5" fill-rule="evenodd" clip-rule="evenodd" d="M14 5H19.75L14 9V5ZM22 6.375V10H17L22 6.375ZM14 19V15L19.75 19H14ZM22 17.625L17 14H22V17.625ZM2 14H7.75L2 18V14ZM10 15.375V19H5L10 15.375ZM10 5V9L4.25 5H10ZM2 6.375L7 10H2V6.375Z" fill="var(--icon-color, #FFFFFF)"/>
</svg>
