<svg width="24" height="24" viewBox="0 0 24 24" xmlns="http://www.w3.org/2000/svg">
<path opacity="0.45" fill-rule="evenodd" clip-rule="evenodd" d="M9.49997 13C6.99997 16.5 11 21 11 21H13C13 21 16.5 16.5 14 16.5C11.5 16.5 9.99997 16.5 9.49997 13Z" fill="var(--icon-color, #FFFFFF)"  stroke="var(--icon-color, #FFFFFF)" stroke-linecap="round" stroke-linejoin="round"/>
<path fill-rule="evenodd" clip-rule="evenodd" d="M12 22C15.866 22 19 18.866 19 15C19 13.7556 18.5 10.5 16.5 9C16.5 11 15 14.5 13 13C11 11.5 15.5 4.5 9 2C10 9 5 10 5 15C5 18.866 8.13401 22 12 22Z"  stroke="var(--icon-color, #FFFFFF)" stroke-width="2" stroke-linecap="round" stroke-linejoin="round"/>
</svg>
