<svg width="24" height="24" viewBox="0 0 24 24" xmlns="http://www.w3.org/2000/svg">
<path d="M14.2985 9.99999H17.9999C18.8436 9.99999 19.3081 10.9803 18.7739 11.6332L16.7573 14.098L14.2985 9.99999ZM12.7205 19.0319L9.7739 22.6332C9.10686 23.4485 7.79525 22.8114 8.02376 21.7831L9.73928 14.0632L12.7205 19.0319ZM9.70137 14H5.99994C5.15632 14 4.69177 13.0197 5.22599 12.3668L7.24259 9.90202L9.70137 14ZM11.2794 4.96814L14.226 1.36676C14.893 0.551488 16.2046 1.18863 15.9761 2.21692L14.2606 9.93681L11.2794 4.96814Z" fill="var(--icon-color, #FFFFFF)"/>
<path fill-rule="evenodd" clip-rule="evenodd" d="M6 2L18 22L6 2Z"  stroke="var(--icon-color, #FFFFFF)" stroke-width="2" stroke-linecap="round" stroke-linejoin="round"/>
</svg>
