<svg width="24" height="24" viewBox="0 0 24 24" xmlns="http://www.w3.org/2000/svg">
<path fill-rule="evenodd" clip-rule="evenodd" d="M9.00256 5.87441C9.0684 4.2758 10.3852 3 12 3C13.6148 3 14.9316 4.2758 14.9974 5.87441C16.5381 5.44302 18.1584 6.30113 18.6574 7.83688C19.1564 9.37263 18.3499 11.0192 16.8499 11.5758C17.7363 12.9078 17.4209 14.714 16.1145 15.6631C14.8081 16.6123 12.9929 16.3541 12 15.0995C11.0071 16.3541 9.19187 16.6123 7.88549 15.6631C6.5791 14.714 6.26368 12.9078 7.15006 11.5758C5.65003 11.0192 4.84359 9.37263 5.34259 7.83688C5.84158 6.30113 7.46185 5.44302 9.00256 5.87441ZM12 12C13.1584 12 14.0975 11.1046 14.0975 10C14.0975 8.89543 13.1584 8 12 8C10.8416 8 9.9025 8.89543 9.9025 10C9.9025 11.1046 10.8416 12 12 12Z"  stroke="var(--icon-color, #FFFFFF)" stroke-width="2"/>
<path d="M13 16C13 15.4477 12.5523 15 12 15C11.4477 15 11 15.4477 11 16V21C11 21.5523 11.4477 22 12 22C12.5523 22 13 21.5523 13 21V16Z" fill="var(--icon-color, #FFFFFF)"/>
</svg>
