<svg width="24" height="24" viewBox="0 0 24 24" xmlns="http://www.w3.org/2000/svg">
<path fill-rule="evenodd" clip-rule="evenodd" d="M8.02713 6.53179C8.25896 4.54327 9.94927 3 12 3C14.0508 3 15.7411 4.54327 15.9729 6.53179C17.9357 6.13779 19.9258 7.26847 20.5595 9.21885C21.1932 11.1692 20.2478 13.2537 18.4283 14.0887C19.4095 15.8337 18.9492 18.0758 17.2901 19.2812C15.631 20.4866 13.3564 20.2316 12 18.7591C10.6436 20.2316 8.36904 20.4866 6.70995 19.2812C5.05086 18.0758 4.59048 15.8337 5.57175 14.0887C3.75219 13.2537 2.80679 11.1692 3.44051 9.21885C4.07422 7.26847 6.06429 6.13779 8.02713 6.53179ZM12 15C13.6569 15 15 13.6569 15 12C15 10.3431 13.6569 9 12 9C10.3432 9 9.00001 10.3431 9.00001 12C9.00001 13.6569 10.3432 15 12 15Z"  stroke="var(--icon-color, #FFFFFF)" stroke-width="2"/>
</svg>
