<svg width="24" height="24" viewBox="0 0 24 24" xmlns="http://www.w3.org/2000/svg">
<path d="M15 6.99998V11H8L4 12.0296L8 12.9996H15V17L20 12.0296L15 6.99998ZM8 14.9996C7.84121 14.9996 7.68299 14.9807 7.52868 14.9432L3.52868 13.9733C1.50512 13.4826 1.48498 10.6118 3.50145 10.0927L7.50145 9.06312C7.66432 9.0212 7.83183 8.99998 8 8.99998H13V6.99998C13 5.21533 15.1602 4.32429 16.4184 5.58995L21.4184 10.6196C22.1971 11.4029 22.1934 12.6693 21.41 13.448L16.41 18.4184C15.1484 19.6726 13 18.7789 13 17V14.9996H8Z" fill="var(--icon-color, #FFFFFF)"/>
</svg>
