<svg width="24" height="24" viewBox="0 0 24 24" xmlns="http://www.w3.org/2000/svg">
<path fill-rule="evenodd" clip-rule="evenodd" d="M3 3.9908C3 2.89131 3.90195 2 5.00853 2H12.9915C14.1007 2 15 2.89821 15 3.9908V21.0082C15 21.556 14.5442 22 13.9975 22H4.00247C3.44882 22 3 21.5447 3 21.0082V3.9908Z"  stroke="var(--icon-color, #FFFFFF)" stroke-width="2"/>
<path d="M12 5H6V9H12V5Z"  stroke="var(--icon-color, #FFFFFF)" stroke-width="2" stroke-linecap="round" stroke-linejoin="round"/>
<path d="M15 12H15.999C17.1041 12 18 12.8959 18 13.9974V19.4936C18 20.3256 18.6658 21 19.5 21C20.3284 21 21 20.3242 21 19.4951V12.009L22 10V6L19.5 2"  stroke="var(--icon-color, #FFFFFF)" stroke-width="2" stroke-linecap="round" stroke-linejoin="round"/>
<path d="M22 7.5C22 6.67157 21.3284 6 20.5 6C19.6716 6 19 6.67157 19 7.5V9.5C19 10.3284 19.6716 11 20.5 11C21.3284 11 22 10.3284 22 9.5V7.5Z" fill="var(--icon-color, #FFFFFF)"  stroke="var(--icon-color, #FFFFFF)" stroke-width="2"/>
</svg>
