<svg width="24" height="24" viewBox="0 0 24 24" xmlns="http://www.w3.org/2000/svg">
<path d="M12 5C13.1046 5 14 4.10457 14 3C14 1.89543 13.1046 1 12 1C10.8954 1 10 1.89543 10 3C10 4.10457 10.8954 5 12 5Z"  stroke="var(--icon-color, #FFFFFF)" stroke-width="2"/>
<path d="M5 15L8.50148 8.8724C8.77681 8.39059 9.45098 8 9.99078 8H14.0092C14.5564 8 15.2265 8.39641 15.4985 8.8724L19 15"  stroke="var(--icon-color, #FFFFFF)" stroke-width="2" stroke-linecap="round" stroke-linejoin="round"/>
<path fill-rule="evenodd" clip-rule="evenodd" d="M11.6417 8L7.24437 17.5941C7.0841 17.9438 7.12034 18 7.50273 18H16.4972C16.8758 18 16.9141 17.9401 16.7556 17.5941L12.3583 8H11.6417Z"  stroke="var(--icon-color, #FFFFFF)" stroke-width="2"/>
<path d="M14 18V23"  stroke="var(--icon-color, #FFFFFF)" stroke-width="2" stroke-linecap="round"/>
<path d="M10 18V23"  stroke="var(--icon-color, #FFFFFF)" stroke-width="2" stroke-linecap="round"/>
</svg>
