<svg width="24" height="24" viewBox="0 0 24 24" xmlns="http://www.w3.org/2000/svg">
<path d="M20 9H4C3.44772 9 3 9.44772 3 10V12C3 12.5523 3.44772 13 4 13H20C20.5523 13 21 12.5523 21 12V10C21 9.44772 20.5523 9 20 9Z"  stroke="var(--icon-color, #FFFFFF)" stroke-width="2" stroke-linejoin="round"/>
<path d="M19 13H5C4.44772 13 4 13.4477 4 14V20C4 20.5523 4.44772 21 5 21H19C19.5523 21 20 20.5523 20 20V14C20 13.4477 19.5523 13 19 13Z"  stroke="var(--icon-color, #FFFFFF)" stroke-width="2" stroke-linejoin="round"/>
<path d="M13 10H11V20H13V10Z" fill="var(--icon-color, #FFFFFF)"/>
<path fill-rule="evenodd" clip-rule="evenodd" d="M12 9V6C12 4.34315 13.3431 3 15 3C16.6569 3 18 4.34315 18 6C18 7.65685 16.6569 9 15 9H12Z"  stroke="var(--icon-color, #FFFFFF)" stroke-width="2"/>
<path fill-rule="evenodd" clip-rule="evenodd" d="M12 9V6C12 4.34315 10.6569 3 9 3C7.34315 3 6 4.34315 6 6C6 7.65685 7.34315 9 9 9H12Z"  stroke="var(--icon-color, #FFFFFF)" stroke-width="2"/>
</svg>
