<svg width="24" height="24" viewBox="0 0 24 24" xmlns="http://www.w3.org/2000/svg">
<path fill-rule="evenodd" clip-rule="evenodd" d="M3 8H21V18.9966C21 20.6554 19.6471 22 18.0075 22H5.99254C4.33981 22 3 20.6576 3 18.9966V8ZM5 8V17.008C5 18.0998 5.89805 19 7.00586 19H16.9941C18.1029 19 19 18.1081 19 17.008V8H5Z" fill="var(--icon-color, #FFFFFF)"/>
<path d="M12 10C16.4183 10 20 9.10457 20 8C20 6.89543 16.4183 6 12 6C7.58172 6 4 6.89543 4 8C4 9.10457 7.58172 10 12 10Z"  stroke="var(--icon-color, #FFFFFF)" stroke-width="2"/>
</svg>
