<svg width="24" height="24" viewBox="0 0 24 24" xmlns="http://www.w3.org/2000/svg">
<path d="M12 5C16.9706 5 21 4.10457 21 3C21 1.89543 16.9706 1 12 1C7.02944 1 3 1.89543 3 3C3 4.10457 7.02944 5 12 5Z"  stroke="var(--icon-color, #FFFFFF)" stroke-width="2"/>
<path fill-rule="evenodd" clip-rule="evenodd" d="M5.68081 4.5H2.59998L11 12V21.0046C11 21.5543 10.5621 22.0626 10.0119 22.1412L4.50339 22.9281C4.22536 22.9678 3.99997 23.2319 3.99997 23.5C3.99997 23.7761 4.22615 24 4.49636 24H19.5036C19.7777 24 20 23.7681 20 23.5C20 23.2239 19.7828 22.969 19.4965 22.9281L13.9881 22.1412C13.4423 22.0632 13 21.5443 13 21.0046V12L21.4 4.5H18.2862L13.492 8.69603C12.6594 9.42481 11.316 9.43083 10.4796 8.69896L5.68081 4.5Z" fill="var(--icon-color, #FFFFFF)"/>
</svg>
