<svg width="24" height="24" viewBox="0 0 24 24" xmlns="http://www.w3.org/2000/svg">
<path d="M17 5V18.9925C17 19.5489 16.6575 20.2781 16.1969 20.5785C16.1969 20.5785 15 22 10 22C5 22 3.80306 20.5785 3.80306 20.5785C3.35954 20.259 3 19.5511 3 18.9925V5"  stroke="var(--icon-color, #FFFFFF)" stroke-width="2" stroke-linecap="round" stroke-linejoin="round"/>
<path d="M10 7C13.866 7 17 6.10457 17 5C17 3.89543 13.866 3 10 3C6.13401 3 3 3.89543 3 5C3 6.10457 6.13401 7 10 7Z"  stroke="var(--icon-color, #FFFFFF)" stroke-width="2"/>
<path opacity="0.5" fill-rule="evenodd" clip-rule="evenodd" d="M6 10V18V10ZM10 10V18V10ZM14 10V18V10Z"  stroke="var(--icon-color, #FFFFFF)" stroke-width="2" stroke-linecap="round" stroke-linejoin="round"/>
<path d="M18 8H20C21.1046 8 22 8.89186 22 10.0096V16.0403C22 17.1502 21.1122 18.0499 19.9998 18.0499H17.9997"  stroke="var(--icon-color, #FFFFFF)" stroke-width="2"/>
</svg>
