<svg width="24" height="24" viewBox="0 0 24 24" xmlns="http://www.w3.org/2000/svg">
<g clip-path="url(#clip0)">
<path d="M6.75 0.906738C1.72793 3.80623 0.00724339 10.2279 2.90674 15.25C5.80623 20.2721 12.2279 21.9928 17.25 19.0933"  stroke="var(--icon-color, #FFFFFF)" stroke-linecap="round"/>
<path d="M12 21V23H9H15"  stroke="var(--icon-color, #FFFFFF)" stroke-width="2" stroke-linecap="round" stroke-linejoin="round"/>
<path d="M16.0482 16.8964C19.8745 14.6872 21.1855 9.79452 18.9764 5.96818C16.7673 2.14184 11.8745 0.830839 8.0482 3.03998C4.22186 5.24912 2.91086 10.1418 5.12 13.9682C7.32913 17.7945 12.2219 19.1055 16.0482 16.8964Z"  stroke="var(--icon-color, #FFFFFF)" stroke-width="2"/>
<path d="M8.04821 3.03998C8.04821 3.03998 6.08411 7.63805 8.58411 11.9682C11.0841 16.2983 16.0521 16.9031 16.0521 16.9031"  stroke="var(--icon-color, #FFFFFF)" stroke-width="2"/>
<path d="M8.04822 3.03998L12.0502 9.97156L16.0521 16.9031"  stroke="var(--icon-color, #FFFFFF)" stroke-width="2"/>
<path d="M8.04823 3.03998C8.04823 3.03998 13.0123 3.63805 15.5123 7.96818C18.0123 12.2983 16.0521 16.9031 16.0521 16.9031"  stroke="var(--icon-color, #FFFFFF)" stroke-width="2"/>
<path d="M5.12 13.9682L18.9764 5.96817"  stroke="var(--icon-color, #FFFFFF)" stroke-width="2"/>
</g>
<defs>
<clipPath id="clip0">
<rect width="24" height="24" fill="var(--icon-color, #FFFFFF)"/>
</clipPath>
</defs>
</svg>
