<svg width="24" height="24" viewBox="0 0 24 24" xmlns="http://www.w3.org/2000/svg">
<path d="M12 22C17.5228 22 22 17.5228 22 12C22 6.47715 17.5228 2 12 2C6.47715 2 2 6.47715 2 12C2 17.5228 6.47715 22 12 22Z"  stroke="var(--icon-color, #FFFFFF)" stroke-width="2"/>
<path d="M12 2C12 2 17 4 17 12.0031C17 20.0062 12 22.0062 12 22.0062"  stroke="var(--icon-color, #FFFFFF)" stroke-width="2"/>
<path d="M12 2V22.0062"  stroke="var(--icon-color, #FFFFFF)" stroke-width="2"/>
<path d="M12 2C12 2 7 4 7 12.0031C7 20.0062 12 22.0062 12 22.0062"  stroke="var(--icon-color, #FFFFFF)" stroke-width="2"/>
<path d="M2 12H22"  stroke="var(--icon-color, #FFFFFF)" stroke-width="2"/>
</svg>
