<svg width="24" height="24" viewBox="0 0 24 24" xmlns="http://www.w3.org/2000/svg">
<path d="M3.99998 21L2.88304 10.9475C2.39534 6.55819 5.56374 2.58073 9.95247 2.06441L10.0519 2.05271C14.9938 1.47131 19.4011 5.01122 19.8947 9.94705L21 21"  stroke="var(--icon-color, #FFFFFF)" stroke-width="2" stroke-linejoin="round"/>
<path d="M2 21.5L3.5 22L5.5 21.25L8 22L11 21.25L13.5 22L15 21L16.5 22L20 21.25L22 22"  stroke="var(--icon-color, #FFFFFF)" stroke-width="2" stroke-linecap="round" stroke-linejoin="round"/>
<path opacity="0.75" fill-rule="evenodd" clip-rule="evenodd" d="M6.90885 15.4573L6.62019 12.1579C6.5977 11.9009 6.78314 11.6799 7.04016 11.6574L8.49261 11.5303C9.02458 11.4838 9.45008 11.5971 9.74908 11.848C10.0026 12.0607 10.1569 12.3785 10.1914 12.773L10.1924 12.785C10.25 13.4424 9.95677 13.8777 9.46701 14.1313L10.1745 14.8524C10.2741 14.9581 10.3423 15.0485 10.3548 15.192C10.3773 15.449 10.1768 15.6352 9.95563 15.6545C9.74643 15.6728 9.60006 15.5832 9.48044 15.4552L8.48451 14.3979L7.74932 14.4623L7.82933 15.3768C7.85182 15.6338 7.66637 15.8548 7.40935 15.8773C7.15234 15.8998 6.93133 15.7143 6.90885 15.4573ZM7.6782 13.6494L8.61064 13.5678C9.05893 13.5286 9.29503 13.267 9.26417 12.9143L9.26313 12.9024C9.22862 12.5079 8.93589 12.3287 8.4876 12.368L7.57309 12.448L7.6782 13.6494ZM11.2722 15.0756C11.2947 15.3326 11.5157 15.518 11.7727 15.4955C12.0297 15.4731 12.2151 15.2521 12.1927 14.995L11.9009 11.6598C11.8784 11.4028 11.6574 11.2173 11.4004 11.2398C11.1433 11.2623 10.9579 11.4833 10.9804 11.7403L11.2722 15.0756ZM13.2387 14.9035L12.95 11.6041C12.9275 11.3471 13.113 11.1261 13.37 11.1036L14.6192 10.9943C15.6174 10.907 16.2729 11.4459 16.3476 12.3006L16.3487 12.3126C16.4334 13.2809 15.7242 13.8489 14.7858 13.931L14.0865 13.9922L14.1592 14.823C14.1816 15.08 13.9962 15.301 13.7392 15.3235C13.4822 15.346 13.2612 15.1605 13.2387 14.9035ZM14.0148 13.1733L14.744 13.1095C15.2043 13.0692 15.4492 12.7707 15.4178 12.4121L15.4168 12.4002C15.3807 11.9877 15.0744 11.7917 14.6142 11.8319L13.9029 11.8942L14.0148 13.1733Z" fill="var(--icon-color, #FFFFFF)"/>
<path d="M13 2.5L12 4.5L13.5 5.5L12 8"  stroke="var(--icon-color, #FFFFFF)" stroke-width="2" stroke-linecap="round" stroke-linejoin="round"/>
</svg>
