<svg width="24" height="24" viewBox="0 0 24 24" xmlns="http://www.w3.org/2000/svg">
<path d="M20 3H4C3.44772 3 3 3.44772 3 4V20C3 20.5523 3.44772 21 4 21H20C20.5523 21 21 20.5523 21 20V4C21 3.44772 20.5523 3 20 3Z"  stroke="var(--icon-color, #FFFFFF)" stroke-width="2"/>
<path fill-rule="evenodd" clip-rule="evenodd" d="M6 6.99981C6 6.44763 6.44372 6 6.99981 6H10.0002C10.5524 6 11 6.44372 11 6.99981V10.0002C11 10.5524 10.5563 11 10.0002 11H6.99981C6.44763 11 6 10.5563 6 10.0002V6.99981ZM13 6.99981C13 6.44763 13.4437 6 13.9998 6H17.0002C17.5524 6 18 6.44372 18 6.99981V10.0002C18 10.5524 17.5563 11 17.0002 11H13.9998C13.4476 11 13 10.5563 13 10.0002V6.99981ZM13 13.9998C13 13.4476 13.4437 13 13.9998 13H17.0002C17.5524 13 18 13.4437 18 13.9998V17.0002C18 17.5524 17.5563 18 17.0002 18H13.9998C13.4476 18 13 17.5563 13 17.0002V13.9998ZM6 13.9998C6 13.4476 6.44372 13 6.99981 13H10.0002C10.5524 13 11 13.4437 11 13.9998V17.0002C11 17.5524 10.5563 18 10.0002 18H6.99981C6.44763 18 6 17.5563 6 17.0002V13.9998Z" fill="var(--icon-color, #FFFFFF)"/>
</svg>
