<svg width="24" height="24" viewBox="0 0 24 24" xmlns="http://www.w3.org/2000/svg">
<path d="M13.6532 11H14.8581L13.8753 9.81571L13.6532 11ZM13.2782 13L13.1253 13.8157L14.1081 13H13.2782ZM11.3468 13H10.1419L11.1247 14.1843L11.3468 13ZM11.7218 11L11.8747 10.1843L10.8919 11H11.7218ZM11.7218 11H13.6532L13.2782 13H11.3468L11.7218 11ZM12.4718 7H14.4033L15.0476 3.56614C15.2872 2.48787 16.3556 1.80801 17.4339 2.04763C18.5121 2.28724 19.192 3.3556 18.9591 4.40122L18.4718 7H20C21.1046 7 22 7.89543 22 9C22 10.1046 21.1046 11 20 11H17.7218L17.3468 13H18.5C19.6046 13 20.5 13.8954 20.5 15C20.5 16.1046 19.6046 17 18.5 17H16.5967L15.9524 20.4339C15.7128 21.5121 14.6444 22.192 13.5661 21.9524C12.4879 21.7128 11.808 20.6444 12.0409 19.5988L12.5282 17H10.5967L9.95237 20.4339C9.71276 21.5121 8.64441 22.192 7.56614 21.9524C6.48787 21.7128 5.80801 20.6444 6.04094 19.5988L6.52821 17H5C3.89543 17 3 16.1046 3 15C3 13.8954 3.89543 13 5 13H7.27821L7.65321 11H6.5C5.39543 11 4.5 10.1046 4.5 9C4.5 7.89543 5.39543 7 6.5 7H8.40332L9.04763 3.56614C9.28724 2.48787 10.3556 1.80801 11.4339 2.04763C12.5121 2.28724 13.192 3.3556 12.9591 4.40122L12.4718 7Z"  stroke="var(--icon-color, #FFFFFF)" stroke-width="2"/>
</svg>
