<svg width="24" height="24" viewBox="0 0 24 24" xmlns="http://www.w3.org/2000/svg">
<path d="M19 15C19 13.8954 18.1046 13 17 13C15.8954 13 15 13.8954 15 15V20C15 21.1046 15.8954 22 17 22C18.1046 22 19 21.1046 19 20V15Z" fill="var(--icon-color, #FFFFFF)"/>
<path d="M9 15C9 13.8954 8.10457 13 7 13C5.89543 13 5 13.8954 5 15V20C5 21.1046 5.89543 22 7 22C8.10457 22 9 21.1046 9 20V15Z" fill="var(--icon-color, #FFFFFF)"/>
<path d="M21 18V13C21 7 17 3 12 3C7 3 3 7 3 13C3 13.1247 3 18 3 18"  stroke="var(--icon-color, #FFFFFF)" stroke-width="2" stroke-linecap="round" stroke-linejoin="round"/>
</svg>
