<svg width="24" height="24" viewBox="0 0 24 24" xmlns="http://www.w3.org/2000/svg">
<path d="M19 3H5C3.89543 3 3 3.89543 3 5V19C3 20.1046 3.89543 21 5 21H19C20.1046 21 21 20.1046 21 19V5C21 3.89543 20.1046 3 19 3Z"  stroke="var(--icon-color, #FFFFFF)" stroke-width="2"/>
<path fill-rule="evenodd" clip-rule="evenodd" d="M14 10V7.00247C14 6.45576 13.5481 6 12.9906 6H11.0094C10.4434 6 10 6.44882 10 7.00247V10H7.00247C6.45576 10 6 10.4519 6 11.0094V12.9906C6 13.5566 6.44882 14 7.00247 14H10V16.9975C10 17.5442 10.4519 18 11.0094 18H12.9906C13.5566 18 14 17.5512 14 16.9975V14H16.9975C17.5442 14 18 13.5481 18 12.9906V11.0094C18 10.4434 17.5512 10 16.9975 10H14Z" fill="var(--icon-color, #FFFFFF)"/>
</svg>
