<svg width="24" height="24" viewBox="0 0 24 24" xmlns="http://www.w3.org/2000/svg">
<path fill-rule="evenodd" clip-rule="evenodd" d="M2 15C0.89543 15 0 14.1046 0 13C0 11.8954 0.89543 11 2 11C3.10457 11 4 11.8954 4 13C4 14.1046 3.10457 15 2 15ZM22 15C20.8954 15 20 14.1046 20 13C20 11.8954 20.8954 11 22 11C23.1046 11 24 11.8954 24 13C24 14.1046 23.1046 15 22 15Z" fill="var(--icon-color, #FFFFFF)"/>
<path d="M2 13H7L10 4L14 18L17 13H22"  stroke="var(--icon-color, #FFFFFF)" stroke-width="2" stroke-linejoin="round"/>
</svg>
