<svg width="24" height="24" viewBox="0 0 24 24" xmlns="http://www.w3.org/2000/svg">
<path d="M12 22C17.5228 22 22 17.5228 22 12C22 6.47715 17.5228 2 12 2C6.47715 2 2 6.47715 2 12C2 17.5228 6.47715 22 12 22Z"  stroke="var(--icon-color, #FFFFFF)" stroke-width="2"/>
<path fill-rule="evenodd" clip-rule="evenodd" d="M12.016 14.544C12.384 14.544 12.64 14.256 12.704 13.904L12.768 13.168C14.544 12.864 16 11.952 16 9.93601V9.90401C16 7.90401 14.48 6.65601 12.24 6.65601C10.768 6.65601 9.69601 7.18401 8.84801 7.98401C8.62401 8.17601 8.52802 8.43201 8.52802 8.67201C8.52802 9.15201 8.92802 9.55201 9.42402 9.55201C9.64802 9.55201 9.85602 9.45601 10.016 9.32801C10.656 8.75201 11.344 8.44801 12.192 8.44801C13.344 8.44801 14.032 9.07201 14.032 9.96801V10C14.032 11.008 13.2 11.584 11.696 11.728C11.264 11.776 11.008 12.096 11.072 12.528L11.232 13.904C11.28 14.272 11.552 14.544 11.92 14.544H12.016ZM10.784 16.816V16.976C10.784 17.6 11.264 18.08 11.92 18.08C12.576 18.08 13.056 17.6 13.056 16.976V16.816C13.056 16.192 12.576 15.712 11.92 15.712C11.264 15.712 10.784 16.192 10.784 16.816Z" fill="var(--icon-color, #FFFFFF)"/>
</svg>
