<svg width="24" height="24" viewBox="0 0 24 24" xmlns="http://www.w3.org/2000/svg">
<path d="M1 11L12 2C12 2 23 11 23 11"  stroke="var(--icon-color, #FFFFFF)" stroke-width="2" stroke-linecap="round" stroke-linejoin="round" fill="transparent" />
<path d="M3 10C3 10 3 10.4454 3 10.9968V20.017C3 20.5676 3.43788 21.0139 4.00293 21.0139H8.99707C9.55097 21.0139 10 20.5751 10 20.009V15.0049C10 14.4499 10.4434 14 11.0094 14H12.9906C13.5481 14 14 14.4387 14 15.0049V20.009C14 20.564 14.4379 21.0139 15.0029 21.0139H19.9971C20.551 21.0139 21 20.5685 21 20.017V10"  stroke="var(--icon-color, #FFFFFF)" stroke-width="2" stroke-linecap="round" stroke-linejoin="round" fill="transparent" />
</svg>
