<svg width="24" height="24" viewBox="0 0 24 24" xmlns="http://www.w3.org/2000/svg">
<path opacity="0.5" fill-rule="evenodd" clip-rule="evenodd" d="M8 9V3.9934C8 3.44495 7.55641 3 7.00922 3H2.99078C2.45098 3 2 3.44476 2 3.9934V20.0066C2 20.5551 2.44359 21 2.99078 21H7.00922C7.54902 21 8 20.5552 8 20.0066V15H14V20.0066C14 20.5551 14.4436 21 14.9908 21H19.0092C19.549 21 20 20.5552 20 20.0066V3.9934C20 3.44495 19.5564 3 19.0092 3H14.9908C14.451 3 14 3.44476 14 3.9934V9H8Z" fill="var(--icon-color, #FFFFFF)"/>
<path fill-rule="evenodd" clip-rule="evenodd" d="M2 9.00001H14V3.99079C14 3.4436 14.3203 3.32032 14.7062 3.70622L23 12L14.7062 20.2938C14.3162 20.6838 14 20.549 14 20.0092V15H2V9.00001Z" fill="var(--icon-color, #FFFFFF)"black"/>
</svg>
