<svg width="24" height="24" viewBox="0 0 24 24" xmlns="http://www.w3.org/2000/svg">
<path d="M12 20C16.4183 20 20 16.4183 20 12C20 7.58172 16.4183 4 12 4C7.58172 4 4 7.58172 4 12C4 16.4183 7.58172 20 12 20Z"  stroke="var(--icon-color, #FFFFFF)" stroke-width="2"/>
<path d="M12 14C13.1046 14 14 13.1046 14 12C14 10.8954 13.1046 10 12 10C10.8954 10 10 10.8954 10 12C10 13.1046 10.8954 14 12 14Z"  stroke="var(--icon-color, #FFFFFF)" stroke-width="2"/>
<path fill-rule="evenodd" clip-rule="evenodd" d="M11 1.99078C11 1.44359 11.4439 1 12 1C12.5523 1 13 1.45098 13 1.99078V6.00922C13 6.55641 12.5561 7 12 7C11.4477 7 11 6.54902 11 6.00922V1.99078ZM11 17.9908C11 17.4436 11.4439 17 12 17C12.5523 17 13 17.451 13 17.9908V22.0092C13 22.5564 12.5561 23 12 23C11.4477 23 11 22.549 11 22.0092V17.9908ZM1.99078 13C1.44359 13 1 12.5561 1 12C1 11.4477 1.45098 11 1.99078 11H6.00922C6.55641 11 7 11.4439 7 12C7 12.5523 6.54902 13 6.00922 13H1.99078ZM17.9908 13C17.4436 13 17 12.5561 17 12C17 11.4477 17.451 11 17.9908 11H22.0092C22.5564 11 23 11.4439 23 12C23 12.5523 22.549 13 22.0092 13H17.9908Z" fill="var(--icon-color, #FFFFFF)"/>
</svg>
