<svg width="24" height="24" viewBox="0 0 24 24" xmlns="http://www.w3.org/2000/svg">
<path fill-rule="evenodd" clip-rule="evenodd" d="M11.9968 3.00317C9.55257 3.00317 9.24608 3.01353 8.28614 3.05733C7.32819 3.10103 6.67395 3.25318 6.10148 3.47568C5.50965 3.70565 5.00775 4.01339 4.50737 4.51372C4.00704 5.01409 3.6993 5.516 3.46933 6.10783C3.24683 6.6803 3.09468 7.33454 3.05099 8.29249C3.00719 9.25243 2.99683 9.55892 2.99683 12.0032C2.99683 14.4474 3.00719 14.7539 3.05099 15.7139C3.09468 16.6718 3.24683 17.326 3.46933 17.8985C3.6993 18.4903 4.00704 18.9923 4.50737 19.4926C5.00775 19.993 5.50965 20.3007 6.10148 20.5307C6.67395 20.7532 7.32819 20.9053 8.28614 20.949C9.24608 20.9928 9.55257 21.0032 11.9968 21.0032C14.4411 21.0032 14.7476 20.9928 15.7075 20.949C16.6655 20.9053 17.3197 20.7532 17.8922 20.5307C18.484 20.3007 18.9859 19.993 19.4863 19.4926C19.9866 18.9923 20.2944 18.4903 20.5244 17.8985C20.7468 17.326 20.899 16.6718 20.9427 15.7139C20.9865 14.7539 20.9968 14.4474 20.9968 12.0032C20.9968 9.55892 20.9865 9.25243 20.9427 8.29249C20.899 7.33454 20.7468 6.6803 20.5244 6.10783C20.2944 5.516 19.9866 5.01409 19.4863 4.51372C18.9859 4.01339 18.484 3.70565 17.8922 3.47568C17.3197 3.25318 16.6655 3.10103 15.7075 3.05733C14.7476 3.01353 14.4411 3.00317 11.9968 3.00317Z"  stroke="var(--icon-color, #FFFFFF)" stroke-width="2"/>
<path d="M12 16C14.2091 16 16 14.2092 16 12C16 9.79089 14.2091 8.00003 12 8.00003C9.79086 8.00003 8 9.79089 8 12C8 14.2092 9.79086 16 12 16Z"  stroke="var(--icon-color, #FFFFFF)" stroke-width="2"/>
<path d="M17.25 8.00003C17.9404 8.00003 18.5 7.44039 18.5 6.75003C18.5 6.05967 17.9404 5.50003 17.25 5.50003C16.5596 5.50003 16 6.05967 16 6.75003C16 7.44039 16.5596 8.00003 17.25 8.00003Z" fill="var(--icon-color, #FFFFFF)"/>
</svg>
