<svg width="24" height="24" viewBox="0 0 24 24" xmlns="http://www.w3.org/2000/svg">
<path d="M18 2H6C5.44772 2 5 2.44772 5 3V21C5 21.5523 5.44772 22 6 22H18C18.5523 22 19 21.5523 19 21V3C19 2.44772 18.5523 2 18 2Z"  stroke="var(--icon-color, #FFFFFF)" stroke-width="2" stroke-linejoin="round"/>
<path opacity="0.5" d="M15.5 4.5H8.5C7.94772 4.5 7.5 4.94772 7.5 5.5V9.5C7.5 10.0523 7.94772 10.5 8.5 10.5H15.5C16.0523 10.5 16.5 10.0523 16.5 9.5V5.5C16.5 4.94772 16.0523 4.5 15.5 4.5Z"  stroke="var(--icon-color, #FFFFFF)"/>
<path d="M12 19C13.6569 19 15 17.6569 15 16C15 14.3431 13.6569 13 12 13C10.3431 13 9 14.3431 9 16C9 17.6569 10.3431 19 12 19Z"  stroke="var(--icon-color, #FFFFFF)" stroke-width="2"/>
</svg>
