<svg width="24" height="24" viewBox="0 0 24 24" xmlns="http://www.w3.org/2000/svg">
<g clip-path="url(#clip0)">
<path fill-rule="evenodd" clip-rule="evenodd" d="M8.94947 16.4706C8.9517 16.4728 8.95392 16.475 8.95613 16.4772L10.3571 17.8782C10.7513 18.2723 10.757 18.9057 10.3637 19.299C9.97319 19.6895 9.34311 19.6926 8.94288 19.2924L7.54191 17.8914C7.5397 17.8892 7.5375 17.887 7.53532 17.8847L6.12105 19.299C6.12327 19.3012 6.12549 19.3034 6.1277 19.3056L7.52866 20.7066C7.92285 21.1008 7.92853 21.7342 7.53529 22.1274C7.14476 22.5179 6.51468 22.521 6.11445 22.1208L4.71349 20.7198C4.71127 20.7176 4.70908 20.7154 4.70689 20.7132L4.7058 20.7143C4.31586 21.1042 3.68589 21.1065 3.29265 20.7132C2.90212 20.3227 2.90196 19.6897 3.29159 19.3L11.0719 11.5198C11.0911 11.5005 11.111 11.4822 11.1314 11.4648C9.45939 9.12142 9.67491 5.84566 11.7779 3.74264C14.1211 1.39949 17.9201 1.3995 20.2632 3.74264C22.6064 6.08579 22.6064 9.88478 20.2632 12.2279C18.1602 14.3309 14.8844 14.5465 12.541 12.8745C12.5237 12.8949 12.5054 12.9147 12.4861 12.934L8.94947 16.4706ZM18.849 5.15681C17.2869 3.59469 14.7542 3.59469 13.1921 5.15681C11.63 6.71893 11.63 9.25163 13.1921 10.8138C14.7542 12.3759 17.2869 12.3759 18.849 10.8138C20.4112 9.25163 20.4112 6.71893 18.849 5.15681Z" fill="var(--icon-color, #FFFFFF)"/>
</g>
<defs>
<clipPath id="clip0">
<rect width="24" height="24" fill="var(--icon-color, #FFFFFF)"/>
</clipPath>
</defs>
</svg>
