<svg width="24" height="24" viewBox="0 0 24 24" xmlns="http://www.w3.org/2000/svg">
<g clip-path="url(#clip0)">
<path fill-rule="evenodd" clip-rule="evenodd" d="M9.62082 11.5459L3.99996 17.0813L3.99996 21L7.81976 21L8.3498 18.3498L10.8498 17.8498L11.3974 15.1118L12.4955 14.4055C14.7472 15.4621 17.4731 15.0253 19.2847 13.2137C21.6279 10.8705 21.6279 7.07156 19.2847 4.72841C16.9416 2.38527 13.1426 2.38527 10.7994 4.72841C8.97652 6.55134 8.54981 9.2942 9.62082 11.5459ZM16.7355 7.32132C17.126 7.71185 17.126 8.34501 16.7355 8.73554C16.345 9.12606 15.7118 9.12606 15.3213 8.73554C14.9308 8.34501 14.9308 7.71185 15.3213 7.32132C15.7118 6.9308 16.345 6.9308 16.7355 7.32132Z"  stroke="var(--icon-color, #FFFFFF)" stroke-width="2" stroke-linecap="round" stroke-linejoin="round"/>
</g>
<defs>
<clipPath id="clip0">
<rect width="24" height="24" fill="var(--icon-color, #FFFFFF)"/>
</clipPath>
</defs>
</svg>
