<svg width="24" height="24" viewBox="0 0 24 24" xmlns="http://www.w3.org/2000/svg">
<path d="M12 21C16.4183 21 20 17.4183 20 13C20 8.58172 16.4183 5 12 5C7.58172 5 4 8.58172 4 13C4 17.4183 7.58172 21 12 21Z"  stroke="var(--icon-color, #FFFFFF)" stroke-width="2" stroke-linecap="round" stroke-linejoin="round"/>
<path d="M15.366 9.16986C15.6422 8.69157 15.4783 8.07998 15 7.80383C14.5217 7.52769 13.9101 7.69157 13.634 8.16986L12.634 9.90191C12.3578 10.3802 12.5217 10.9918 13 11.2679C13.4783 11.5441 14.0899 11.3802 14.366 10.9019L15.366 9.16986Z" fill="var(--icon-color, #FFFFFF)"/>
<path opacity="0.5" fill-rule="evenodd" clip-rule="evenodd" d="M12 3C11.4477 3 11 2.55228 11 2C11 1.44772 11.4477 1 12 1C12.5523 1 13 1.44772 13 2C13 2.55228 12.5523 3 12 3ZM17 4.33975C16.5217 4.0636 16.3578 3.45201 16.634 2.97372C16.9101 2.49543 17.5217 2.33155 18 2.6077C18.4783 2.88384 18.6422 3.49543 18.366 3.97372C18.0899 4.45201 17.4783 4.61589 17 4.33975ZM20.6603 8C20.3841 7.52171 20.548 6.91012 21.0263 6.63397C21.5046 6.35783 22.1162 6.52171 22.3923 7C22.6684 7.47829 22.5046 8.08988 22.0263 8.36602C21.548 8.64217 20.9364 8.47829 20.6603 8ZM22 13C22 12.4477 22.4477 12 23 12C23.5523 12 24 12.4477 24 13C24 13.5523 23.5523 14 23 14C22.4477 14 22 13.5523 22 13ZM20.6603 18C20.9364 17.5217 21.548 17.3578 22.0263 17.634C22.5046 17.9101 22.6684 18.5217 22.3923 19C22.1162 19.4783 21.5046 19.6422 21.0263 19.366C20.548 19.0899 20.3841 18.4783 20.6603 18ZM3.33975 18C3.61589 18.4783 3.45201 19.0899 2.97372 19.366C2.49543 19.6422 1.88384 19.4783 1.6077 19C1.33155 18.5217 1.49543 17.9101 1.97372 17.634C2.45201 17.3578 3.0636 17.5217 3.33975 18ZM2 13C2 13.5523 1.55228 14 1 14C0.447715 14 0 13.5523 0 13C0 12.4477 0.447715 12 1 12C1.55228 12 2 12.4477 2 13ZM3.33975 8C3.0636 8.47829 2.45201 8.64217 1.97372 8.36602C1.49543 8.08988 1.33155 7.47829 1.6077 7C1.88384 6.52171 2.49543 6.35783 2.97372 6.63397C3.45201 6.91012 3.61589 7.52171 3.33975 8ZM7 4.33975C6.52171 4.61589 5.91012 4.45201 5.63397 3.97372C5.35783 3.49543 5.52171 2.88384 6 2.6077C6.47829 2.33155 7.08988 2.49543 7.36603 2.97372C7.64217 3.45201 7.47829 4.0636 7 4.33975Z" fill="var(--icon-color, #FFFFFF)"/>
</svg>
