<svg width="24" height="24" viewBox="0 0 24 24" xmlns="http://www.w3.org/2000/svg">
<path opacity="0.4" d="M19.4591 14L21.4856 15.1258C22.1715 15.5068 22.1715 16.4932 21.4856 16.8742L12.4856 21.8742C12.1836 22.0419 11.8164 22.0419 11.5144 21.8742L2.51436 16.8742C1.82855 16.4932 1.82855 15.5068 2.51436 15.1258L4.54087 14L6.6 15.144L5.05913 16L12 19.856L18.9409 16L17.4 15.144L19.4591 14Z" fill="var(--icon-color, #FFFFFF)"/>
<path opacity="0.7" d="M16.9812 10.9113L17.9525 9.16298L21.4856 11.1259C22.1715 11.5069 22.1715 12.4932 21.4856 12.8742L12.4856 17.8742C12.1836 18.042 11.8164 18.042 11.5144 17.8742L2.51436 12.8742C1.82855 12.4932 1.82855 11.5069 2.51436 11.1259L6.10996 9.1283L7.08125 10.8766L5.05913 12L12 15.8561L18.9409 12L16.9812 10.9113Z" fill="var(--icon-color, #FFFFFF)"/>
<path fill-rule="evenodd" clip-rule="evenodd" d="M12 3L3 8L12 13L21 8L12 3Z"  stroke="var(--icon-color, #FFFFFF)" stroke-width="2" stroke-linejoin="round"/>
</svg>
