<svg width="24" height="24" viewBox="0 0 24 24" xmlns="http://www.w3.org/2000/svg">
<path fill-rule="evenodd" clip-rule="evenodd" d="M11.9999 21C7.02938 21 2.99994 16.9706 2.99994 12C2.99994 7.02944 7.02938 3 11.9999 3C16.9705 3 20.9999 7.02944 20.9999 12C20.9999 16.9706 16.9705 21 11.9999 21ZM11.9999 16C14.2091 16 15.9999 14.2091 15.9999 12C15.9999 9.79086 14.2091 8 11.9999 8C9.7908 8 7.99994 9.79086 7.99994 12C7.99994 14.2091 9.7908 16 11.9999 16Z"  stroke="var(--icon-color, #FFFFFF)" stroke-width="2"/>
<path fill-rule="evenodd" clip-rule="evenodd" d="M8.99994 3.5H14.9999L12.9999 9H10.9999L8.99994 3.5ZM8.99994 20.5L10.9999 15H12.9999L14.9999 20.5H8.99994ZM20.4999 15L14.9999 13V11L20.4999 9V15ZM3.49994 15V9L8.99994 11V13L3.49994 15Z" fill="var(--icon-color, #FFFFFF)"/>
<path d="M12.9999 2.99999C12.9999 2.99999 17.9999 -1.01328e-05 20.9999 2.99999C23.9999 5.99999 20.9999 11 20.9999 11"  stroke="var(--icon-color, #FFFFFF)"/>
<path d="M10.9999 2.99999C10.9999 2.99999 5.99994 -1.01328e-05 2.99994 2.99999C-6.10352e-05 5.99999 2.99994 11 2.99994 11"  stroke="var(--icon-color, #FFFFFF)"/>
<path d="M12.9999 21C12.9999 21 17.9999 24 20.9999 21C23.9999 18 20.9999 13 20.9999 13"  stroke="var(--icon-color, #FFFFFF)"/>
<path d="M10.9999 21C10.9999 21 5.99994 24 2.99994 21C-6.10352e-05 18 2.99994 13 2.99994 13"  stroke="var(--icon-color, #FFFFFF)"/>
</svg>
