<svg width="24" height="24" viewBox="0 0 24 24" xmlns="http://www.w3.org/2000/svg">
<path d="M19 22H5C4.44772 22 4 22.4477 4 23C4 23.5523 4.44772 24 5 24H19C19.5523 24 20 23.5523 20 23C20 22.4477 19.5523 22 19 22Z" fill="var(--icon-color, #FFFFFF)"/>
<path d="M7 23L9 10V5L12 2L15 5V10L17 23"  stroke="var(--icon-color, #FFFFFF)" stroke-width="2" stroke-linejoin="round"/>
<path d="M12 2C12.5523 2 13 1.55228 13 1C13 0.447715 12.5523 0 12 0C11.4477 0 11 0.447715 11 1C11 1.55228 11.4477 2 12 2Z" fill="var(--icon-color, #FFFFFF)"/>
<path opacity="0.5" d="M9 15C9 15 10.5 15 12 15C13.5 15 15 15 15 15"  stroke="var(--icon-color, #FFFFFF)" stroke-width="2"/>
<path opacity="0.5" d="M8 19C8 19 10.25 19 12.5 19C14.75 19 17 19 17 19"  stroke="var(--icon-color, #FFFFFF)" stroke-width="2"/>
<path d="M15 6H9V10H15V6Z" fill="var(--icon-color, #FFFFFF)" fill-opacity="0.2"  stroke="var(--icon-color, #FFFFFF)" stroke-width="2"/>
<path fill-rule="evenodd" clip-rule="evenodd" d="M14 7L24 6V10L14 9V7Z" fill="var(--icon-color, #FFFFFF)"url(#paint0_linear)"/>
<path fill-rule="evenodd" clip-rule="evenodd" d="M10 7L0 6V10L10 9V7Z" fill="var(--icon-color, #FFFFFF)"url(#paint1_linear)"/>
<defs>
<linearGradient id="paint0_linear" x1="14" y1="8" x2="24" y2="8" gradientUnits="userSpaceOnUse">
<stop stop-color="#333333" stop-opacity="0.504133"/>
<stop offset="1" stop-color="#333333" stop-opacity="0"/>
</linearGradient>
<linearGradient id="paint1_linear" x1="10" y1="8" x2="0" y2="8" gradientUnits="userSpaceOnUse">
<stop stop-color="#333333" stop-opacity="0.504133"/>
<stop offset="1" stop-color="#333333" stop-opacity="0"/>
</linearGradient>
</defs>
</svg>
