<svg width="24" height="24" viewBox="0 0 24 24" xmlns="http://www.w3.org/2000/svg">
<g clip-path="url(#clip0)">
<path d="M16.389 13.0607L19.9246 9.52514C21.4867 7.96304 21.4867 5.43038 19.9246 3.86828C18.3625 2.30619 15.8298 2.30619 14.2677 3.86828L12.1464 5.9896"  stroke="var(--icon-color, #FFFFFF)" stroke-width="2" stroke-linecap="round" stroke-linejoin="round"/>
<path d="M7.90375 10.2322L4.36821 13.7678C2.80612 15.3299 2.80612 17.8625 4.36821 19.4246C5.93031 20.9867 8.46297 20.9867 10.0251 19.4246L12.1464 17.3033"  stroke="var(--icon-color, #FFFFFF)" stroke-width="2" stroke-linecap="round" stroke-linejoin="round"/>
<path d="M17.8033 18.7175L19.2175 20.1317"  stroke="var(--icon-color, #FFFFFF)" stroke-width="2" stroke-linecap="round" stroke-linejoin="round"/>
<path d="M5.78247 3.86829L7.19668 5.2825"  stroke="var(--icon-color, #FFFFFF)" stroke-width="2" stroke-linecap="round" stroke-linejoin="round"/>
<path d="M14.2677 19.4246V20.8388"  stroke="var(--icon-color, #FFFFFF)" stroke-width="2" stroke-linecap="round" stroke-linejoin="round"/>
<path d="M5.78247 8.11093H4.36826"  stroke="var(--icon-color, #FFFFFF)" stroke-width="2" stroke-linecap="round" stroke-linejoin="round"/>
<path d="M18.5104 15.182H19.9246"  stroke="var(--icon-color, #FFFFFF)" stroke-width="2" stroke-linecap="round" stroke-linejoin="round"/>
<path d="M10.0251 3.86827V2.45406"  stroke="var(--icon-color, #FFFFFF)" stroke-width="2" stroke-linecap="round" stroke-linejoin="round"/>
</g>
<defs>
<clipPath id="clip0">
<rect width="24" height="24" fill="var(--icon-color, #FFFFFF)"/>
</clipPath>
</defs>
</svg>
