<svg width="24" height="24" viewBox="0 0 24 24" xmlns="http://www.w3.org/2000/svg">
<path fill-rule="evenodd" clip-rule="evenodd" d="M7.5 7C7.5 7.2776 7.72452 7.5 8.00685 7.5H19.9932C20.2743 7.5 20.5 7.27573 20.5 7C20.5 6.7224 20.2755 6.5 19.9932 6.5H8.00685C7.72568 6.5 7.5 6.72427 7.5 7ZM7.5 12C7.5 12.2776 7.72452 12.5 8.00685 12.5H19.9932C20.2743 12.5 20.5 12.2757 20.5 12C20.5 11.7224 20.2755 11.5 19.9932 11.5H8.00685C7.72568 11.5 7.5 11.7243 7.5 12ZM7.5 17C7.5 17.2776 7.72452 17.5 8.00685 17.5H19.9932C20.2743 17.5 20.5 17.2757 20.5 17C20.5 16.7224 20.2755 16.5 19.9932 16.5H8.00685C7.72568 16.5 7.5 16.7243 7.5 17ZM4 7.5C4.27614 7.5 4.5 7.27614 4.5 7C4.5 6.72386 4.27614 6.5 4 6.5C3.72386 6.5 3.5 6.72386 3.5 7C3.5 7.27614 3.72386 7.5 4 7.5ZM4 12.5C4.27614 12.5 4.5 12.2761 4.5 12C4.5 11.7239 4.27614 11.5 4 11.5C3.72386 11.5 3.5 11.7239 3.5 12C3.5 12.2761 3.72386 12.5 4 12.5ZM4 17.5C4.27614 17.5 4.5 17.2761 4.5 17C4.5 16.7239 4.27614 16.5 4 16.5C3.72386 16.5 3.5 16.7239 3.5 17C3.5 17.2761 3.72386 17.5 4 17.5Z"  stroke="var(--icon-color, #FFFFFF)"/>
</svg>
