<svg width="24" height="24" viewBox="0 0 24 24" xmlns="http://www.w3.org/2000/svg">
<path d="M12 22C15.866 22 19 18.866 19 15C19 11.134 15.866 8 12 8C8.13401 8 5 11.134 5 15C5 18.866 8.13401 22 12 22Z"  stroke="var(--icon-color, #FFFFFF)" stroke-width="2"/>
<path fill-rule="evenodd" clip-rule="evenodd" d="M13 15.7324V17C13 17.5523 12.5523 18 12 18C11.4477 18 11 17.5523 11 17V15.7324C10.4022 15.3866 10 14.7403 10 14C10 12.8954 10.8954 12 12 12C13.1046 12 14 12.8954 14 14C14 14.7403 13.5978 15.3866 13 15.7324Z" fill="var(--icon-color, #FFFFFF)"/>
<path d="M16 5C16 2.79086 14.2091 1 12 1C9.79086 1 8 2.79086 8 5V9"  stroke="var(--icon-color, #FFFFFF)" stroke-width="2" stroke-linecap="round"/>
</svg>
