<svg width="24" height="24" viewBox="0 0 24 24" xmlns="http://www.w3.org/2000/svg">
<path d="M20 10H4C3.44772 10 3 10.4477 3 11V21C3 21.5523 3.44772 22 4 22H20C20.5523 22 21 21.5523 21 21V11C21 10.4477 20.5523 10 20 10Z"  stroke="var(--icon-color, #FFFFFF)" stroke-width="2"/>
<path fill-rule="evenodd" clip-rule="evenodd" d="M13 16.7324V18C13 18.5523 12.5523 19 12 19C11.4477 19 11 18.5523 11 18V16.7324C10.4022 16.3866 10 15.7403 10 15C10 13.8954 10.8954 13 12 13C13.1046 13 14 13.8954 14 15C14 15.7403 13.5978 16.3866 13 16.7324Z" fill="var(--icon-color, #FFFFFF)"/>
<path d="M17 6C17 3.23858 14.7614 1 12 1C9.23858 1 7 3.23858 7 6V9"  stroke="var(--icon-color, #FFFFFF)" stroke-width="2" stroke-linecap="round"/>
</svg>
