<svg width="24" height="24" viewBox="0 0 24 24" xmlns="http://www.w3.org/2000/svg">
<path d="M12 21C16.9706 21 21 16.9706 21 12C21 7.02944 16.9706 3 12 3C7.02944 3 3 7.02944 3 12C3 16.9706 7.02944 21 12 21Z"  stroke="var(--icon-color, #FFFFFF)" stroke-width="2"/>
<path fill-rule="evenodd" clip-rule="evenodd" d="M12 3C11.1716 3 10.5 2.32843 10.5 1.5C10.5 0.671573 11.1716 0 12 0C12.8284 0 13.5 0.671573 13.5 1.5C13.5 2.32843 12.8284 3 12 3ZM22.5 13.5C21.6716 13.5 21 12.8284 21 12C21 11.1716 21.6716 10.5 22.5 10.5C23.3284 10.5 24 11.1716 24 12C24 12.8284 23.3284 13.5 22.5 13.5ZM1.5 13.5C0.671573 13.5 0 12.8284 0 12C0 11.1716 0.671573 10.5 1.5 10.5C2.32843 10.5 3 11.1716 3 12C3 12.8284 2.32843 13.5 1.5 13.5ZM12 24C11.1716 24 10.5 23.3284 10.5 22.5C10.5 21.6716 11.1716 21 12 21C12.8284 21 13.5 21.6716 13.5 22.5C13.5 23.3284 12.8284 24 12 24ZM5.63604 5.63604C5.05025 6.22183 4.10051 6.22183 3.51472 5.63604C2.92893 5.05025 2.92893 4.10051 3.51472 3.51472C4.10051 2.92893 5.05025 2.92893 5.63604 3.51472C6.22183 4.10051 6.22183 5.05025 5.63604 5.63604ZM20.4853 5.63604C19.8995 6.22183 18.9497 6.22183 18.364 5.63604C17.7782 5.05025 17.7782 4.10051 18.364 3.51472C18.9497 2.92893 19.8995 2.92893 20.4853 3.51472C21.0711 4.10051 21.0711 5.05025 20.4853 5.63604ZM5.63604 20.4853C5.05025 21.0711 4.10051 21.0711 3.51472 20.4853C2.92893 19.8995 2.92893 18.9497 3.51472 18.364C4.10051 17.7782 5.05025 17.7782 5.63604 18.364C6.22183 18.9497 6.22183 19.8995 5.63604 20.4853ZM20.4853 20.4853C19.8995 21.0711 18.9497 21.0711 18.364 20.4853C17.7782 19.8995 17.7782 18.9497 18.364 18.364C18.9497 17.7782 19.8995 17.7782 20.4853 18.364C21.0711 18.9497 21.0711 19.8995 20.4853 20.4853Z" fill="var(--icon-color, #FFFFFF)"/>
<path d="M7 23L12 12L17 23"  stroke="var(--icon-color, #FFFFFF)" stroke-width="2" stroke-linecap="round" stroke-linejoin="round"/>
<path opacity="0.2" d="M12 4V20"  stroke="var(--icon-color, #FFFFFF)"/>
<path opacity="0.2" d="M4 12H20"  stroke="var(--icon-color, #FFFFFF)"/>
<path opacity="0.2" d="M18 6L6 18"  stroke="var(--icon-color, #FFFFFF)"/>
<path opacity="0.2" d="M6 6L18 18"  stroke="var(--icon-color, #FFFFFF)"/>
</svg>
