<svg width="24" height="24" viewBox="0 0 24 24" xmlns="http://www.w3.org/2000/svg">
<path d="M21 6H3C2.44772 6 2 6.44772 2 7C2 7.55228 2.44772 8 3 8H21C21.5523 8 22 7.55228 22 7C22 6.44772 21.5523 6 21 6Z" fill="var(--icon-color, #FFFFFF)"/>
<path fill-rule="evenodd" clip-rule="evenodd" d="M6.99999 7H17L18.7177 19.0238C18.8736 20.1152 18.1029 21 16.9941 21H7.00585C5.89805 21 5.12662 20.1136 5.2823 19.0238L6.99999 7Z"  stroke="var(--icon-color, #FFFFFF)" stroke-width="2"/>
<path d="M17 10H7V12H17V10Z" fill="var(--icon-color, #FFFFFF)"/>
<path fill-rule="evenodd" clip-rule="evenodd" d="M13 0.497699V1.00631C13 1.55739 13.4449 2 13.9937 2H14.5023C14.7772 2 15 2.23193 15 2.5C15 2.77614 14.7852 3 14.5023 3H13.9937C13.4426 3 13 3.44489 13 3.99369V4.5023C13 4.77717 12.7681 5 12.5 5C12.2239 5 12 4.78516 12 4.5023V3.99369C12 3.44261 11.5551 3 11.0063 3H10.4977C10.2228 3 10 2.76807 10 2.5C10 2.22386 10.2148 2 10.4977 2H11.0063C11.5574 2 12 1.55511 12 1.00631V0.497699C12 0.222827 12.2319 0 12.5 0C12.7761 0 13 0.214844 13 0.497699ZM18 5C17.4477 5 17 4.55228 17 4C17 3.44772 17.4477 3 18 3C18.5523 3 19 3.44772 19 4C19 4.55228 18.5523 5 18 5ZM7 2.49539V2.50106C7 2.77132 7.22338 3 7.49894 3H7.50461C7.77821 3 8 3.23193 8 3.5C8 3.77614 7.78425 4 7.50461 4H7.49894C7.22868 4 7 4.22338 7 4.49894V4.50461C7 4.77821 6.76807 5 6.5 5C6.22386 5 6 4.78425 6 4.50461V4.49894C6 4.22868 5.77662 4 5.50106 4H5.49539C5.22179 4 5 3.76807 5 3.5C5 3.22386 5.21575 3 5.49539 3H5.50106C5.77132 3 6 2.77662 6 2.50106V2.49539C6 2.22179 6.23193 2 6.5 2C6.77614 2 7 2.21575 7 2.49539Z" fill="var(--icon-color, #FFFFFF)"/>
</svg>
