<svg width="24" height="24" viewBox="0 0 24 24" xmlns="http://www.w3.org/2000/svg">
<g clip-path="url(#clip0)">
<path d="M18.6777 6.72133L17.2634 5.30711C16.8729 4.91659 16.2398 4.91659 15.8492 5.30711L1.28527 19.8711C0.894748 20.2616 0.894747 20.8948 1.28527 21.2853L2.69948 22.6995C3.09001 23.09 3.72317 23.09 4.1137 22.6995L18.6777 8.13554C19.0682 7.74502 19.0682 7.11185 18.6777 6.72133Z"  stroke="var(--icon-color, #FFFFFF)" stroke-width="2"/>
<path d="M12 9L15 12"  stroke="var(--icon-color, #FFFFFF)" stroke-width="2"/>
<path fill-rule="evenodd" clip-rule="evenodd" d="M22 0.497699V1.00631C22 1.55739 22.4449 2 22.9937 2H23.5023C23.7772 2 24 2.23193 24 2.5C24 2.77614 23.7852 3 23.5023 3H22.9937C22.4426 3 22 3.44489 22 3.99369V4.5023C22 4.77717 21.7681 5 21.5 5C21.2239 5 21 4.78516 21 4.5023V3.99369C21 3.44261 20.5551 3 20.0063 3H19.4977C19.2228 3 19 2.76807 19 2.5C19 2.22386 19.2148 2 19.4977 2H20.0063C20.5574 2 21 1.55511 21 1.00631V0.497699C21 0.222827 21.2319 0 21.5 0C21.7761 0 22 0.214844 22 0.497699ZM23 10C22.4477 10 22 9.55229 22 9C22 8.44771 22.4477 8 23 8C23.5523 8 24 8.44771 24 9C24 9.55229 23.5523 10 23 10ZM12.5 3C11.6716 3 11 2.32843 11 1.5C11 0.671573 11.6716 0 12.5 0C13.3284 0 14 0.671573 14 1.5C14 2.32843 13.3284 3 12.5 3ZM21 12.4954V12.5011C21 12.7713 21.2234 13 21.4989 13H21.5046C21.7782 13 22 13.2319 22 13.5C22 13.7761 21.7842 14 21.5046 14H21.4989C21.2287 14 21 14.2234 21 14.4989V14.5046C21 14.7782 20.7681 15 20.5 15C20.2239 15 20 14.7842 20 14.5046V14.4989C20 14.2287 19.7766 14 19.5011 14H19.4954C19.2218 14 19 13.7681 19 13.5C19 13.2239 19.2158 13 19.4954 13H19.5011C19.7713 13 20 12.7766 20 12.5011V12.4954C20 12.2218 20.2319 12 20.5 12C20.7761 12 21 12.2158 21 12.4954ZM8 4.49539V4.50106C8 4.77132 8.22339 5 8.49894 5H8.50461C8.77821 5 9 5.23193 9 5.5C9 5.77614 8.78425 6 8.50461 6H8.49894C8.22868 6 8 6.22338 8 6.49894V6.50461C8 6.77821 7.76807 7 7.5 7C7.22386 7 7 6.78425 7 6.50461V6.49894C7 6.22868 6.77662 6 6.50106 6H6.49539C6.22179 6 6 5.76807 6 5.5C6 5.22386 6.21575 5 6.49539 5H6.50106C6.77132 5 7 4.77662 7 4.50106V4.49539C7 4.22179 7.23193 4 7.5 4C7.77614 4 8 4.21575 8 4.49539Z" fill="var(--icon-color, #FFFFFF)"/>
</g>
<defs>
<clipPath id="clip0">
<rect width="24" height="24" fill="var(--icon-color, #FFFFFF)"/>
</clipPath>
</defs>
</svg>
