<svg width="24" height="24" viewBox="0 0 24 24" xmlns="http://www.w3.org/2000/svg">
<g clip-path="url(#clip0)">
<path fill-rule="evenodd" clip-rule="evenodd" d="M16.78 5.20423C17.3624 4.62186 18.3053 4.62054 18.8951 5.21041C19.4809 5.7962 19.4829 6.744 18.9013 7.32555L2.62549 23.6014C2.04312 24.1837 1.10023 24.1851 0.510357 23.5952C-0.0754296 23.0094 -0.0773712 22.0616 0.504174 21.48L16.78 5.20423ZM15.7132 6.27107L10.0563 11.9279L12.1776 14.0492L17.8345 8.39239L15.7132 6.27107Z" fill="var(--icon-color, #FFFFFF)"/>
<path fill-rule="evenodd" clip-rule="evenodd" d="M10.7656 2.73345C11.1549 2.34408 11.788 2.34588 12.183 2.74084L21.3648 11.9226C21.7582 12.3161 21.7568 12.9554 21.3722 13.3401L17.1253 17.5869C16.736 17.9763 16.1029 17.9745 15.7079 17.5795L6.52613 8.3977C6.13268 8.00425 6.13407 7.36495 6.51873 6.98029L10.7656 2.73345Z"  stroke="var(--icon-color, #FFFFFF)" stroke-width="2"/>
<path d="M23.1378 12.9886C23.7236 12.4028 23.7236 11.4531 23.1378 10.8673C22.552 10.2815 21.6023 10.2815 21.0165 10.8673L14.6525 17.2312C14.0667 17.817 14.0667 18.7668 14.6525 19.3526C15.2383 19.9383 16.1881 19.9383 16.7738 19.3526L23.1378 12.9886Z" fill="var(--icon-color, #FFFFFF)"/>
<path d="M13.2383 3.08908C13.8241 2.5033 13.8241 1.55355 13.2383 0.967765C12.6525 0.381978 11.7027 0.381978 11.117 0.967765L4.75299 7.33173C4.1672 7.91751 4.1672 8.86726 4.75299 9.45305C5.33878 10.0388 6.28852 10.0388 6.87431 9.45305L13.2383 3.08908Z" fill="var(--icon-color, #FFFFFF)"/>
</g>
<defs>
<clipPath id="clip0">
<rect width="24" height="24" fill="var(--icon-color, #FFFFFF)"/>
</clipPath>
</defs>
</svg>
