<svg width="24" height="24" viewBox="0 0 24 24" xmlns="http://www.w3.org/2000/svg">
<path d="M20 4.5C20 3.67157 19.3284 3 18.5 3C17.6716 3 17 3.67157 17 4.5V17.5C17 18.3284 17.6716 19 18.5 19C19.3284 19 20 18.3284 20 17.5V4.5Z" fill="var(--icon-color, #FFFFFF)"/>
<path d="M20 13C21.1046 13 22 12.1046 22 11C22 9.89543 21.1046 9 20 9C18.8954 9 18 9.89543 18 11C18 12.1046 18.8954 13 20 13Z" fill="var(--icon-color, #FFFFFF)"/>
<path fill-rule="evenodd" clip-rule="evenodd" d="M6.5 8C4.5 8 3 9.567 3 11.5C3 13.433 4.567 15 6.5 15C7.5 15 12.5 15 18.5 18C18.5 15.5 18.5 6.5 18.5 4C12.5 8 7.5 8 6.5 8Z"  stroke="var(--icon-color, #FFFFFF)" stroke-width="2" stroke-linecap="round" stroke-linejoin="round"/>
<path d="M6.5 8V15"  stroke="var(--icon-color, #FFFFFF)"/>
<path d="M9.5 8V15"  stroke="var(--icon-color, #FFFFFF)"/>
<path d="M8 16L9.5 20.5"  stroke="var(--icon-color, #FFFFFF)" stroke-width="3" stroke-linecap="round" stroke-linejoin="round"/>
</svg>
