<svg width="24" height="24" viewBox="0 0 24 24" xmlns="http://www.w3.org/2000/svg">
<path fill-rule="evenodd" clip-rule="evenodd" d="M3.5 7C3.5 7.27911 3.72002 7.5 3.9934 7.5H20.0066C20.2782 7.5 20.5 7.2768 20.5 7C20.5 6.72089 20.28 6.5 20.0066 6.5H3.9934C3.72175 6.5 3.5 6.7232 3.5 7ZM3.5 12C3.5 12.2791 3.72002 12.5 3.9934 12.5H20.0066C20.2782 12.5 20.5 12.2768 20.5 12C20.5 11.7209 20.28 11.5 20.0066 11.5H3.9934C3.72175 11.5 3.5 11.7232 3.5 12ZM3.5 17C3.5 17.2791 3.72002 17.5 3.9934 17.5H20.0066C20.2782 17.5 20.5 17.2768 20.5 17C20.5 16.7209 20.28 16.5 20.0066 16.5H3.9934C3.72175 16.5 3.5 16.7232 3.5 17Z"  stroke="var(--icon-color, #FFFFFF)"/>
</svg>
