<svg width="24" height="24" viewBox="0 0 24 24" xmlns="http://www.w3.org/2000/svg">
<path d="M17 18H6C4.89543 18 4 18.8954 4 20C4 21.1046 4.89543 22 6 22H17C18.1046 22 19 21.1046 19 20C19 18.8954 18.1046 18 17 18Z"  stroke="var(--icon-color, #FFFFFF)" stroke-width="2"/>
<path fill-rule="evenodd" clip-rule="evenodd" d="M16 8.46108V6.99669C16 4.24158 13.7614 2 11 2C8.2442 2 6 4.23709 6 6.99669V18H16V15.5322L20.231 11.3012C21.2074 10.3247 21.2052 8.74408 20.2288 7.76777C19.2457 6.78465 17.6706 6.79051 16.6954 7.76566L16 8.46108Z"  stroke="var(--icon-color, #FFFFFF)" stroke-width="2" stroke-linecap="round" stroke-linejoin="round"/>
</svg>
