<svg width="24" height="24" viewBox="0 0 24 24" xmlns="http://www.w3.org/2000/svg">
<path fill-rule="evenodd" clip-rule="evenodd" d="M2 7.00247C2 6.44882 2.45531 6 2.9918 6H21.0082C21.556 6 22 6.45576 22 7.00247V16.9975C22 17.5512 21.5447 18 21.0082 18H2.9918C2.44405 18 2 17.5442 2 16.9975V7.00247ZM12 14C13.1046 14 14 13.1046 14 12C14 10.8954 13.1046 10 12 10C10.8954 10 10 10.8954 10 12C10 13.1046 10.8954 14 12 14Z"  stroke="var(--icon-color, #FFFFFF)" stroke-width="2" stroke-linejoin="round"/>
<path d="M18 7C18 8.5 19.5 10 21 10"  stroke="var(--icon-color, #FFFFFF)" stroke-width="2"/>
<path d="M6 7C6 8.5 4.5 10 3 10"  stroke="var(--icon-color, #FFFFFF)" stroke-width="2"/>
<path d="M18 17C18 15.5 19.5 14 21 14"  stroke="var(--icon-color, #FFFFFF)" stroke-width="2"/>
<path d="M6 17C6 15.5 4.5 14 3 14"  stroke="var(--icon-color, #FFFFFF)" stroke-width="2"/>
</svg>
