<svg width="24" height="24" viewBox="0 0 24 24" xmlns="http://www.w3.org/2000/svg">
<path d="M8 18H2.9918C2.44405 18 2 17.5442 2 16.9975V14M22 14V16.9975C22 17.5512 21.5447 18 21.0082 18H16L22 14Z"  stroke="var(--icon-color, #FFFFFF)" stroke-width="2"/>
<path d="M8 21H2.9918C2.44405 21 2 20.5442 2 19.9975V17M22 17V19.9975C22 20.5512 21.5447 21 21.0082 21H16L22 17Z"  stroke="var(--icon-color, #FFFFFF)" stroke-width="2"/>
<path d="M15.9989 3H21.009C21.5563 3 22 3.45576 22 4.00247V13.9975C22 14.5512 21.5487 15 21.0085 15H15.9956M8.04053 15H2.99747C2.44658 15 2 14.5442 2 13.9975V4.00247C2 3.44882 2.4552 3 3.00005 3H8.05615L8.04053 15Z"  stroke="var(--icon-color, #FFFFFF)" stroke-width="2" stroke-linejoin="round"/>
<path d="M18 4C18 5.5 19.5 7 21 7"  stroke="var(--icon-color, #FFFFFF)" stroke-width="2"/>
<path d="M6 4C6 5.5 4.5 7 3 7"  stroke="var(--icon-color, #FFFFFF)" stroke-width="2"/>
<path d="M18 14C18 12.5 19.5 11 21 11"  stroke="var(--icon-color, #FFFFFF)" stroke-width="2"/>
<path d="M6 14C6 12.5 4.5 11 3 11"  stroke="var(--icon-color, #FFFFFF)" stroke-width="2"/>
<path d="M16 2H8V22H16V2Z"  stroke="var(--icon-color, #FFFFFF)" stroke-width="2" stroke-linecap="round" stroke-linejoin="round"/>
<path d="M12 10C13.1046 10 14 9.10457 14 8C14 6.89543 13.1046 6 12 6C10.8954 6 10 6.89543 10 8C10 9.10457 10.8954 10 12 10Z" fill="var(--icon-color, #FFFFFF)"/>
<path opacity="0.25" d="M22 15H2V21H22V15Z" fill="var(--icon-color, #FFFFFF)"url(#paint0_linear)"/>
<defs>
<linearGradient id="paint0_linear" x1="12" y1="15" x2="12" y2="15.8657" gradientUnits="userSpaceOnUse">
<stop stop-color="#333333" stop-opacity="0"/>
<stop offset="1" stop-color="#333333"/>
</linearGradient>
</defs>
</svg>
