<svg width="24" height="24" viewBox="0 0 24 24" xmlns="http://www.w3.org/2000/svg">
<path fill-rule="evenodd" clip-rule="evenodd" d="M11 20H6.00685C5.44995 20 5 20.4477 5 21C5 21.5561 5.45078 22 6.00685 22H17.9932C18.5501 22 19 21.5523 19 21C19 20.4439 18.5492 20 17.9932 20H13V18H11V20Z" fill="var(--icon-color, #FFFFFF)"/>
<path d="M21 4H3C2.44772 4 2 4.44772 2 5V17C2 17.5523 2.44772 18 3 18H21C21.5523 18 22 17.5523 22 17V5C22 4.44772 21.5523 4 21 4Z"  stroke="var(--icon-color, #FFFFFF)" stroke-width="2"/>
</svg>
