<svg width="24" height="24" viewBox="0 0 24 24" xmlns="http://www.w3.org/2000/svg">
<path fill-rule="evenodd" clip-rule="evenodd" d="M10 12C10 10.8954 10.8877 10 12 10C13.1046 10 14 10.8877 14 12C14 13.1046 13.1123 14 12 14C10.8954 14 10 13.1123 10 12ZM10 5C10 3.89543 10.8877 3 12 3C13.1046 3 14 3.88773 14 5C14 6.10457 13.1123 7 12 7C10.8954 7 10 6.11227 10 5ZM10 19C10 17.8954 10.8877 17 12 17C13.1046 17 14 17.8877 14 19C14 20.1046 13.1123 21 12 21C10.8954 21 10 20.1123 10 19Z" fill="var(--icon-color, #FFFFFF)"/>
</svg>
