<svg width="24" height="24" viewBox="0 0 24 24" xmlns="http://www.w3.org/2000/svg">
<path fill-rule="evenodd" clip-rule="evenodd" d="M10 12C10 10.8954 10.8877 10 12 10C13.1046 10 14 10.8877 14 12C14 13.1046 13.1123 14 12 14C10.8954 14 10 13.1123 10 12ZM17 12C17 10.8954 17.8877 10 19 10C20.1046 10 21 10.8877 21 12C21 13.1046 20.1123 14 19 14C17.8954 14 17 13.1123 17 12ZM3 12C3 10.8954 3.88773 10 5 10C6.10457 10 7 10.8877 7 12C7 13.1046 6.11227 14 5 14C3.89543 14 3 13.1123 3 12Z" fill="var(--icon-color, #FFFFFF)"/>
</svg>
