<svg width="24" height="24" viewBox="0 0 24 24" xmlns="http://www.w3.org/2000/svg">
<path d="M17 7V19.0015C17 19.553 16.6575 20.2781 16.1969 20.5785C16.1969 20.5785 15 22 10 22C5 22 3.80306 20.5785 3.80306 20.5785C3.35954 20.259 3 19.5525 3 19.0015V7"  stroke="var(--icon-color, #FFFFFF)" stroke-width="2" stroke-linecap="round" stroke-linejoin="round"/>
<path d="M10 9C13.866 9 17 8.10457 17 7C17 5.89543 13.866 5 10 5C6.13401 5 3 5.89543 3 7C3 8.10457 6.13401 9 10 9Z"  stroke="var(--icon-color, #FFFFFF)" stroke-width="2"/>
<path d="M17 11C17 11 17.5 9 19.5 9C21.5 9 22 10.5 22 12C22 15 17 17 17 17"  stroke="var(--icon-color, #FFFFFF)" stroke-width="2"/>
<path opacity="0.5" d="M6 2C6 3.25 5 3.25 5 4.5C5 5.75 6 5.75 6 7"  stroke="var(--icon-color, #FFFFFF)" stroke-width="2" stroke-linecap="round" stroke-linejoin="round"/>
<path opacity="0.5" d="M10 2C10 3.25 9 3.25 9 4.5C9 5.75 10 5.75 10 7"  stroke="var(--icon-color, #FFFFFF)" stroke-width="2" stroke-linecap="round" stroke-linejoin="round"/>
<path opacity="0.5" d="M14 2C14 3.25 13 3.25 13 4.5C13 5.75 14 5.75 14 7"  stroke="var(--icon-color, #FFFFFF)" stroke-width="2" stroke-linecap="round" stroke-linejoin="round"/>
</svg>
