<svg width="24" height="24" viewBox="0 0 24 24" xmlns="http://www.w3.org/2000/svg">
<path fill-rule="evenodd" clip-rule="evenodd" d="M20 16.5V1.9981C20 1.52153 19.7031 1.27919 19.2351 1.37277L8.1571 3.58838C7.53739 3.71232 7 4.36865 7 4.9981V17H4.5C3.12169 17 2 18.1208 2 19.5C2 20.8783 3.12082 22 4.5 22C5.87831 22 7 20.8792 7 19.5V9.78019L20 7.18019V14H17.5C16.1217 14 15 15.1208 15 16.5C15 17.8783 16.1208 19 17.5 19C18.8783 19 20 17.8792 20 16.5Z"  stroke="var(--icon-color, #FFFFFF)" stroke-width="2"/>
</svg>
