<svg width="24" height="24" viewBox="0 0 24 24" xmlns="http://www.w3.org/2000/svg">
<path d="M4 12V5.99791C4 4.8945 4.89262 4 5.99509 4H20.0049C21.1068 4 22 4.89706 22 6.00586V17.9941C22 19.1019 21.1074 20 20.0049 20H2.5"  stroke="var(--icon-color, #FFFFFF)" stroke-width="2"/>
<path fill-rule="evenodd" clip-rule="evenodd" d="M4 6V18.5018C4 19.3292 3.3342 20 2.5 20C1.67157 20 1 19.3248 1 18.5018V7.49825C1 6.67079 1.6658 6 2.5 6H4Z"  stroke="var(--icon-color, #FFFFFF)" stroke-width="2" stroke-linecap="round" stroke-linejoin="round"/>
<path d="M18 7.5H8C7.72386 7.5 7.5 7.72386 7.5 8C7.5 8.27614 7.72386 8.5 8 8.5H18C18.2761 8.5 18.5 8.27614 18.5 8C18.5 7.72386 18.2761 7.5 18 7.5Z"  stroke="var(--icon-color, #FFFFFF)"/>
<path opacity="0.5" fill-rule="evenodd" clip-rule="evenodd" d="M7 11H12V16H7V11ZM13 11.5C13 11.2239 13.2279 11 13.491 11H18.509C18.7802 11 19 11.2319 19 11.5C19 11.7761 18.7721 12 18.509 12H13.491C13.2198 12 13 11.7681 13 11.5ZM13 13.5C13 13.2239 13.2279 13 13.491 13H18.509C18.7802 13 19 13.2319 19 13.5C19 13.7761 18.7721 14 18.509 14H13.491C13.2198 14 13 13.7681 13 13.5ZM13 15.5C13 15.2239 13.2279 15 13.491 15H18.509C18.7802 15 19 15.2319 19 15.5C19 15.7761 18.7721 16 18.509 16H13.491C13.2198 16 13 15.7681 13 15.5Z" fill="var(--icon-color, #FFFFFF)"/>
<path opacity="0.2" d="M22 17.5H4V19.5H22V17.5Z" fill="var(--icon-color, #FFFFFF)"/>
</svg>
