<svg width="24" height="24" viewBox="0 0 24 24" xmlns="http://www.w3.org/2000/svg">
<path d="M17 12C17 14.7614 14.7614 17 12 17C9.23858 17 7 14.7614 7 12C7 9.23858 9.23858 7 12 7C14.7614 7 17 9.23858 17 12ZM9 12C9 13.6569 10.3431 15 12 15C13.6569 15 15 13.6569 15 12C15 10.3431 13.6569 9 12 9C10.3431 9 9 10.3431 9 12Z" fill="var(--icon-color, #FFFFFF)"/>
<path fill-rule="evenodd" clip-rule="evenodd" d="M11 10.5C11 9.11929 12.1193 8 13.5 8C14.8807 8 16 9.11929 16 10.5C16 11.8807 14.8807 13 13.5 13C12.1193 13 11 11.8807 11 10.5Z" fill="var(--icon-color, #FFFFFF)"/>
<path d="M7.05025 7.05025L5.63604 5.63604M12 5V3V5ZM16.9497 7.05025L18.364 5.63604L16.9497 7.05025ZM19 12H21H19ZM16.9497 16.9497L18.364 18.364L16.9497 16.9497ZM12 19V21V19ZM7.05025 16.9497L5.63604 18.364L7.05025 16.9497ZM5 12H3H5Z"  stroke="var(--icon-color, #FFFFFF)" stroke-width="2" stroke-linecap="round" stroke-linejoin="round"/>
</svg>
