<svg width="24" height="24" viewBox="0 0 24 24" xmlns="http://www.w3.org/2000/svg">
<path d="M21 6H3C1.89543 6 1 6.89543 1 8V16C1 17.1046 1.89543 18 3 18H21C22.1046 18 23 17.1046 23 16V8C23 6.89543 22.1046 6 21 6Z"  stroke="var(--icon-color, #FFFFFF)" stroke-width="2"/>
<path d="M18 6H6V18H18V6Z" fill="var(--icon-color, #FFFFFF)" fill-opacity="0.199247"/>
<path d="M18.5 5.5H5.5V18.5H18.5V5.5Z"  stroke="var(--icon-color, #FFFFFF)"/>
<path fill-rule="evenodd" clip-rule="evenodd" d="M2.5 13C2.22386 13 2 12.7761 2 12.5C2 12.2239 2.22386 12 2.5 12C2.77614 12 3 12.2239 3 12.5C3 12.7761 2.77614 13 2.5 13ZM3.5 14C3.22386 14 3 13.7761 3 13.5C3 13.2239 3.22386 13 3.5 13C3.77614 13 4 13.2239 4 13.5C4 13.7761 3.77614 14 3.5 14ZM4.5 13C4.22386 13 4 12.7761 4 12.5C4 12.2239 4.22386 12 4.5 12C4.77614 12 5 12.2239 5 12.5C5 12.7761 4.77614 13 4.5 13ZM3.5 12C3.22386 12 3 11.7761 3 11.5C3 11.2239 3.22386 11 3.5 11C3.77614 11 4 11.2239 4 11.5C4 11.7761 3.77614 12 3.5 12Z" fill="var(--icon-color, #FFFFFF)"/>
<path fill-rule="evenodd" clip-rule="evenodd" d="M19.5 10C19.2239 10 19 9.77614 19 9.5C19 9.22386 19.2239 9 19.5 9C19.7761 9 20 9.22386 20 9.5C20 9.77614 19.7761 10 19.5 10ZM20.5 11C20.2239 11 20 10.7761 20 10.5C20 10.2239 20.2239 10 20.5 10C20.7761 10 21 10.2239 21 10.5C21 10.7761 20.7761 11 20.5 11ZM21.5 10C21.2239 10 21 9.77614 21 9.5C21 9.22386 21.2239 9 21.5 9C21.7761 9 22 9.22386 22 9.5C22 9.77614 21.7761 10 21.5 10ZM20.5 9C20.2239 9 20 8.77614 20 8.5C20 8.22386 20.2239 8 20.5 8C20.7761 8 21 8.22386 21 8.5C21 8.77614 20.7761 9 20.5 9Z" fill="var(--icon-color, #FFFFFF)"/>
<path fill-rule="evenodd" clip-rule="evenodd" d="M20.5 14C19.9477 14 19.5 13.5523 19.5 13C19.5 12.4477 19.9477 12 20.5 12C21.0523 12 21.5 12.4477 21.5 13C21.5 13.5523 21.0523 14 20.5 14ZM3.5 10C2.94772 10 2.5 9.55228 2.5 9C2.5 8.44772 2.94772 8 3.5 8C4.05228 8 4.5 8.44772 4.5 9C4.5 9.55228 4.05228 10 3.5 10Z" fill="var(--icon-color, #FFFFFF)"/>
</svg>
