<svg width="24" height="24" viewBox="0 0 24 24" xmlns="http://www.w3.org/2000/svg">
<path d="M17 6H7C5.89543 6 5 6.89543 5 8V16C5 17.1046 5.89543 18 7 18H17C18.1046 18 19 17.1046 19 16V8C19 6.89543 18.1046 6 17 6Z"  stroke="var(--icon-color, #FFFFFF)" stroke-width="2"/>
<path fill-rule="evenodd" clip-rule="evenodd" d="M4 8C4 8 1 13 1 16.5C1 20 5 19.5 5 17C5 14.5 4 8 4 8Z" fill="var(--icon-color, #FFFFFF)"/>
<path fill-rule="evenodd" clip-rule="evenodd" d="M20 8C20 8 23 13 23 16.5C23 20 19 19.5 19 17C19 14.5 20 8 20 8Z" fill="var(--icon-color, #FFFFFF)"/>
<path fill-rule="evenodd" clip-rule="evenodd" d="M6.5 13C6.22386 13 6 12.7761 6 12.5C6 12.2239 6.22386 12 6.5 12C6.77614 12 7 12.2239 7 12.5C7 12.7761 6.77614 13 6.5 13ZM7.5 14C7.22386 14 7 13.7761 7 13.5C7 13.2239 7.22386 13 7.5 13C7.77614 13 8 13.2239 8 13.5C8 13.7761 7.77614 14 7.5 14ZM8.5 13C8.22386 13 8 12.7761 8 12.5C8 12.2239 8.22386 12 8.5 12C8.77614 12 9 12.2239 9 12.5C9 12.7761 8.77614 13 8.5 13ZM7.5 12C7.22386 12 7 11.7761 7 11.5C7 11.2239 7.22386 11 7.5 11C7.77614 11 8 11.2239 8 11.5C8 11.7761 7.77614 12 7.5 12Z" fill="var(--icon-color, #FFFFFF)"/>
<path fill-rule="evenodd" clip-rule="evenodd" d="M15.5 10C15.2239 10 15 9.77614 15 9.5C15 9.22386 15.2239 9 15.5 9C15.7761 9 16 9.22386 16 9.5C16 9.77614 15.7761 10 15.5 10ZM16.5 11C16.2239 11 16 10.7761 16 10.5C16 10.2239 16.2239 10 16.5 10C16.7761 10 17 10.2239 17 10.5C17 10.7761 16.7761 11 16.5 11ZM17.5 10C17.2239 10 17 9.77614 17 9.5C17 9.22386 17.2239 9 17.5 9C17.7761 9 18 9.22386 18 9.5C18 9.77614 17.7761 10 17.5 10ZM16.5 9C16.2239 9 16 8.77614 16 8.5C16 8.22386 16.2239 8 16.5 8C16.7761 8 17 8.22386 17 8.5C17 8.77614 16.7761 9 16.5 9Z" fill="var(--icon-color, #FFFFFF)"/>
<path fill-rule="evenodd" clip-rule="evenodd" d="M16.5 14C15.9477 14 15.5 13.5523 15.5 13C15.5 12.4477 15.9477 12 16.5 12C17.0523 12 17.5 12.4477 17.5 13C17.5 13.5523 17.0523 14 16.5 14ZM7.5 10C6.94772 10 6.5 9.55228 6.5 9C6.5 8.44772 6.94772 8 7.5 8C8.05228 8 8.5 8.44772 8.5 9C8.5 9.55228 8.05228 10 7.5 10Z" fill="var(--icon-color, #FFFFFF)"/>
<path d="M14 6H10V18H14V6Z" fill="var(--icon-color, #FFFFFF)" fill-opacity="0.2"/>
<path d="M14.5 5.5H9.5V18.5H14.5V5.5Z"  stroke="var(--icon-color, #FFFFFF)"/>
</svg>
