<svg width="24" height="24" viewBox="0 0 24 24" xmlns="http://www.w3.org/2000/svg">
<g clip-path="url(#clip0)">
<path fill-rule="evenodd" clip-rule="evenodd" d="M14.5353 13.121L10.05 8.63576L8.73021 7.31597L7.41042 5.99618C6.43047 5.01624 4.85142 5.00649 3.86831 5.98961C2.892 6.96592 2.8871 8.54393 3.87488 9.53172L7.13593 12.7928L9.71176 15.3686L13.4073 19.0642C14.9733 20.6301 17.5122 20.63 19.0711 19.0711C20.6332 17.509 20.6354 14.9785 19.0642 13.4073L15.3686 9.71174L11.2947 5.6378C10.9081 5.25122 10.9024 4.61236 11.2929 4.22184C11.6862 3.82859 12.3174 3.8321 12.7089 4.22359L20.4853 12C22.8285 14.3432 22.8285 18.1421 20.4853 20.4853C18.1422 22.8284 14.3432 22.8284 12 20.4853L2.10054 10.5858L2.11996 10.5664C0.704861 8.79953 0.816239 6.21325 2.45409 4.57539C4.09195 2.93754 6.67823 2.82616 8.44508 4.24126L8.4645 4.22184L18.364 14.1213C19.5356 15.2929 19.5356 17.1924 18.364 18.364C17.1924 19.5355 15.2929 19.5355 14.1214 18.364L6.34493 10.5875C5.95835 10.201 5.95266 9.56211 6.34318 9.17159C6.73643 8.77834 7.36765 8.78185 7.75914 9.17334L13.121 14.5352L15.5357 16.9499C15.9262 17.3403 16.5565 17.343 16.9498 16.9498C17.3403 16.5592 17.3431 15.9289 16.9499 15.5357L14.5353 13.121Z" fill="var(--icon-color, #FFFFFF)"/>
</g>
<defs>
<clipPath id="clip0">
<rect width="24" height="24" fill="var(--icon-color, #FFFFFF)"/>
</clipPath>
</defs>
</svg>
