<svg width="24" height="24" viewBox="0 0 24 24" xmlns="http://www.w3.org/2000/svg">
<path d="M16 17L5.47393 21.5672C2.45078 22.9108 1.08727 21.5537 2.43287 18.5261L7.00003 8"  stroke="var(--icon-color, #FFFFFF)" stroke-width="2" stroke-linecap="round" stroke-linejoin="round"/>
<path fill-rule="evenodd" clip-rule="evenodd" d="M10.1906 13.8012C12.6706 16.2813 15.2261 17.7019 15.9569 16.9711C16.6877 16.2403 15.3171 13.6348 12.837 11.1548C10.357 8.67475 7.75407 7.2567 7.02327 7.9875C6.29248 8.7183 7.71052 11.3212 10.1906 13.8012Z"  stroke="var(--icon-color, #FFFFFF)" stroke-width="2"/>
<path d="M9 12.5C9 12.5 12 7.75 10 3"  stroke="var(--icon-color, #FFFFFF)" stroke-width="2" stroke-linecap="round" stroke-linejoin="round"/>
<path d="M12 15C12.9522 13.7304 15.7179 13.2667 17.9946 13.3532C19.3043 13.403 20.4522 13.6348 21 14"  stroke="var(--icon-color, #FFFFFF)" stroke-width="2" stroke-linecap="round" stroke-linejoin="round"/>
<path d="M16 10C16 10 13.6638 6.1681 15 5.50001C16 5.00001 18 7.50001 19 8.00001C20 8.50001 17.5 4.00001 18.5 3.00001C19.5 2.00001 22 5.00001 22 5.00001"  stroke="var(--icon-color, #FFFFFF)" stroke-width="2" stroke-linecap="round"/>
<path fill-rule="evenodd" clip-rule="evenodd" d="M22 12C21.4477 12 21 11.5523 21 11C21 10.4477 21.4477 10 22 10C22.5523 10 23 10.4477 23 11C23 11.5523 22.5523 12 22 12ZM19 19C18.4477 19 18 18.5523 18 18C18 17.4477 18.4477 17 19 17C19.5523 17 20 17.4477 20 18C20 18.5523 19.5523 19 19 19ZM22.5 17C22.2239 17 22 16.7761 22 16.5C22 16.2239 22.2239 16 22.5 16C22.7761 16 23 16.2239 23 16.5C23 16.7761 22.7761 17 22.5 17ZM22.5 2C22.2239 2 22 1.77614 22 1.5C22 1.22386 22.2239 1 22.5 1C22.7761 1 23 1.22386 23 1.5C23 1.77614 22.7761 2 22.5 2ZM7.5 6C7.22386 6 7 5.77614 7 5.5C7 5.22386 7.22386 5 7.5 5C7.77614 5 8 5.22386 8 5.5C8 5.77614 7.77614 6 7.5 6ZM14 3C13.4477 3 13 2.55228 13 2C13 1.44772 13.4477 1 14 1C14.5523 1 15 1.44772 15 2C15 2.55228 14.5523 3 14 3ZM4.70001 5C4.14773 5 3.70001 4.55228 3.70001 4C3.70001 3.44772 4.14773 3 4.70001 3C5.2523 3 5.70001 3.44772 5.70001 4C5.70001 4.55228 5.2523 5 4.70001 5Z" fill="var(--icon-color, #FFFFFF)"/>
</svg>
