<svg width="24" height="24" viewBox="0 0 24 24" xmlns="http://www.w3.org/2000/svg">
<path fill-rule="evenodd" clip-rule="evenodd" d="M5 3.9934C5 3.44476 5.44372 3 5.99981 3H9.00019C9.55237 3 10 3.44495 10 3.9934V20.0066C10 20.5552 9.55628 21 9.00019 21H5.99981C5.44763 21 5 20.5551 5 20.0066V3.9934ZM14 3.9934C14 3.44476 14.4437 3 14.9998 3H18.0002C18.5524 3 19 3.44495 19 3.9934V20.0066C19 20.5552 18.5563 21 18.0002 21H14.9998C14.4476 21 14 20.5551 14 20.0066V3.9934Z"  stroke="var(--icon-color, #FFFFFF)" stroke-width="2" fill="var(--icon-color, #FFFFFF)"/>
</svg>
