<svg width="24" height="24" viewBox="0 0 24 24" xmlns="http://www.w3.org/2000/svg">
<path d="M8.16543 15H13.0033C16.3123 15 19 12.3121 19 9C19 5.69029 16.3136 3 13.0033 3H6.99669C3.68773 3 1 5.68785 1 9C1 11.2193 2.20786 13.16 4.00174 14.198C4.00058 14.1322 4 14.0662 4 14C4 13.2617 4.07212 12.5468 4.21286 11.868C3.46504 11.1407 3 10.1238 3 9C3 6.7924 4.79232 5 6.99669 5H13.0033C15.2084 5 17 6.79422 17 9C17 11.2076 15.2077 13 13.0033 13H8.17516C8.06394 13.2997 8 13.633 8 14C8 14.367 8.06025 14.7003 8.16543 15Z" fill="var(--icon-color, #FFFFFF)"/>
<path d="M15.8231 8H10.9967C7.68774 8 5 10.6879 5 14C5 17.3097 7.68642 20 10.9967 20H17.0033C20.3123 20 23 17.3121 23 14C23 11.7805 21.7919 9.83963 19.9978 8.80175C19.9993 8.86564 20 8.9317 20 9C20 9.93085 19.8614 10.5844 19.6873 11.0382C20.4934 11.7704 21 12.827 21 14C21 16.2076 19.2077 18 17.0033 18H10.9967C8.79164 18 7 16.2058 7 14C7 11.7924 8.79232 10 10.9967 10H15.8698C15.9489 9.67822 16 9.33911 16 9C16 8.59808 15.9282 8.26795 15.8231 8Z" fill="var(--icon-color, #FFFFFF)"/>
</svg>
