<svg width="24" height="24" viewBox="0 0 24 24" xmlns="http://www.w3.org/2000/svg">
<g clip-path="url(#clip0)">
<path fill-rule="evenodd" clip-rule="evenodd" d="M8.09485 3.40338C7.78712 2.9432 7.11966 2.72877 6.61738 2.94771C6.61738 2.94771 5.41634 3.27727 4.00212 4.69148C2.58791 6.10569 2.58791 11.0554 7.89121 16.3587C13.1945 21.662 18.1443 21.662 19.5585 20.2478C20.9727 18.8336 21.3022 17.6326 21.3022 17.6326C21.5108 17.1243 21.2968 16.4903 20.8214 16.2148L17.8583 14.4975C17.3843 14.2227 16.708 14.3379 16.344 14.7593L15.6182 15.5994C15.256 16.0188 14.5946 16.1047 14.1428 15.7786C14.1428 15.7786 12.8554 14.9589 11.0732 13.1768C9.29101 11.3946 8.47135 10.1072 8.47135 10.1072C8.15095 9.65459 8.23226 8.9886 8.64577 8.62598L9.74541 7.66168C10.1621 7.29623 10.2474 6.6223 9.94278 6.16677L8.09485 3.40338Z"  stroke="var(--icon-color, #FFFFFF)" stroke-width="2" stroke-linecap="round" stroke-linejoin="round"/>
</g>
<defs>
<clipPath id="clip0">
<rect width="24" height="24" fill="var(--icon-color, #FFFFFF)"/>
</clipPath>
</defs>
</svg>
