<svg width="24" height="24" viewBox="0 0 24 24" xmlns="http://www.w3.org/2000/svg">
<path d="M17 2H7C6.44772 2 6 2.44772 6 3V21C6 21.5523 6.44772 22 7 22H17C17.5523 22 18 21.5523 18 21V3C18 2.44772 17.5523 2 17 2Z"  stroke="var(--icon-color, #FFFFFF)" stroke-width="2" stroke-linejoin="round"/>
<path d="M13.5 4H10.5C10.2239 4 10 4.22386 10 4.5C10 4.77614 10.2239 5 10.5 5H13.5C13.7761 5 14 4.77614 14 4.5C14 4.22386 13.7761 4 13.5 4Z" fill="var(--icon-color, #FFFFFF)"/>
<path d="M12 20C12.5523 20 13 19.5523 13 19C13 18.4477 12.5523 18 12 18C11.4477 18 11 18.4477 11 19C11 19.5523 11.4477 20 12 20Z" fill="var(--icon-color, #FFFFFF)"/>
</svg>
