<svg width="24" height="24" viewBox="0 0 24 24" xmlns="http://www.w3.org/2000/svg">
<g clip-path="url(#clip0)">
<path d="M21.4915 10L21.9062 7.64816C22.1931 6.02096 21.1055 4.46673 19.4775 4.17967L7.64816 2.09383C6.02096 1.80691 4.46673 2.8945 4.17967 4.52249L3.21383 10H5.24469L6.14928 4.86979C6.24449 4.32985 6.76119 3.96828 7.30086 4.06344L19.1303 6.14928C19.6702 6.24449 20.0318 6.76119 19.9366 7.30086L19.4607 10H21.4915ZM20.7862 14L19.8204 19.4775C19.5333 21.1055 17.9791 22.1931 16.3519 21.9062L4.52249 19.8204C2.8945 19.5333 1.80691 17.9791 2.09383 16.3519L2.50852 14H4.53938L4.06344 16.6992C3.96828 17.2389 4.32985 17.7555 4.86979 17.8508L16.6992 19.9366C17.2389 20.0318 17.7555 19.6702 17.8508 19.1303L18.7554 14H20.7862Z" fill="var(--icon-color, #FFFFFF)"/>
<path d="M1 12H23.0057"  stroke="var(--icon-color, #FFFFFF)" stroke-width="2" stroke-linecap="round" stroke-linejoin="round" stroke-dasharray="2 3"/>
</g>
<defs>
<clipPath id="clip0">
<rect width="24" height="24" fill="var(--icon-color, #FFFFFF)"/>
</clipPath>
</defs>
</svg>
