<svg width="24" height="24" viewBox="0 0 24 24" xmlns="http://www.w3.org/2000/svg">
<path opacity="0.4" fill-rule="evenodd" clip-rule="evenodd" d="M3 5.99406C3 4.89277 3.89262 4 4.99509 4H19.0049C20.1068 4 21 4.89451 21 5.99406V18.0059C21 19.1072 20.1074 20 19.0049 20H4.99509C3.89323 20 3 19.1055 3 18.0059V5.99406ZM12 19C15.866 19 19 15.866 19 12C19 8.13401 15.866 5 12 5C8.13401 5 5 8.13401 5 12C5 15.866 8.13401 19 12 19Z" fill="var(--icon-color, #FFFFFF)"/>
<path opacity="0.2" fill-rule="evenodd" clip-rule="evenodd" d="M12 19C8.13401 19 5 15.866 5 12C5 8.13401 8.13401 5 12 5C15.866 5 19 8.13401 19 12C19 15.866 15.866 19 12 19ZM12 17C14.7614 17 17 14.7614 17 12C17 9.23858 14.7614 7 12 7C9.23858 7 7 9.23858 7 12C7 14.7614 9.23858 17 12 17Z" fill="var(--icon-color, #FFFFFF)"/>
<path opacity="0.1" fill-rule="evenodd" clip-rule="evenodd" d="M12 17C9.23858 17 7 14.7614 7 12C7 9.23858 9.23858 7 12 7C14.7614 7 17 9.23858 17 12C17 14.7614 14.7614 17 12 17ZM12 15C13.6569 15 15 13.6569 15 12C15 10.3431 13.6569 9 12 9C10.3431 9 9 10.3431 9 12C9 13.6569 10.3431 15 12 15Z" fill="var(--icon-color, #FFFFFF)"/>
<path d="M19 4H5C3.89543 4 3 4.89543 3 6V18C3 19.1046 3.89543 20 5 20H19C20.1046 20 21 19.1046 21 18V6C21 4.89543 20.1046 4 19 4Z"  stroke="var(--icon-color, #FFFFFF)" stroke-width="2" stroke-linecap="round"/>
</svg>
