<svg width="24" height="24" viewBox="0 0 24 24" xmlns="http://www.w3.org/2000/svg">
<path d="M22 4H2C1.44772 4 1 4.44772 1 5V19C1 19.5523 1.44772 20 2 20H22C22.5523 20 23 19.5523 23 19V5C23 4.44772 22.5523 4 22 4Z"  stroke="var(--icon-color, #FFFFFF)" stroke-width="2"/>
<path d="M6 11C7.10457 11 8 10.1046 8 9C8 7.89543 7.10457 7 6 7C4.89543 7 4 7.89543 4 9C4 10.1046 4.89543 11 6 11Z" fill="var(--icon-color, #FFFFFF)"/>
<path d="M21 10C20 10 17 10 14 12C11 14 11 17 11 18"  stroke="var(--icon-color, #FFFFFF)" stroke-width="2" stroke-linejoin="round"/>
<path d="M4 18C4 17 5 15 7.5 14C10 13 13 13 13 13"  stroke="var(--icon-color, #FFFFFF)" stroke-width="2" stroke-linejoin="round"/>
</svg>
