<svg width="24" height="24" viewBox="0 0 24 24" xmlns="http://www.w3.org/2000/svg">
<path opacity="0.6" d="M4.17134 8.41395C2.99977 7.24238 2.99977 5.34288 4.17134 4.17131C5.34292 2.99974 7.24241 2.99974 8.41398 4.17131L11.2424 6.99974C12.414 8.17131 12.414 10.0708 11.2424 11.2424C10.0708 12.4139 8.17134 12.4139 6.99977 11.2424L4.17134 8.41395Z" fill="var(--icon-color, #FFFFFF)"/>
<path opacity="0.4" d="M4 9C2.34315 9 1 10.3431 1 12C1 13.6569 2.34315 15 4 15H8C9.65685 15 11 13.6569 11 12C11 10.3431 9.65685 9 8 9H4Z" fill="var(--icon-color, #FFFFFF)"/>
<path opacity="0.2" d="M4.17134 15.4997C2.99977 16.6713 2.99977 18.5708 4.17134 19.7424C5.34292 20.9139 7.24241 20.9139 8.41398 19.7424L11.2424 16.9139C12.414 15.7424 12.414 13.8429 11.2424 12.6713C10.0708 11.4997 8.17134 11.4997 6.99977 12.6713L4.17134 15.4997Z" fill="var(--icon-color, #FFFFFF)"/>
<path opacity="0.4" d="M15 16C15 14.3431 13.6569 13 12 13C10.3431 13 9 14.3431 9 16V20C9 21.6569 10.3431 23 12 23C13.6569 23 15 21.6569 15 20V16Z" fill="var(--icon-color, #FFFFFF)"/>
<path opacity="0.6" d="M19.8424 15.4997C21.014 16.6713 21.014 18.5708 19.8424 19.7424C18.6708 20.9139 16.7713 20.9139 15.5997 19.7424L12.7713 16.9139C11.5997 15.7424 11.5997 13.8429 12.7713 12.6713C13.9429 11.4997 15.8424 11.4997 17.014 12.6713L19.8424 15.4997Z" fill="var(--icon-color, #FFFFFF)"/>
<path d="M19.8424 8.41395C21.014 7.24238 21.014 5.34288 19.8424 4.17131C18.6708 2.99974 16.7713 2.99974 15.5997 4.17131L12.7713 6.99974C11.5997 8.17131 11.5997 10.0708 12.7713 11.2424C13.9429 12.4139 15.8424 12.4139 17.014 11.2424L19.8424 8.41395Z" fill="var(--icon-color, #FFFFFF)"/>
<path opacity="0.8" d="M15 4C15 2.34315 13.6569 1 12 1C10.3431 1 9 2.34315 9 4V8C9 9.65685 10.3431 11 12 11C13.6569 11 15 9.65685 15 8V4Z" fill="var(--icon-color, #FFFFFF)"/>
<path opacity="0.8" d="M20 15C21.6569 15 23 13.6569 23 12C23 10.3431 21.6569 9 20 9L16 9C14.3431 9 13 10.3431 13 12C13 13.6569 14.3431 15 16 15H20Z" fill="var(--icon-color, #FFFFFF)"/>
</svg>
