<svg width="24" height="24" viewBox="0 0 24 24" xmlns="http://www.w3.org/2000/svg">
<path d="M19.5 14C19.2514 14.7123 18.9774 15.4052 18.5 16C18 16.5 18.139 17.4171 18.3164 17.9492L18.6836 19.0508C18.8583 19.575 18.5848 20.178 18.0804 20.3941L16.4196 21.1059C15.9117 21.3236 15.322 21.0848 15.1059 20.5804L14 18M10 18L8.89411 20.5804C8.67796 21.0848 8.08829 21.3236 7.58042 21.1059L5.91958 20.3941C5.41524 20.178 5.14166 19.575 5.31641 19.0508L5.68359 17.9492C5.86095 17.4171 6 16.5 5.5916 15.9902C4.59012 14.7402 4 13.184 4 11.5C4 7.35786 7.58172 4 12 4C12.694 4 13.3654 4.08216 14.0042 4.23677L10 18ZM18.3769 7.00999C18.8498 7.60959 19.2304 8.2791 19.5 9L18.3769 7.00999Z"  stroke="var(--icon-color, #FFFFFF)" stroke-width="2"/>
<path d="M16 10C16.5523 10 17 9.55228 17 9C17 8.44772 16.5523 8 16 8C15.4477 8 15 8.44772 15 9C15 9.55228 15.4477 10 16 10Z" fill="var(--icon-color, #FFFFFF)"/>
<path d="M8.98895 18.4506C9.91838 18.8048 10.9349 19 12 19C13.0665 19 14.0842 18.8044 15.0146 18.4493"  stroke="var(--icon-color, #FFFFFF)" stroke-width="2" stroke-linecap="round"/>
<path d="M19.5 9H20.5C21.3284 9 22 9.67432 22 10.5002V12.4998C22 13.3284 21.3342 14 20.5 14H19.5"  stroke="var(--icon-color, #FFFFFF)" stroke-width="2" stroke-linecap="round"/>
<path d="M10.989 7.10226C9.02065 7.50647 7.47427 9.06737 7.09143 11.0434"  stroke="var(--icon-color, #FFFFFF)" stroke-width="2" stroke-linecap="round"/>
<path d="M18.38 6.99999C17.5 5.99999 17 4.99999 18 2.99999C15.5 1.99999 14 4.23998 14 4.23998"  stroke="var(--icon-color, #FFFFFF)" stroke-width="2" stroke-linecap="round" stroke-linejoin="round"/>
<path d="M5 7.5C4.5 7 3 6.5 2 7C1 7.5 1 9 2 9.5C3 10 4 9.5 4 8C4 6.5 2.5 5.5 1 5"  stroke="var(--icon-color, #FFFFFF)" stroke-width="2" stroke-linecap="round"/>
</svg>
