<svg width="24" height="24" viewBox="0 0 24 24" xmlns="http://www.w3.org/2000/svg">
<path d="M12 19C15.866 19 19 15.866 19 12C19 8.13401 15.866 5 12 5C8.13401 5 5 8.13401 5 12C5 15.866 8.13401 19 12 19Z"  stroke="var(--icon-color, #FFFFFF)" stroke-width="2"/>
<path d="M5.01292 12.2303C2.61173 13.2526 1.15421 14.2344 1.32028 14.8542C1.60617 15.9211 6.59498 15.5114 12.4631 13.939C18.3312 12.3667 22.8565 10.2271 22.5707 9.16017C22.4048 8.5413 20.6567 8.41926 18.0724 8.73276"  stroke="var(--icon-color, #FFFFFF)" stroke-width="2"/>
<path opacity="0.5" fill-rule="evenodd" clip-rule="evenodd" d="M10 10C9.44772 10 9 9.55228 9 9C9 8.44772 9.44772 8 10 8C10.5523 8 11 8.44772 11 9C11 9.55228 10.5523 10 10 10ZM12.5 9C12.2239 9 12 8.77614 12 8.5C12 8.22386 12.2239 8 12.5 8C12.7761 8 13 8.22386 13 8.5C13 8.77614 12.7761 9 12.5 9ZM11.5 11C11.2239 11 11 10.7761 11 10.5C11 10.2239 11.2239 10 11.5 10C11.7761 10 12 10.2239 12 10.5C12 10.7761 11.7761 11 11.5 11Z" fill="var(--icon-color, #FFFFFF)"/>
</svg>
