<svg width="24" height="24" viewBox="0 0 24 24" xmlns="http://www.w3.org/2000/svg">
<path fill-rule="evenodd" clip-rule="evenodd" d="M15 19.5V9.71923L19.8209 8.51401C20.4425 8.3586 21 7.64493 21 7.00191V2.99811C21 2.54056 20.7475 2.3439 20.306 2.4543L16.1791 3.48601C15.5575 3.64142 15 4.35509 15 4.99811V17H12.5C11.1217 17 10 18.1208 10 19.5C10 20.8783 11.1208 22 12.5 22C13.8783 22 15 20.8792 15 19.5Z"  stroke="var(--icon-color, #FFFFFF)" stroke-width="2"/>
<path fill-rule="evenodd" clip-rule="evenodd" d="M2 6.00002C2 5.44773 2.45566 5.00002 2.9954 5.00002H11.0046C11.5543 5.00002 12 5.44388 12 6.00002C12 6.5523 11.5443 7.00002 11.0046 7.00002H2.9954C2.44565 7.00002 2 6.55615 2 6.00002ZM2 10C2 9.44773 2.45566 9.00002 2.9954 9.00002H11.0046C11.5543 9.00002 12 9.44388 12 10C12 10.5523 11.5443 11 11.0046 11H2.9954C2.44565 11 2 10.5562 2 10ZM2 14C2 13.4477 2.45304 13 2.99703 13H9.00297C9.55361 13 10 13.4439 10 14C10 14.5523 9.54696 15 9.00297 15H2.99703C2.44639 15 2 14.5562 2 14ZM2 18C2 17.4477 2.44372 17 2.99981 17H6.00019C6.55237 17 7 17.4439 7 18C7 18.5523 6.55628 19 6.00019 19H2.99981C2.44763 19 2 18.5562 2 18Z" fill="var(--icon-color, #FFFFFF)"/>
</svg>
