<svg width="24" height="24" viewBox="0 0 24 24" xmlns="http://www.w3.org/2000/svg">
<path d="M19 3H5C3.89543 3 3 3.89543 3 5V19C3 20.1046 3.89543 21 5 21H19C20.1046 21 21 20.1046 21 19V5C21 3.89543 20.1046 3 19 3Z"  stroke="var(--icon-color, #FFFFFF)" stroke-width="2"/>
<path opacity="0.2" d="M12 18C15.3137 18 18 15.3137 18 12C18 8.68629 15.3137 6 12 6C8.68629 6 6 8.68629 6 12C6 15.3137 8.68629 18 12 18Z" fill="var(--icon-color, #FFFFFF)"/>
<path fill-rule="evenodd" clip-rule="evenodd" d="M14.5 13.5C13.6716 13.5 13 12.8284 13 12C13 11.1716 13.6716 10.5 14.5 10.5C15.3284 10.5 16 11.1716 16 12C16 12.8284 15.3284 13.5 14.5 13.5ZM9.5 13.5C8.67157 13.5 8 12.8284 8 12C8 11.1716 8.67157 10.5 9.5 10.5C10.3284 10.5 11 11.1716 11 12C11 12.8284 10.3284 13.5 9.5 13.5Z" fill="var(--icon-color, #FFFFFF)"/>
</svg>
