<svg width="24" height="24" viewBox="0 0 24 24" xmlns="http://www.w3.org/2000/svg">
<path fill-rule="evenodd" clip-rule="evenodd" d="M9.32915 15.9751C9.14735 14.8843 9.89823 14 10.9979 14H13.0021C14.1055 14 14.8534 14.8793 14.6708 15.9751L13.6633 22.0197C13.5731 22.5611 13.0573 23 12.501 23H11.4989C10.9472 23 10.4276 22.5659 10.3366 22.0197L9.32915 15.9751Z" fill="var(--icon-color, #FFFFFF)"/>
<path d="M12 13C13.6569 13 15 11.6569 15 10C15 8.34315 13.6569 7 12 7C10.3431 7 9 8.34315 9 10C9 11.6569 10.3431 13 12 13Z" fill="var(--icon-color, #FFFFFF)"/>
<path d="M16.3851 13.8501C17.4222 12.6992 18 11.4167 18 10C18 6.74089 15.2591 4 12 4C8.74089 4 6 6.74089 6 10C6 11.4186 6.57916 12.7028 7.61838 13.854C7.80341 14.059 8.11958 14.0752 8.32456 13.8902C8.52955 13.7051 8.54572 13.389 8.36069 13.184C7.47617 12.2041 7 11.1483 7 10C7 7.29318 9.29318 5 12 5C14.7068 5 17 7.29318 17 10C17 11.1467 16.525 12.201 15.6422 13.1807C15.4574 13.3859 15.4738 13.702 15.679 13.8869C15.8841 14.0717 16.2003 14.0553 16.3851 13.8501Z" fill="var(--icon-color, #FFFFFF)"url(#paint0_linear)"/>
<path d="M17.5678 18.3077C20.316 16.4626 22 13.3733 22 10C22 4.47715 17.5228 0 12 0C6.47715 0 2 4.47715 2 10C2 13.3762 3.68697 16.4679 6.43902 18.3123C6.8978 18.6198 7.51897 18.4971 7.82644 18.0383C8.13391 17.5796 8.01126 16.9584 7.55248 16.6509C5.34877 15.174 4 12.7021 4 10C4 5.58172 7.58172 2 12 2C16.4183 2 20 5.58172 20 10C20 12.6998 18.6536 15.1698 16.453 16.6472C15.9945 16.9551 15.8723 17.5764 16.1802 18.0349C16.488 18.4934 17.1093 18.6156 17.5678 18.3077Z" fill="var(--icon-color, #FFFFFF)"url(#paint1_linear)"/>
<defs>
<linearGradient id="paint0_linear" x1="12" y1="4" x2="12" y2="13.7518" gradientUnits="userSpaceOnUse">
<stop stop-color="#333333"/>
<stop offset="1" stop-color="#333333" stop-opacity="0.247311"/>
</linearGradient>
<linearGradient id="paint1_linear" x1="12" y1="0" x2="12" y2="18.0868" gradientUnits="userSpaceOnUse">
<stop stop-color="#333333"/>
<stop offset="1" stop-color="#333333" stop-opacity="0.250708"/>
</linearGradient>
</defs>
</svg>
