<svg width="24" height="24" viewBox="0 0 24 24" xmlns="http://www.w3.org/2000/svg">
<path d="M12 22C17.5228 22 22 17.5228 22 12C22 6.47715 17.5228 2 12 2C6.47715 2 2 6.47715 2 12C2 17.5228 6.47715 22 12 22Z"  stroke="var(--icon-color, #FFFFFF)" stroke-width="2"/>
<path opacity="0.2" fill-rule="evenodd" clip-rule="evenodd" d="M14.8293 12C17.3089 12 19.8023 12 22 12C22 6.47715 17.5228 2 12 2C6.47715 2 2 6.47715 2 12C3.31958 12 5.99349 12 9.17071 12C9.06015 11.6872 9 11.3506 9 11C9 9.34315 10.3431 8 12 8C13.6569 8 15 9.34315 15 11C15 11.3506 14.9398 11.6872 14.8293 12Z" fill="var(--icon-color, #FFFFFF)"/>
<path fill-rule="evenodd" clip-rule="evenodd" d="M3 11H9V13H3V11ZM15 11H21V13H15V11Z" fill="var(--icon-color, #FFFFFF)"/>
<path d="M12 15C13.6569 15 15 13.6569 15 12C15 10.3431 13.6569 9 12 9C10.3431 9 9 10.3431 9 12C9 13.6569 10.3431 15 12 15Z"  stroke="var(--icon-color, #FFFFFF)" stroke-width="2"/>
<path d="M12 13C12.5523 13 13 12.5523 13 12C13 11.4477 12.5523 11 12 11C11.4477 11 11 11.4477 11 12C11 12.5523 11.4477 13 12 13Z" fill="var(--icon-color, #FFFFFF)"/>
</svg>
