<svg width="24" height="24" viewBox="0 0 24 24" xmlns="http://www.w3.org/2000/svg">
<path fill-rule="evenodd" clip-rule="evenodd" d="M17 16H18.5151C19.8916 16 21.0075 17.1097 21.0075 18.5C21.0075 19.8807 19.8806 21 18.5026 21H5.49744C4.11402 21 2.99453 19.8903 2.99701 18.5C2.99948 17.1193 4.12296 16 5.50807 16H12H7.50739C6.1226 16 5 14.8903 5 13.5C5 12.1193 6.10967 11 7.5 11H10C10 11 8 10.5 8 8C8 5.5 13 3 13 3C13 3 11 4 12 6C13 8 15 7 15 9C15 11 13 11 13 11H16.4902C17.8763 11 19 12.1097 19 13.5C19 14.8807 17.8831 16 17 16Z"  stroke="var(--icon-color, #FFFFFF)" stroke-width="2" stroke-linecap="round" stroke-linejoin="round"/>
</svg>
