<svg width="24" height="24" viewBox="0 0 24 24" xmlns="http://www.w3.org/2000/svg">
<path fill-rule="evenodd" clip-rule="evenodd" d="M6 7.99547C6 6.8934 6.89106 6 8.00521 6C8.00521 6 8.5 6 9 6C9.5 6 10.5 6 10.5 5.5C10.5 5 9.5 4.5 9.5 3.5C9.5 2.5 10.5 2 12 2C13.5 2 14.5 2.5 14.5 3.5C14.5 4.5 13.5 5 13.5 5.5C13.5 6 14.5 6 15 6C15.5 6 17.9916 6 17.9916 6C19.1008 6 20 6.89948 20 8.00544C20 8.00544 20 8.52686 20 9.01343C20 9.5 20 10.5 19.5 10.5C19 10.5 18.5 9.5 17.5 9.5C16.5 9.5 16 10.5 16 12C16 13.5 16.5 14.5 17.5 14.5C18.5 14.5 19 13.5 19.5 13.5C20 13.5 20 14.5 20 15C20 15.5 20 17.9916 20 17.9916C20 19.1008 19.0994 20 17.9916 20H15C14.5 20 13.5 20 13.5 19.5C13.5 19 14.5 18.5 14.5 17.5C14.5 16.5 13.5 16 12 16C10.5 16 9.5 16.5 9.5 17.5C9.5 18.5 10.5 19 10.5 19.5C10.5 20 9.5 20 9 20C8.5 20 8.00521 20 8.00521 20C6.89776 20 6 19.0994 6 17.9916C6 17.9916 6 15.5 6 15C6 14.5 5.731 13.5 5.5 13.5C4.94133 13.5 4.5 14.5 3.5 14.5C2.5 14.5 2 13.5 2 12C2 10.5 2.5 9.5 3.5 9.5C4.5 9.5 5.35135 10.5 5.5 10.5C6 10.5 6 9.54028 6 9.02014C6 8.5 6 7.99547 6 7.99547Z"  stroke="var(--icon-color, #FFFFFF)" stroke-width="2" stroke-linecap="round" stroke-linejoin="round"/>
</svg>
