<svg width="24" height="24" viewBox="0 0 24 24" xmlns="http://www.w3.org/2000/svg">
<path fill-rule="evenodd" clip-rule="evenodd" d="M3 3H8V8H3V3ZM16 3H21V8H16V3ZM3 16H8V21H3V16Z"  stroke="var(--icon-color, #FFFFFF)" stroke-width="2" stroke-linejoin="round"/>
<path fill-rule="evenodd" clip-rule="evenodd" d="M12 2.99981C12 2.44372 11.5523 2 11 2C10.4439 2 10 2.44763 10 2.99981V6.00019C10 6.55628 10.4477 7 11 7C11.5561 7 12 6.55237 12 6.00019V5H12.9906C13.5566 5 14 4.55228 14 4C14 3.44386 13.5481 3 12.9906 3H12V2.99981ZM21.7086 21.7072C21.5281 21.8881 21.2782 22 21.0002 22H17.9998C17.4476 22 17 21.5561 17 21C17 20.4477 17.4437 20 17.9998 20H20V17.9998C20 17.4476 20.4439 17 21 17C21.5523 17 22 17.4437 22 17.9998V21.0002C22 21.2763 21.8891 21.5262 21.7086 21.7071L21.7086 21.7072ZM10 18.0047C10 18.0062 10 18.0078 10 18.0094V19.9906C10 20.5566 10.4477 21 11 21C11.5561 21 12 20.5481 12 19.9906V19H14V21.0002C14 21.5563 14.4477 22 15 22C15.5561 22 16 21.5524 16 21.0002V17.9998C16 17.7233 15.8893 17.4746 15.7101 17.2944C15.5305 17.1109 15.2828 17 15.0092 17H10.9908C10.451 17 10 17.4477 10 18C10 18.0016 10 18.0031 10 18.0047V18.0047ZM10.2899 15.7056C10.1107 15.5254 10 15.2767 10 15.0002V12H8.99078C8.44359 12 8 11.5561 8 11C8 10.4477 8.45098 10 8.99078 10H12V7.99981C12 7.44763 12.4439 7 13 7C13.5523 7 14 7.44372 14 7.99981V11.0002C14 11.2748 13.8903 11.5235 13.7115 11.7042C13.5268 11.8881 13.2791 12 13.0092 12H12V14H15.0092C15.5564 14 16 14.4439 16 15C16 15.5523 15.549 16 15.0092 16H10.9908C10.7172 16 10.4695 15.8891 10.2902 15.7086L10.2899 15.7056ZM2 11C2 10.4477 2.44335 10 3.00937 10H4.99063C5.54809 10 6 10.4439 6 11C6 11.5523 5.55665 12 4.99063 12H3.00937C2.45191 12 2 11.5561 2 11ZM6 13C6 12.4477 6.44386 12 7 12C7.55228 12 8 12.4439 8 13C8 13.5523 7.55614 14 7 14C6.44772 14 6 13.5561 6 13ZM17 15C17 14.4477 17.4439 14 18 14C18.5523 14 19 14.4439 19 15C19 15.5523 18.5561 16 18 16C17.4477 16 17 15.5561 17 15ZM17 18C17 17.4477 17.4439 17 18 17C18.5523 17 19 17.4439 19 18C19 18.5523 18.5561 19 18 19C17.4477 19 17 18.5561 17 18ZM20 15C20 14.4477 20.4439 14 21 14C21.5523 14 22 14.4439 22 15C22 15.5523 21.5561 16 21 16C20.4477 16 20 15.5561 20 15ZM15 11C15 10.4477 15.4434 10 16.0094 10H17.9906C18.5481 10 19 10.4439 19 11C19 11.5523 18.5566 12 17.9906 12H16.0094C15.4519 12 15 11.5561 15 11Z" fill="var(--icon-color, #FFFFFF)"/>
</svg>
