<svg width="24" height="24" viewBox="0 0 24 24" xmlns="http://www.w3.org/2000/svg">
<path fill-rule="evenodd" clip-rule="evenodd" d="M5 3H19V21L18 20L16 21L14 20L12 21L10 20L8 21L6 20L5 21V3Z" fill="var(--icon-color, #FFFFFF)"url(#paint0_linear)"  stroke="var(--icon-color, #FFFFFF)" stroke-width="2" stroke-linecap="round" stroke-linejoin="round"/>
<path opacity="0.76" fill-rule="evenodd" clip-rule="evenodd" d="M17 15.5C17 15.7761 16.7849 16 16.5095 16H13.4905C13.2196 16 13 15.7681 13 15.5C13 15.2239 13.2151 15 13.4905 15H16.5095C16.7804 15 17 15.2319 17 15.5ZM17 13.5C17 13.7761 16.7721 14 16.509 14H11.491C11.2198 14 11 13.7681 11 13.5C11 13.2239 11.2279 13 11.491 13H16.509C16.7802 13 17 13.2319 17 13.5ZM17 11.5C17 11.7761 16.7842 12 16.5046 12H14.4954C14.2218 12 14 11.7681 14 11.5C14 11.2239 14.2158 11 14.4954 11H16.5046C16.7782 11 17 11.2319 17 11.5ZM17 9.5C17 9.77614 16.7852 10 16.5023 10H12.4977C12.2228 10 12 9.76807 12 9.5C12 9.22386 12.2148 9 12.4977 9H16.5023C16.7772 9 17 9.23193 17 9.5ZM9 15.5C9 15.7761 8.78596 16 8.49532 16H7.50468C7.22596 16 7 15.7681 7 15.5C7 15.2239 7.21404 15 7.50468 15H8.49532C8.77404 15 9 15.2319 9 15.5ZM9 13.5C9 13.7761 8.78596 14 8.49532 14H7.50468C7.22596 14 7 13.7681 7 13.5C7 13.2239 7.21404 13 7.50468 13H8.49532C8.77404 13 9 13.2319 9 13.5ZM9 11.5C9 11.7761 8.78596 12 8.49532 12H7.50468C7.22596 12 7 11.7681 7 11.5C7 11.2239 7.21404 11 7.50468 11H8.49532C8.77404 11 9 11.2319 9 11.5ZM9 9.5C9 9.77614 8.78596 10 8.49532 10H7.50468C7.22596 10 7 9.76807 7 9.5C7 9.22386 7.21404 9 7.50468 9H8.49532C8.77404 9 9 9.23193 9 9.5Z" fill="var(--icon-color, #FFFFFF)"/>
<path d="M5 7H4.00104C2.8959 7 2 6.11227 2 5C2 3.89543 2.89821 3 3.9908 3H20.0092C21.1087 3 22 3.88773 22 5C22 6.10457 21.0961 7 20.0099 7H19.041"  stroke="var(--icon-color, #FFFFFF)" stroke-width="2"/>
<defs>
<linearGradient id="paint0_linear" x1="12" y1="3" x2="12" y2="7.04456" gradientUnits="userSpaceOnUse">
<stop stop-color="#333333" stop-opacity="0.246886"/>
<stop offset="1" stop-color="#333333" stop-opacity="0"/>
</linearGradient>
</defs>
</svg>
