<svg width="24" height="24" viewBox="0 0 24 24" xmlns="http://www.w3.org/2000/svg">
<path fill-rule="evenodd" clip-rule="evenodd" d="M5 3L6 4L8 3L10 4L12 3L14 4L16 3L18 4L19 3V21L18 20L16 21L14 20L12 21L10 20L8 21L6 20L5 21V3Z"  stroke="var(--icon-color, #FFFFFF)" stroke-width="2" stroke-linecap="round" stroke-linejoin="round"/>
<path opacity="0.76" fill-rule="evenodd" clip-rule="evenodd" d="M7 8.5C7 8.22386 7.21506 8 7.49048 8H10.5095C10.7804 8 11 8.23193 11 8.5C11 8.77614 10.7849 9 10.5095 9H7.49048C7.21959 9 7 8.76807 7 8.5ZM7 10.5C7 10.2239 7.22788 10 7.491 10H12.509C12.7802 10 13 10.2319 13 10.5C13 10.7761 12.7721 11 12.509 11H7.491C7.21983 11 7 10.7681 7 10.5ZM7 12.5C7 12.2239 7.21575 12 7.49539 12H9.50461C9.77821 12 10 12.2319 10 12.5C10 12.7761 9.78425 13 9.50461 13H7.49539C7.22179 13 7 12.7681 7 12.5ZM7 14.5C7 14.2239 7.21484 14 7.4977 14H11.5023C11.7772 14 12 14.2319 12 14.5C12 14.7761 11.7852 15 11.5023 15H7.4977C7.22283 15 7 14.7681 7 14.5ZM15 8.5C15 8.22386 15.214 8 15.5047 8H16.4953C16.774 8 17 8.23193 17 8.5C17 8.77614 16.786 9 16.4953 9H15.5047C15.226 9 15 8.76807 15 8.5ZM15 10.5C15 10.2239 15.214 10 15.5047 10H16.4953C16.774 10 17 10.2319 17 10.5C17 10.7761 16.786 11 16.4953 11H15.5047C15.226 11 15 10.7681 15 10.5ZM15 12.5C15 12.2239 15.214 12 15.5047 12H16.4953C16.774 12 17 12.2319 17 12.5C17 12.7761 16.786 13 16.4953 13H15.5047C15.226 13 15 12.7681 15 12.5ZM15 14.5C15 14.2239 15.214 14 15.5047 14H16.4953C16.774 14 17 14.2319 17 14.5C17 14.7761 16.786 15 16.4953 15H15.5047C15.226 15 15 14.7681 15 14.5Z" fill="var(--icon-color, #FFFFFF)"/>
</svg>
