<svg width="24" height="24" viewBox="0 0 24 24" xmlns="http://www.w3.org/2000/svg">
<path fill-rule="evenodd" clip-rule="evenodd" d="M20.9995 13.0313H21C20.9831 17.9875 16.9601 22 12 22C7.02944 22 3 17.9706 3 13C3 8.03983 7.0126 4.01686 11.9688 4.00005V6.00007C8.11717 6.01687 5 9.14441 5 13C5 16.866 8.13401 20 12 20C15.8556 20 18.9831 16.8829 18.9999 13.0313H19.0005C19.0002 13.0209 19 13.0105 19 13C19 12.4477 19.4477 12 20 12C20.5523 12 21 12.4477 21 13C21 13.0105 20.9998 13.0209 20.9995 13.0313ZM12 9V1L16 5L12 9Z" fill="var(--icon-color, #FFFFFF)"/>
</svg>
