<svg width="24" height="24" viewBox="0 0 24 24" xmlns="http://www.w3.org/2000/svg">
<path d="M18 16C19.1046 16 21 14.1046 21 13C21 11.8954 20.1046 12 19 12C18.6461 12 18.3137 12.0919 18.0253 12.2532"  stroke="var(--icon-color, #FFFFFF)" stroke-width="2"/>
<path d="M6.03811 12.2902C5.73549 12.106 5.38013 12 5 12C3.89543 12 3 11.8954 3 13C3 14.1046 4.89543 16 6 16"  stroke="var(--icon-color, #FFFFFF)" stroke-width="2"/>
<path fill-rule="evenodd" clip-rule="evenodd" d="M12 21C15 21 18 18.3137 18 15C18 11.6863 15.3137 9 12 9C8.68629 9 6 11.6863 6 15C6 18.3137 9 21 12 21Z"  stroke="var(--icon-color, #FFFFFF)" stroke-width="2"/>
<path d="M12 24C13.6569 24 15 22.6569 15 21C15 19.3431 13.6569 18 12 18C10.3431 18 9 19.3431 9 21C9 22.6569 10.3431 24 12 24Z" fill="var(--icon-color, #FFFFFF)"/>
<path fill-rule="evenodd" clip-rule="evenodd" d="M14 17C13.4477 17 13 16.5523 13 16C13 15.4477 13.4477 15 14 15C14.5523 15 15 15.4477 15 16C15 16.5523 14.5523 17 14 17ZM10 17C9.44772 17 9 16.5523 9 16C9 15.4477 9.44772 15 10 15C10.5523 15 11 15.4477 11 16C11 16.5523 10.5523 17 10 17Z" fill="var(--icon-color, #FFFFFF)"/>
<path d="M15 11L18.1123 9.44386C18.6025 9.19873 19 8.56212 19 7.99707V2"  stroke="var(--icon-color, #FFFFFF)" stroke-width="2" stroke-linecap="round" stroke-linejoin="round"/>
<path d="M15 3V3.99896C15 5.1041 15.8877 6 17 6H19H21C22.1046 6 23 5.1061 23 3.99512V1"  stroke="var(--icon-color, #FFFFFF)" stroke-width="2" stroke-linecap="round" stroke-linejoin="round"/>
<path d="M9 11L5.88773 9.44386C5.39745 9.19873 5 8.56212 5 7.99707V2"  stroke="var(--icon-color, #FFFFFF)" stroke-width="2" stroke-linecap="round" stroke-linejoin="round"/>
<path d="M9 3V3.99896C9 5.1041 8.11227 6 7 6H5H3C1.89543 6 1 5.1061 1 3.99512V1"  stroke="var(--icon-color, #FFFFFF)" stroke-width="2" stroke-linecap="round" stroke-linejoin="round"/>
</svg>
