<svg width="24" height="24" viewBox="0 0 24 24" xmlns="http://www.w3.org/2000/svg">
<path d="M16.5547 9.83205C15.8901 10.2751 15 9.7987 15 9V5C15 4.20131 15.8901 3.72492 16.5547 4.16795L19.5547 6.16795C20.1484 6.56377 20.1484 7.43623 19.5547 7.83205L16.5547 9.83205Z" fill="var(--icon-color, #FFFFFF)"/>
<path d="M7.4453 19.8321L4.4453 17.8321C3.85157 17.4362 3.85157 16.5638 4.4453 16.168L7.4453 14.168C8.10985 13.7249 9 14.2013 9 15V19C9 19.7987 8.10985 20.2751 7.4453 19.8321Z" fill="var(--icon-color, #FFFFFF)"/>
<path d="M21 12C21 14.7614 18.7662 17 16.005 17H7M3 12C3 9.23858 5.23533 7 7.99367 7H18L3 12Z"  stroke="var(--icon-color, #FFFFFF)" stroke-width="2" stroke-linecap="round"/>
</svg>
