<svg width="24" height="24" viewBox="0 0 24 24" xmlns="http://www.w3.org/2000/svg">
<path d="M9 6.00001L4 11.0296L9 16V11.9996H15C18 11.9996 19 13.9584 19 17C21 13.9584 19 10 15 10H9V6.00001ZM11 8.00001H15C20.5008 8.00001 23.5952 13.6518 20.6711 18.0988C19.5803 19.7577 17 18.9854 17 17C17 14.6642 16.5225 13.9996 15 13.9996H11V16C11 17.779 8.85163 18.6726 7.58999 17.4184L2.58999 12.448C1.80662 11.6693 1.80287 10.4029 2.58162 9.61959L7.58162 4.58998C8.83983 3.32432 11 4.21536 11 6.00001V8.00001Z" fill="var(--icon-color, #FFFFFF)"/>
</svg>
