<svg width="24" height="24" viewBox="0 0 24 24" xmlns="http://www.w3.org/2000/svg">
<path d="M7 5.00002L1 11L7 17"  stroke="var(--icon-color, #FFFFFF)" stroke-width="2" stroke-linecap="round" stroke-linejoin="round"/>
<path d="M12 6.00001L7 11.0296L12 16V11.9996H17C20 11.9996 21 13.9584 21 17C23 13.9584 21 10 17 10H12V6.00001ZM14 8.00001H17C22.5008 8.00001 25.5952 13.6518 22.6711 18.0988C21.5803 19.7577 19 18.9854 19 17C19 14.6642 18.5225 13.9996 17 13.9996H14V16C14 17.779 11.8516 18.6726 10.59 17.4184L5.58999 12.448C4.80662 11.6693 4.80287 10.4029 5.58162 9.61959L10.5816 4.58998C11.8398 3.32432 14 4.21536 14 6.00001V8.00001Z" fill="var(--icon-color, #FFFFFF)"/>
</svg>
