<svg width="24" height="24" viewBox="0 0 24 24" xmlns="http://www.w3.org/2000/svg">
<g clip-path="url(#clip0)">
<path fill-rule="evenodd" clip-rule="evenodd" d="M10 7.00686C10 6.45079 10.2131 5.61635 10.482 5.13237L12.018 2.36766C12.2842 1.88847 12.7131 1.88368 12.982 2.36766L14.518 5.13237C14.7842 5.61156 15 6.44996 15 7.00686V20H10V7.00686Z"  stroke="var(--icon-color, #FFFFFF)" stroke-width="2" stroke-linejoin="round"/>
<path d="M10 20H15V18H10V20Z" fill="var(--icon-color, #FFFFFF)"/>
<path d="M15 19H21V17H15V19Z" fill="var(--icon-color, #FFFFFF)"/>
<path fill-rule="evenodd" clip-rule="evenodd" d="M15 8.00002C15 12 21 13 21 18C21 18.5 21 19 21 19H15C15 19 15 9.00002 15 8.00002Z" fill="var(--icon-color, #FFFFFF)" fill-opacity="0.2"  stroke="var(--icon-color, #FFFFFF)" stroke-width="2" stroke-linejoin="round"/>
<path d="M4 19H10V17H4V19Z" fill="var(--icon-color, #FFFFFF)"/>
<path fill-rule="evenodd" clip-rule="evenodd" d="M10 8.00002C10 12 4 13 4 18C4 18.5 4 19 4 19H10C10 19 10 9.00002 10 8.00002Z" fill="var(--icon-color, #FFFFFF)" fill-opacity="0.2"  stroke="var(--icon-color, #FFFFFF)" stroke-width="2" stroke-linejoin="round"/>
<path fill-rule="evenodd" clip-rule="evenodd" d="M12.5 8.00002C12.2239 8.00002 12 7.77616 12 7.50002C12 7.22387 12.2239 7.00002 12.5 7.00002C12.7761 7.00002 13 7.22387 13 7.50002C13 7.77616 12.7761 8.00002 12.5 8.00002ZM12.5 10C12.2239 10 12 9.77616 12 9.50002C12 9.22387 12.2239 9.00002 12.5 9.00002C12.7761 9.00002 13 9.22387 13 9.50002C13 9.77616 12.7761 10 12.5 10ZM12.5 12C12.2239 12 12 11.7762 12 11.5C12 11.2239 12.2239 11 12.5 11C12.7761 11 13 11.2239 13 11.5C13 11.7762 12.7761 12 12.5 12Z" fill="var(--icon-color, #FFFFFF)"/>
<path opacity="0.5" fill-rule="evenodd" clip-rule="evenodd" d="M11 20H14L13.5 24H11.5L11 20Z" fill="var(--icon-color, #FFFFFF)"url(#paint0_linear)"/>
</g>
<defs>
<linearGradient id="paint0_linear" x1="12.5" y1="20" x2="12.5" y2="23.9914" gradientUnits="userSpaceOnUse">
<stop stop-color="#333333"/>
<stop offset="1" stop-color="#333333" stop-opacity="0"/>
</linearGradient>
<clipPath id="clip0">
<rect width="24" height="24" fill="var(--icon-color, #FFFFFF)"/>
</clipPath>
</defs>
</svg>
