<svg width="24" height="24" viewBox="0 0 24 24" xmlns="http://www.w3.org/2000/svg">
<path d="M19 15H5C3.89543 15 3 15.8954 3 17V18C3 19.1046 3.89543 20 5 20H19C20.1046 20 21 19.1046 21 18V17C21 15.8954 20.1046 15 19 15Z"  stroke="var(--icon-color, #FFFFFF)" stroke-width="2"/>
<path fill-rule="evenodd" clip-rule="evenodd" d="M6 15C6 15 6.5 4.99998 12 3.49998C17.5 1.99998 19 7.49998 19 7.49998C19 7.49998 15 6.49998 15 9.49998C15 12.5 18 15 18 15H6Z"  stroke="var(--icon-color, #FFFFFF)" stroke-width="2" stroke-linecap="round" stroke-linejoin="round"/>
<path d="M20.5 12C21.8807 12 23 10.8807 23 9.49998C23 8.11927 21.8807 6.99998 20.5 6.99998C19.1193 6.99998 18 8.11927 18 9.49998C18 10.8807 19.1193 12 20.5 12Z"  stroke="var(--icon-color, #FFFFFF)" stroke-width="2"/>
</svg>
