<svg width="24" height="24" viewBox="0 0 24 24" xmlns="http://www.w3.org/2000/svg">
<path fill-rule="evenodd" clip-rule="evenodd" d="M3 4.99509C3 3.89323 3.89706 3 5.00586 3H15.9932C16.5492 3 17.3139 3.31387 17.7059 3.70591L20.2941 6.29409C20.684 6.68395 21 7.44995 21 8.00685V18.9941C21 20.1019 20.1074 21 19.0049 21H4.99509C3.89323 21 3 20.1074 3 19.0049V4.99509Z"  stroke="var(--icon-color, #FFFFFF)" stroke-width="2" stroke-linecap="round" stroke-linejoin="round"/>
<path fill-rule="evenodd" clip-rule="evenodd" d="M7 15.0029C7 14.449 7.45566 14 7.9954 14H16.0046C16.5543 14 17 14.4379 17 15.0029V21H7V15.0029Z"  stroke="var(--icon-color, #FFFFFF)" stroke-width="2"/>
<path opacity="0.5" fill-rule="evenodd" clip-rule="evenodd" d="M9 16H15V17H9V16ZM9 18H15V19H9V18Z" fill="var(--icon-color, #FFFFFF)"/>
<path d="M13 5H12V7H13V5Z" fill="var(--icon-color, #FFFFFF)"/>
<path d="M9 4H7V9H9V4Z" fill="var(--icon-color, #FFFFFF)"/>
<path d="M14 3H8C7.44772 3 7 3.44772 7 4V8C7 8.55228 7.44772 9 8 9H14C14.5523 9 15 8.55228 15 8V4C15 3.44772 14.5523 3 14 3Z"  stroke="var(--icon-color, #FFFFFF)" stroke-width="2"/>
</svg>
