<svg width="24" height="24" viewBox="0 0 24 24" xmlns="http://www.w3.org/2000/svg">
<path fill-rule="evenodd" clip-rule="evenodd" d="M5 19C7.20914 19 9 17.2091 9 15C7.5 15 2 15 1 15C1 17.2091 2.79086 19 5 19Z" fill="var(--icon-color, #FFFFFF)"/>
<path fill-rule="evenodd" clip-rule="evenodd" d="M19 15C21.2091 15 23 13.2091 23 11C21.5 11 16 11 15 11C15 13.2091 16.7909 15 19 15Z" fill="var(--icon-color, #FFFFFF)"/>
<path d="M14 4C14 2.89543 13.1046 2 12 2C10.8954 2 10 2.89543 10 4C10 5.10457 10.8954 6 12 6C13.1046 6 14 5.10457 14 4Z"  stroke="var(--icon-color, #FFFFFF)" stroke-width="2"/>
<path d="M14.0447 3.4158L19 2M5 6L10.004 4.57028L5 6Z"  stroke="var(--icon-color, #FFFFFF)" stroke-width="2" stroke-linecap="round"/>
<path d="M12 6V21"  stroke="var(--icon-color, #FFFFFF)" stroke-width="2"/>
<path d="M8.5 15L5 6L1.5 15"  stroke="var(--icon-color, #FFFFFF)" stroke-linecap="round" stroke-linejoin="round"/>
<path d="M22.5 11L19 2L15.5 11"  stroke="var(--icon-color, #FFFFFF)" stroke-linecap="round" stroke-linejoin="round"/>
<path fill-rule="evenodd" clip-rule="evenodd" d="M4 22C4 21.4477 4.44372 21 4.99981 21H9C9 20.4477 9.45517 20 9.99999 20H14.0558C14.6081 20 15.0558 20.4532 15.0558 21H18.9995C19.552 21 20 21.4439 20 22V23H4V22Z" fill="var(--icon-color, #FFFFFF)"/>
</svg>
