<svg width="24" height="24" viewBox="0 0 24 24" xmlns="http://www.w3.org/2000/svg">
<path d="M16 5H19C20.6568 5 21.8329 6.33663 21.6285 7.97198L20.3715 18.028C20.1663 19.6694 18.6634 21 16.9905 21H7.00947C5.34738 21 3.83291 19.6634 3.62849 18.028L2.37148 7.97198C2.16631 6.3306 3.33993 5 5.0011 5H8.03759"  stroke="var(--icon-color, #FFFFFF)" stroke-width="2"/>
<path d="M12 7C12.5523 7 13 6.55228 13 6C13 5.44772 12.5523 5 12 5C11.4477 5 11 5.44772 11 6C11 6.55228 11.4477 7 12 7Z" fill="var(--icon-color, #FFFFFF)"/>
<path fill-rule="evenodd" clip-rule="evenodd" d="M12 8C14.2091 8 16 8.20914 16 6C16 3.79086 14.2091 2 12 2C9.79086 2 8 3.79086 8 6C8 8.20914 9.79086 8 12 8Z"  stroke="var(--icon-color, #FFFFFF)" stroke-width="2"/>
<path fill-rule="evenodd" clip-rule="evenodd" d="M12 5L10 4L11 6L12 5Z" fill="var(--icon-color, #FFFFFF)"/>
<path opacity="0.2" fill-rule="evenodd" clip-rule="evenodd" d="M6.08033 13.2356C5.77558 12.169 6.36386 11.0005 7.40593 10.6216L8.7279 10.1409C9.9985 9.67883 10.9682 10.3899 10.8932 11.7398L10.6122 16.7979C10.566 17.6298 9.86273 18.3043 9.02853 18.3043C8.2001 18.3043 7.34396 17.6583 7.11413 16.8539L6.08033 13.2356ZM17.806 13.2356L16.7722 16.8539C16.5423 17.6583 15.6862 18.3043 14.8578 18.3043C14.0236 18.3043 13.3203 17.6298 13.2741 16.7979L12.9931 11.7398C12.9181 10.3899 13.8878 9.67883 15.1584 10.1409L16.4804 10.6216C17.5224 11.0005 18.1107 12.169 17.806 13.2356Z" fill="var(--icon-color, #FFFFFF)"/>
</svg>
