<svg width="24" height="24" viewBox="0 0 24 24" xmlns="http://www.w3.org/2000/svg">
<path d="M12 9C16.9706 9 21 7.65685 21 6C21 4.34315 16.9706 3 12 3C7.02944 3 3 4.34315 3 6C3 7.65685 7.02944 9 12 9Z"  stroke="var(--icon-color, #FFFFFF)" stroke-width="2"/>
<path d="M3 10.5C3 12.1569 7.02944 13.5 12 13.5C16.9706 13.5 21 12.1569 21 10.5"  stroke="var(--icon-color, #FFFFFF)"/>
<path d="M3 14.5C3 16.1569 7.02944 17.5 12 17.5C16.9706 17.5 21 16.1569 21 14.5"  stroke="var(--icon-color, #FFFFFF)"/>
<path d="M3 5.98959V19C3 20.6569 7.02944 22 12 22C16.9706 22 21 20.6569 21 19V5.98959"  stroke="var(--icon-color, #FFFFFF)" stroke-width="2"/>
<path fill-rule="evenodd" clip-rule="evenodd" d="M18.5 11C18.2239 11 18 10.7761 18 10.5C18 10.2239 18.2239 10 18.5 10C18.7761 10 19 10.2239 19 10.5C19 10.7761 18.7761 11 18.5 11ZM18.5 15C18.2239 15 18 14.7761 18 14.5C18 14.2239 18.2239 14 18.5 14C18.7761 14 19 14.2239 19 14.5C19 14.7761 18.7761 15 18.5 15ZM18.5 19C18.2239 19 18 18.7761 18 18.5C18 18.2239 18.2239 18 18.5 18C18.7761 18 19 18.2239 19 18.5C19 18.7761 18.7761 19 18.5 19Z" fill="var(--icon-color, #FFFFFF)"/>
</svg>
