<svg width="24" height="24" viewBox="0 0 24 24" xmlns="http://www.w3.org/2000/svg">
<path fill-rule="evenodd" clip-rule="evenodd" d="M7.20852 4.3801C8.05442 3.84707 8.99529 3.451 10 3.22302V1.99981C10 1.44763 10.4434 1 11.0094 1H12.9906C13.5481 1 14 1.44372 14 1.99981V3.22302C15.0047 3.451 15.9456 3.84707 16.7915 4.3801L17.657 3.51458C18.0474 3.12413 18.6775 3.12111 19.0777 3.52134L20.4787 4.92231C20.8728 5.31649 20.8786 5.94979 20.4854 6.34301L19.6199 7.20852C20.1529 8.05442 20.549 8.99529 20.777 10H22.0002C22.5524 10 23 10.4434 23 11.0094V12.9906C23 13.5481 22.5563 14 22.0002 14H20.777C20.549 15.0047 20.1529 15.9456 19.6199 16.7915L20.4854 17.657C20.8759 18.0474 20.8789 18.6775 20.4787 19.0777L19.0777 20.4787C18.6835 20.8728 18.0502 20.8786 17.657 20.4854L16.7915 19.6199C15.9456 20.1529 15.0047 20.549 14 20.777V22.0002C14 22.5524 13.5566 23 12.9906 23H11.0094C10.4519 23 10 22.5563 10 22.0002V20.777C8.99529 20.549 8.05442 20.1529 7.20852 19.6199L6.34301 20.4854C5.95256 20.8759 5.32254 20.8789 4.92231 20.4787L3.52134 19.0777C3.12716 18.6835 3.12137 18.0502 3.51458 17.657L4.3801 16.7915C3.84707 15.9456 3.451 15.0047 3.22302 14H1.99981C1.44763 14 1 13.5566 1 12.9906V11.0094C1 10.4519 1.44372 10 1.99981 10H3.22302C3.451 8.99529 3.84707 8.05442 4.3801 7.20852L3.51458 6.34301C3.12413 5.95256 3.12111 5.32254 3.52134 4.92231L4.92231 3.52134C5.31649 3.12716 5.94979 3.12137 6.34301 3.51458L7.20852 4.3801ZM12 16C14.2091 16 16 14.2091 16 12C16 9.79086 14.2091 8 12 8C9.79086 8 8 9.79086 8 12C8 14.2091 9.79086 16 12 16Z"  stroke="var(--icon-color, #FFFFFF)" stroke-width="2" stroke-linejoin="round" fill="transparent" />
</svg>
