<svg width="24" height="24" viewBox="0 0 24 24" xmlns="http://www.w3.org/2000/svg">
<path d="M2 7C2 7 3 7 4 7C10 7 12 17 18.0069 17H20"  stroke="var(--icon-color, #FFFFFF)" stroke-width="2" stroke-linecap="round"/>
<path d="M2 17C2 17 2.99833 17 4 17C10 17 12.0069 7 18.0069 7H21"  stroke="var(--icon-color, #FFFFFF)" stroke-width="2" stroke-linecap="round"/>
<path d="M19.5547 9.83205C18.8901 10.2751 18 9.7987 18 9V5C18 4.20131 18.8901 3.72492 19.5547 4.16795L22.5547 6.16795C23.1484 6.56377 23.1484 7.43623 22.5547 7.83205L19.5547 9.83205Z" fill="var(--icon-color, #FFFFFF)"/>
<path d="M19.5547 19.8321C18.8901 20.2751 18 19.7987 18 19V15C18 14.2013 18.8901 13.7249 19.5547 14.168L22.5547 16.168C23.1484 16.5638 23.1484 17.4362 22.5547 17.8321L19.5547 19.8321Z" fill="var(--icon-color, #FFFFFF)"/>
</svg>
