<svg width="24" height="24" viewBox="0 0 24 24" xmlns="http://www.w3.org/2000/svg">
<path d="M20 4H4C2.89543 4 2 4.89543 2 6V18C2 19.1046 2.89543 20 4 20H20C21.1046 20 22 19.1046 22 18V6C22 4.89543 21.1046 4 20 4Z"  stroke="var(--icon-color, #FFFFFF)" stroke-width="2"/>
<path d="M11 4H9V20H11V4Z" fill="var(--icon-color, #FFFFFF)"/>
<path opacity="0.5" fill-rule="evenodd" clip-rule="evenodd" d="M4 7H8V8H4V7ZM4 10H8V11H4V10ZM4 13H8V14H4V13ZM4 16H8V17H4V16Z" fill="var(--icon-color, #FFFFFF)"/>
</svg>
