<svg width="24" height="24" viewBox="0 0 24 24" xmlns="http://www.w3.org/2000/svg">
<path fill-rule="evenodd" clip-rule="evenodd" d="M5 18.4429C2.94418 16.5266 2 14.6424 2 12C2 6.47715 6.47715 2 12 2C17.5228 2 22 6.47715 22 12C22 14.6305 21.0513 16.5194 19 18.4413V19.9906C19 21.1001 18.1053 22 16.9975 22H7.00247C5.90061 22 5 21.0975 5 19.9906V18.4429Z"  stroke="var(--icon-color, #FFFFFF)" stroke-width="2" stroke-linecap="round" stroke-linejoin="round"/>
<path d="M11.1056 14.5528C11.4741 13.8157 12.5259 13.8157 12.8944 14.5528L13.8944 16.5528C14.2269 17.2177 13.7434 18 13 18H11C10.2566 18 9.77313 17.2177 10.1056 16.5528L11.1056 14.5528Z" fill="var(--icon-color, #FFFFFF)"/>
<path fill-rule="evenodd" clip-rule="evenodd" d="M8 20.0094C8 19.4519 8.44386 19 9 19C9.55228 19 10 19.4434 10 20.0094V21.9906C10 22.5481 9.55614 23 9 23C8.44772 23 8 22.5566 8 21.9906V20.0094ZM11 20.0094C11 19.4519 11.4439 19 12 19C12.5523 19 13 19.4434 13 20.0094V21.9906C13 22.5481 12.5561 23 12 23C11.4477 23 11 22.5566 11 21.9906V20.0094ZM14 20.0094C14 19.4519 14.4439 19 15 19C15.5523 19 16 19.4434 16 20.0094V21.9906C16 22.5481 15.5561 23 15 23C14.4477 23 14 22.5566 14 21.9906V20.0094Z" fill="var(--icon-color, #FFFFFF)"/>
<path fill-rule="evenodd" clip-rule="evenodd" d="M17 14C17.5523 14 18 13.5523 18 13C18 12.4477 17.5523 12 17 12C16.4477 12 16 12.4477 16 13C16 13.5523 16.4477 14 17 14ZM7 14C7.55228 14 8 13.5523 8 13C8 12.4477 7.55228 12 7 12C6.44772 12 6 12.4477 6 13C6 13.5523 6.44772 14 7 14Z"  stroke="var(--icon-color, #FFFFFF)" stroke-width="2"/>
</svg>
