<svg width="24" height="24" viewBox="0 0 24 24" xmlns="http://www.w3.org/2000/svg">
<path fill-rule="evenodd" clip-rule="evenodd" d="M11.8738 21C11.9254 21 11.976 20.9985 12.0266 20.996H12.0267C12.059 20.9986 12.0928 21 12.1265 21C13.3114 21 14.0719 20.4559 14.8072 19.9296C15.315 19.5665 15.7942 19.2237 16.3588 19.1285C16.6343 19.0824 16.9084 19.0589 17.1734 19.0589C17.6508 19.0589 18.0275 19.1335 18.3025 19.188C18.4695 19.221 18.6137 19.2495 18.7232 19.2495C18.8377 19.2495 18.9617 19.2244 19.0156 19.038C19.0624 18.8766 19.0963 18.7202 19.1289 18.5689C19.2129 18.1795 19.2725 17.94 19.4337 17.915C21.3129 17.6212 21.8508 17.2206 21.9707 16.9364C21.9877 16.8957 21.9973 16.855 21.9997 16.8147C22.0057 16.7055 21.9293 16.6091 21.8227 16.5915C18.9339 16.11 17.6385 13.1217 17.5847 12.9948C17.5832 12.9913 17.5817 12.9879 17.5801 12.9844C17.4033 12.6217 17.3687 12.3069 17.4768 12.0489C17.6751 11.5761 18.3216 11.3682 18.7496 11.2308C18.8543 11.1973 18.9536 11.1656 19.0319 11.1343C19.886 10.7925 19.957 10.4418 19.9235 10.263C19.8662 9.95838 19.464 9.7461 19.1387 9.7461C19.0496 9.7461 18.971 9.76212 18.905 9.7933C18.5208 9.97549 18.1745 10.0678 17.8758 10.0678C17.463 10.0678 17.2828 9.89217 17.2608 9.86915C17.2713 9.67128 17.2843 9.46463 17.2976 9.25137C17.3836 7.86906 17.4902 6.15142 17.0582 5.17098C15.7631 2.23209 13.0169 2.00379 12.2061 2.00379C12.1853 2.00379 11.8506 2.00017 11.8506 2.00017L11.8026 2C10.9899 2 8.23768 2.2287 6.94193 5.1692C6.50975 6.15015 6.61663 7.86923 6.70281 9.25051L6.70638 9.31057C6.71829 9.50293 6.72987 9.68988 6.73951 9.86886C6.71886 9.89016 6.55315 10.0517 6.17889 10.0662H6.17849C5.8941 10.0551 5.56721 9.96337 5.20849 9.7933C5.10337 9.74363 4.98662 9.73318 4.90714 9.73318C4.78573 9.73318 4.66268 9.75695 4.5605 9.80007L4.55432 9.80266C4.26414 9.9067 4.07409 10.1125 4.07 10.3276C4.06626 10.5302 4.21898 10.8347 4.96835 11.1343C5.04601 11.1652 5.14529 11.1971 5.25042 11.2308C5.67886 11.3684 6.32526 11.5761 6.52336 12.0488C6.63161 12.3067 6.59694 12.6213 6.42023 12.9841C6.41864 12.9876 6.41682 12.991 6.41546 12.9948C6.36174 13.1216 5.0674 16.109 2.17737 16.5911C2.07066 16.6089 1.99447 16.7051 2.00031 16.8145C2.00275 16.8554 2.01257 16.8967 2.02987 16.9368C2.14906 17.219 2.68649 17.6191 4.56635 17.9131C4.71992 17.937 4.77943 18.1395 4.87111 18.5642C4.90441 18.7188 4.93817 18.8706 4.98463 19.0303C5.02463 19.1688 5.10995 19.2337 5.25348 19.2337H5.27686C5.37648 19.2337 5.51808 19.2156 5.69752 19.18C6.01579 19.117 6.37263 19.0589 6.8266 19.0589C7.0917 19.0589 7.36606 19.0824 7.64172 19.1285C8.20569 19.2237 8.68456 19.5658 9.1914 19.9285C9.92823 20.4559 10.6886 21 11.8738 21Z"  stroke="var(--icon-color, #FFFFFF)" stroke-width="2"/>
</svg>
