<svg width="24" height="24" viewBox="0 0 24 24" xmlns="http://www.w3.org/2000/svg">
<path d="M13 9.6V7.41421L15.7071 4.70711C16.0976 4.31658 16.0976 3.68342 15.7071 3.29289C15.3166 2.90237 14.6834 2.90237 14.2929 3.29289L13 4.58579V3C13 2.44772 12.5523 2 12 2C11.4477 2 11 2.44772 11 3V4.58579L9.70711 3.29289C9.31658 2.90237 8.68342 2.90237 8.29289 3.29289C7.90237 3.68342 7.90237 4.31658 8.29289 4.70711L11 7.41421V9.6L12 9L13 9.6ZM13 14.4V16.5858L15.7071 19.2929C16.0976 19.6834 16.0976 20.3166 15.7071 20.7071C15.3166 21.0976 14.6834 21.0976 14.2929 20.7071L13 19.4142V21C13 21.5523 12.5523 22 12 22C11.4477 22 11 21.5523 11 21V19.4142L9.70711 20.7071C9.31658 21.0976 8.68342 21.0976 8.29289 20.7071C7.90237 20.3166 7.90237 19.6834 8.29289 19.2929L11 16.5858V14.4L12 15L13 14.4Z" fill="var(--icon-color, #FFFFFF)"/>
<path d="M10.4326 9.9404L8.52857 8.84108L7.5377 5.14311C7.39476 4.60964 6.84642 4.29306 6.31295 4.436C5.77949 4.57894 5.4629 5.12728 5.60585 5.66074L6.07908 7.42687L4.70575 6.63398C4.22745 6.35783 3.61586 6.52171 3.33972 7C3.06358 7.47829 3.22745 8.08989 3.70575 8.36603L5.07908 9.15892L3.31295 9.63215C2.77949 9.77509 2.4629 10.3234 2.60585 10.8569C2.74879 11.3904 3.29713 11.7069 3.83059 11.564L7.52857 10.5731L9.49998 11.7113L9.49998 10.5L10.4326 9.9404ZM14.5 12.2887L16.4714 13.4269L20.1694 12.436C20.7028 12.2931 21.2512 12.6096 21.3941 13.1431C21.537 13.6766 21.2205 14.2249 20.687 14.3679L18.9209 14.8411L20.2942 15.634C20.7725 15.9101 20.9364 16.5217 20.6602 17C20.3841 17.4783 19.7725 17.6422 19.2942 17.366L17.9209 16.5731L18.3941 18.3393C18.537 18.8727 18.2205 19.4211 17.687 19.564C17.1535 19.7069 16.6052 19.3904 16.4623 18.8569L15.4714 15.1589L13.5673 14.0596L14.5 13.5L14.5 12.2887Z" fill="var(--icon-color, #FFFFFF)"/>
<path d="M9.49998 12.2887L7.52857 13.4269L3.83059 12.436C3.29713 12.2931 2.74879 12.6096 2.60585 13.1431C2.4629 13.6766 2.77949 14.2249 3.31295 14.3679L5.07908 14.8411L3.70575 15.634C3.22745 15.9101 3.06358 16.5217 3.33972 17C3.61586 17.4783 4.22745 17.6422 4.70575 17.366L6.07908 16.5731L5.60585 18.3393C5.46291 18.8727 5.77949 19.4211 6.31295 19.564C6.84642 19.7069 7.39476 19.3904 7.5377 18.8569L8.52857 15.1589L10.4326 14.0596L9.49998 13.5L9.49998 12.2887ZM13.5673 9.9404L15.4714 8.84108L16.4623 5.14311C16.6052 4.60964 17.1535 4.29306 17.687 4.436C18.2205 4.57894 18.537 5.12728 18.3941 5.66074L17.9209 7.42687L19.2942 6.63398C19.7725 6.35783 20.3841 6.52171 20.6602 7C20.9364 7.47829 20.7725 8.08989 20.2942 8.36603L18.9209 9.15892L20.687 9.63215C21.2205 9.77509 21.537 10.3234 21.3941 10.8569C21.2512 11.3904 20.7028 11.7069 20.1694 11.564L16.4714 10.5731L14.5 11.7113L14.5 10.5L13.5673 9.9404Z" fill="var(--icon-color, #FFFFFF)"/>
<path fill-rule="evenodd" clip-rule="evenodd" d="M12 9L14.5 10.5V13.5L12 15L9.5 13.5V10.5L12 9Z"  stroke="var(--icon-color, #FFFFFF)" stroke-width="2"/>
</svg>
