<svg width="24" height="24" viewBox="0 0 24 24" xmlns="http://www.w3.org/2000/svg">
<path fill-rule="evenodd" clip-rule="evenodd" d="M10 9C11.5 10.5 14 11 14 11C14 11 11.5 11.5 10 13C8.5 14.5 8 19 8 19C8 19 7.5 14.5 6 13C4.5 11.5 2 11 2 11C2 11 4.5 10.5 6 9C7.5 7.5 8 3 8 3C8 3 8.5 7.5 10 9ZM19.6667 4.75C20.5417 5.6875 22 6 22 6C22 6 20.5417 6.3125 19.6667 7.25C18.7917 8.1875 18.5 11 18.5 11C18.5 11 18.2083 8.1875 17.3333 7.25C16.4583 6.3125 15 6 15 6C15 6 16.4583 5.6875 17.3333 4.75C18.2083 3.8125 18.5 1 18.5 1C18.5 1 18.7917 3.8125 19.6667 4.75ZM17 17C17.75 17.75 19 18 19 18C19 18 17.75 18.25 17 19C16.25 19.75 16 22 16 22C16 22 15.75 19.75 15 19C14.25 18.25 13 18 13 18C13 18 14.25 17.75 15 17C15.75 16.25 16 14 16 14C16 14 16.25 16.25 17 17Z"  stroke="var(--icon-color, #FFFFFF)" stroke-width="2" stroke-linecap="round" stroke-linejoin="round"/>
</svg>
