<svg width="24" height="24" viewBox="0 0 24 24" xmlns="http://www.w3.org/2000/svg">
<path d="M18 2H6C4.89543 2 4 2.89543 4 4V21C4 22.1046 4.89543 23 6 23H18C19.1046 23 20 22.1046 20 21V4C20 2.89543 19.1046 2 18 2Z"  stroke="var(--icon-color, #FFFFFF)" stroke-width="2"/>
<path d="M12 20C14.2091 20 16 18.2091 16 16C16 13.7909 14.2091 12 12 12C9.79086 12 8 13.7909 8 16C8 18.2091 9.79086 20 12 20Z"  stroke="var(--icon-color, #FFFFFF)" stroke-width="2"/>
<path d="M12 17C12.5523 17 13 16.5523 13 16C13 15.4477 12.5523 15 12 15C11.4477 15 11 15.4477 11 16C11 16.5523 11.4477 17 12 17Z" fill="var(--icon-color, #FFFFFF)"/>
<path d="M12 9C13.1046 9 14 8.10457 14 7C14 5.89543 13.1046 5 12 5C10.8954 5 10 5.89543 10 7C10 8.10457 10.8954 9 12 9Z"  stroke="var(--icon-color, #FFFFFF)" stroke-width="2"/>
</svg>
