<svg width="24" height="24" viewBox="0 0 24 24" xmlns="http://www.w3.org/2000/svg">
<path fill-rule="evenodd" clip-rule="evenodd" d="M3 3V2.00246C3 1.44882 3.44495 1 3.9934 1H5C5 1.55228 5.44772 2 6 2C6.55228 2 7 1.55228 7 1H9C9 1.55228 9.44772 2 10 2C10.5523 2 11 1.55228 11 1H13C13 1.55228 13.4477 2 14 2C14.5523 2 15 1.55228 15 1H17C17 1.55228 17.4477 2 18 2C18.5523 2 19 1.55228 19 1H20.0066C20.5552 1 21 1.43946 21 2.00246V3C20.4477 3 20 3.44772 20 4C20 4.55228 20.4477 5 21 5V7C20.4477 7 20 7.44772 20 8C20 8.55228 20.4477 9 21 9V11C20.4477 11 20 11.4477 20 12C20 12.5523 20.4477 13 21 13V15C20.4477 15 20 15.4477 20 16C20 16.5523 20.4477 17 21 17V19C20.4477 19 20 19.4477 20 20C20 20.5523 20.4477 21 21 21V21.9975C21 22.5512 20.5551 23 20.0066 23H19C19 22.4477 18.5523 22 18 22C17.4477 22 17 22.4477 17 23H15C15 22.4477 14.5523 22 14 22C13.4477 22 13 22.4477 13 23H11C11 22.4477 10.5523 22 10 22C9.44772 22 9 22.4477 9 23H7C7 22.4477 6.55228 22 6 22C5.44772 22 5 22.4477 5 23H3.9934C3.44476 23 3 22.5605 3 21.9975V21C3.55228 21 4 20.5523 4 20C4 19.4477 3.55228 19 3 19V17C3.55228 17 4 16.5523 4 16C4 15.4477 3.55228 15 3 15V13C3.55228 13 4 12.5523 4 12C4 11.4477 3.55228 11 3 11V9C3.55228 9 4 8.55228 4 8C4 7.44772 3.55228 7 3 7V5C3.55228 5 4 4.55228 4 4C4 3.44772 3.55228 3 3 3ZM6 5.00087V18.9991C6 19.5554 6.44882 20 7.00247 20H16.9975C17.5442 20 18 19.5519 18 18.9991V5.00087C18 4.44463 17.5512 4 16.9975 4H7.00247C6.45576 4 6 4.44811 6 5.00087Z" fill="var(--icon-color, #FFFFFF)"/>
<path d="M16 6H8V18H16V6Z" fill="var(--icon-color, #FFFFFF)"url(#paint0_linear)"/>
<defs>
<linearGradient id="paint0_linear" x1="8" y1="18" x2="19.0769" y2="10.6154" gradientUnits="userSpaceOnUse">
<stop stop-color="#333333" stop-opacity="0"/>
<stop offset="1" stop-color="#333333" stop-opacity="0.247481"/>
</linearGradient>
</defs>
</svg>
