<svg width="24" height="24" viewBox="0 0 24 24" xmlns="http://www.w3.org/2000/svg">
<path d="M17.0007 6H9.00073V12.7352L5.94274 14.57C4.04842 15.7066 3.43416 18.1637 4.57076 20.058C5.70735 21.9523 8.16439 22.5666 10.0587 21.43L15.0587 18.43C16.2635 17.7071 17.0007 16.4051 17.0007 15V6Z"  stroke="var(--icon-color, #FFFFFF)" stroke-width="2"/>
<path opacity="0.5" d="M16.6289 13.186C16.2747 13.0654 15.895 13 15.5 13C13.567 13 12 14.567 12 16.5C12 17.6443 12.5492 18.6604 13.3983 19.299"  stroke="var(--icon-color, #FFFFFF)" stroke-width="2"/>
<path d="M17 2H9C7.89543 2 7 2.89543 7 4C7 5.10457 7.89543 6 9 6H17C18.1046 6 19 5.10457 19 4C19 2.89543 18.1046 2 17 2Z"  stroke="var(--icon-color, #FFFFFF)" stroke-width="2"/>
</svg>
