<svg width="24" height="24" viewBox="0 0 24 24" xmlns="http://www.w3.org/2000/svg">
<path d="M4 15V19.016C4 20.1232 4.89451 21.0196 5.99406 21.0182L18.0059 21.0026C19.1072 21.0012 20 20.1017 20 19.0021V15"  stroke="var(--icon-color, #FFFFFF)" stroke-width="2" stroke-linecap="round" stroke-linejoin="round"/>
<path d="M17 9.5C17 10.8807 18.1193 12 19.5 12M4.5 12C5.88071 12 7 10.8807 7 9.5L4.5 12ZM22 9.5L20.2951 3.9591C20.1321 3.4294 19.5554 3 18.9991 3H5.00087C4.44811 3 3.86877 3.42648 3.70489 3.9591L2 9.5C2 10.8807 3.11929 12 4.5 12L22 9.5ZM9.5 12C10.8807 12 12 10.8807 12 9.5L9.5 12ZM7 9.5C7 10.8807 8.11929 12 9.5 12L7 9.5ZM14.5 12C15.8807 12 17 10.8807 17 9.5L14.5 12ZM12 9.5C12 10.8807 13.1193 12 14.5 12L12 9.5ZM19.5 12C20.8807 12 22 10.8807 22 9.5L19.5 12Z"  stroke="var(--icon-color, #FFFFFF)" stroke-width="2" stroke-linecap="round"/>
</svg>
