<svg width="24" height="24" viewBox="0 0 24 24" xmlns="http://www.w3.org/2000/svg">
<path fill-rule="evenodd" clip-rule="evenodd" d="M4 13L6 22H18L20 13H4Z"  stroke="var(--icon-color, #FFFFFF)" stroke-width="2" stroke-linecap="round" stroke-linejoin="round"/>
<path d="M9.00001 13C5.00001 7 12 4 12 4C12 4 19 7 15 13"  stroke="var(--icon-color, #FFFFFF)" stroke-width="2" stroke-linejoin="round"/>
<path d="M16 8.00018C16.1154 4.92287 20.5 5.00018 20.5 5.00018C20.5 5.00018 23 9.00018 18 13.0002"  stroke="var(--icon-color, #FFFFFF)" stroke-width="2" stroke-linejoin="round"/>
<path d="M8.125 8.00018C8.00959 4.92287 3.625 5.00018 3.625 5.00018C3.625 5.00018 1.125 9.00018 6.125 13.0002"  stroke="var(--icon-color, #FFFFFF)" stroke-width="2" stroke-linejoin="round"/>
<path d="M6 5.5C6 4 8 3 8 3C8 3 10 4 10 5.5"  stroke="var(--icon-color, #FFFFFF)" stroke-width="2"/>
<path d="M14 5.5C14 4 16 3 16 3C16 3 18 4 18 5.5"  stroke="var(--icon-color, #FFFFFF)" stroke-width="2"/>
</svg>
