<svg width="24" height="24" viewBox="0 0 24 24" xmlns="http://www.w3.org/2000/svg">
<path fill-rule="evenodd" clip-rule="evenodd" d="M3.07787 10.8108C3.6598 6.40233 7.43257 3 12 3C14.7398 3 17.1937 4.22427 18.8444 6.15559L21 4V10H15L17.4246 7.57542C16.1409 6.00356 14.1877 5 12 5C8.47353 5 5.55612 7.60771 5.07089 11H5.06C5.06 11.5523 4.61228 12 4.06 12C3.50771 12 3.06 11.5523 3.06 11H3.05493C3.05714 10.98 3.05942 10.9599 3.06177 10.9399C3.06437 10.8961 3.0698 10.853 3.07787 10.8108ZM20.9221 13.1892C20.3402 17.5977 16.5674 21 12 21C9.26018 21 6.80631 19.7757 5.15559 17.8444L3 20V14H9L6.57542 16.4246C7.85905 17.9964 9.81233 19 12 19C15.5265 19 18.4439 16.3923 18.9291 13H18.94C18.94 12.4477 19.3877 12 19.94 12C20.4923 12 20.94 12.4477 20.94 13H20.9451C20.9429 13.02 20.9406 13.0401 20.9382 13.0601C20.9356 13.1039 20.9302 13.147 20.9221 13.1892Z" fill="var(--icon-color, #FFFFFF)"/>
</svg>
