<svg width="24" height="24" viewBox="0 0 24 24" xmlns="http://www.w3.org/2000/svg">
<path d="M15 7H5C3.89543 7 3 7.89543 3 9V19C3 20.1046 3.89543 21 5 21H15C16.1046 21 17 20.1046 17 19V9C17 7.89543 16.1046 7 15 7Z"  stroke="var(--icon-color, #FFFFFF)" stroke-width="2"/>
<path d="M6.1723 4C6.58585 2.83446 7.69793 2 9.00585 2H18.9941C20.6545 2 22 3.34504 22 5.00586V14.9941C22 16.3018 21.1657 17.4141 20 17.8277V5.1735C20 4.52473 19.4751 4 18.8265 4H6.1723Z" fill="var(--icon-color, #FFFFFF)"/>
</svg>
