<svg width="24" height="24" viewBox="0 0 24 24" xmlns="http://www.w3.org/2000/svg">
<path fill-rule="evenodd" clip-rule="evenodd" d="M12 11C9.79086 11 8 9.20914 8 7C8 4.79086 9.79086 3 12 3C14.2091 3 16 4.79086 16 7C16 9.20914 14.2091 11 12 11ZM6 21C3.79086 21 2 19.2091 2 17C2 14.7909 3.79086 13 6 13C8.20914 13 10 14.7909 10 17C10 19.2091 8.20914 21 6 21ZM18 21C15.7909 21 14 19.2091 14 17C14 14.7909 15.7909 13 18 13C20.2091 13 22 14.7909 22 17C22 19.2091 20.2091 21 18 21Z"  stroke="var(--icon-color, #FFFFFF)" stroke-width="2"/>
</svg>
