<svg width="24" height="24" viewBox="0 0 24 24" xmlns="http://www.w3.org/2000/svg">
<path d="M20 4H4C2.89543 4 2 4.89543 2 6V18C2 19.1046 2.89543 20 4 20H20C21.1046 20 22 19.1046 22 18V6C22 4.89543 21.1046 4 20 4Z"  stroke="var(--icon-color, #FFFFFF)" stroke-width="2"/>
<path d="M6 8L8 10L6 12"  stroke="var(--icon-color, #FFFFFF)" stroke-width="2" stroke-linecap="round" stroke-linejoin="round"/>
<path d="M15 11H11C10.4477 11 10 11.4477 10 12C10 12.5523 10.4477 13 11 13H15C15.5523 13 16 12.5523 16 12C16 11.4477 15.5523 11 15 11Z" fill="var(--icon-color, #FFFFFF)"/>
</svg>
