<svg width="24" height="24" viewBox="0 0 24 24" xmlns="http://www.w3.org/2000/svg">
<path fill-rule="evenodd" clip-rule="evenodd" d="M4 5.9981C4 4.89458 4.89451 4 5.99406 4H18.0059C19.1072 4 20 4.88671 20 5.9981V12L19 14V18.9941C19 20.1019 18.1029 21 16.9941 21H7.00586C5.89805 21 5 20.1134 5 18.9941V14L4 12V5.9981Z"  stroke="var(--icon-color, #FFFFFF)" stroke-width="2" stroke-linejoin="round"/>
<path d="M13.5 17H10.5C10.2239 17 10 17.2239 10 17.5C10 17.7761 10.2239 18 10.5 18H13.5C13.7761 18 14 17.7761 14 17.5C14 17.2239 13.7761 17 13.5 17Z" fill="var(--icon-color, #FFFFFF)"/>
<path fill-rule="evenodd" clip-rule="evenodd" d="M9.5 16C8.67157 16 8 15.3284 8 14.5C8 13.6716 8.67157 13 9.5 13C10.3284 13 11 13.6716 11 14.5C11 15.3284 10.3284 16 9.5 16ZM14.5 16C13.6716 16 13 15.3284 13 14.5C13 13.6716 13.6716 13 14.5 13C15.3284 13 16 13.6716 16 14.5C16 15.3284 15.3284 16 14.5 16Z" fill="var(--icon-color, #FFFFFF)"/>
<path opacity="0.75" fill-rule="evenodd" clip-rule="evenodd" d="M12 9V8H11V9H10V8H9V9H8V8H7V9H4.49639C4.22618 9 4 9.22386 4 9.5C4 9.76807 4.22224 10 4.49639 10H7V11H8V10H9V11H10V10H11V11H12V10H14V11H15V10H16V11H17V10H19.5036C19.7738 10 20 9.77614 20 9.5C20 9.23193 19.7778 9 19.5036 9H17V8H16V9H15V8H14V9H12Z" fill="var(--icon-color, #FFFFFF)"/>
<path fill-rule="evenodd" clip-rule="evenodd" d="M3 5C3 3.89543 3.89262 3 4.99509 3H19.0049C20.1068 3 21 3.88773 21 5V7L20 6L18 8L16 6L14 8L12 6L10 8L8 6L6 8L4 6L3 7V5Z" fill="var(--icon-color, #FFFFFF)"/>
</svg>
