<svg width="24" height="24" viewBox="0 0 24 24" xmlns="http://www.w3.org/2000/svg">
<path fill-rule="evenodd" clip-rule="evenodd" d="M14 14.7578V3.50841C14 2.11542 12.8807 1 11.5 1C10.1097 1 9 2.12305 9 3.50841V14.7578C7.79401 15.565 7 16.9398 7 18.5C7 20.9853 9.01472 23 11.5 23C13.9853 23 16 20.9853 16 18.5C16 16.9398 15.206 15.565 14 14.7578Z"  stroke="var(--icon-color, #FFFFFF)" stroke-width="2"/>
<path fill-rule="evenodd" clip-rule="evenodd" d="M12 16.05V3.49639C12 3.22618 11.7761 3 11.5 3C11.2319 3 11 3.22224 11 3.49639V16.05C9.85888 16.2816 9 17.2905 9 18.5C9 19.8807 10.1193 21 11.5 21C12.8807 21 14 19.8807 14 18.5C14 17.2905 13.1411 16.2816 12 16.05Z" fill="var(--icon-color, #FFFFFF)"/>
</svg>
