<svg width="24" height="24" viewBox="0 0 24 24" xmlns="http://www.w3.org/2000/svg">
<path fill-rule="evenodd" clip-rule="evenodd" d="M14.2676 19H2.99115C1.89147 19 1 18.1029 1 16.9941V13.7324C1.5978 13.3866 2 12.7403 2 12C2 11.2597 1.5978 10.6134 1 10.2676V7.00586C1 5.89805 1.88967 5 2.99115 5H14.2676C14.6134 5.5978 15.2597 6 16 6C16.7403 6 17.3866 5.5978 17.7324 5H21.0088C22.1085 5 23 5.89706 23 7.00586V10.2676C22.4022 10.6134 22 11.2597 22 12C22 12.7403 22.4022 13.3866 23 13.7324V16.9941C23 18.1019 22.1103 19 21.0088 19H17.7324C17.3866 18.4022 16.7403 18 16 18C15.2597 18 14.6134 18.4022 14.2676 19Z"  stroke="var(--icon-color, #FFFFFF)" stroke-width="2" stroke-linejoin="round"/>
<path fill-rule="evenodd" clip-rule="evenodd" d="M15 6.99896C15 6.44725 15.4439 6 16 6C16.5523 6 17 6.44266 17 6.99896V8.00104C17 8.55275 16.5561 9 16 9C15.4477 9 15 8.55734 15 8.00104V6.99896ZM15 11.0094C15 10.4519 15.4439 10 16 10C16.5523 10 17 10.4434 17 11.0094V12.9906C17 13.5481 16.5561 14 16 14C15.4477 14 15 13.5566 15 12.9906V11.0094ZM15 15.999C15 15.4472 15.4439 15 16 15C16.5523 15 17 15.4427 17 15.999V17.001C17 17.5528 16.5561 18 16 18C15.4477 18 15 17.5573 15 17.001V15.999Z" fill="var(--icon-color, #FFFFFF)"/>
<path opacity="0.5" fill-rule="evenodd" clip-rule="evenodd" d="M4 9C4 8.44772 4.45304 8 4.99703 8H11.003C11.5536 8 12 8.44386 12 9C12 9.55228 11.547 10 11.003 10H4.99703C4.44639 10 4 9.55614 4 9ZM4 12C4 11.4477 4.44335 11 5.00937 11H6.99063C7.54809 11 8 11.4439 8 12C8 12.5523 7.55665 13 6.99063 13H5.00937C4.45191 13 4 12.5561 4 12Z" fill="var(--icon-color, #FFFFFF)"/>
<path opacity="0.2" d="M12.5 15H4.5C4.22386 15 4 15.2239 4 15.5C4 15.7761 4.22386 16 4.5 16H12.5C12.7761 16 13 15.7761 13 15.5C13 15.2239 12.7761 15 12.5 15Z" fill="var(--icon-color, #FFFFFF)"/>
</svg>
