<svg width="24" height="24" viewBox="0 0 24 24" xmlns="http://www.w3.org/2000/svg">
<path fill="transparent" d="M12 7C16.9706 7 21 6.10457 21 5C21 3.89543 16.9706 3 12 3C7.02944 3 3 3.89543 3 5C3 6.10457 7.02944 7 12 7Z"  stroke="var(--icon-color, #FFFFFF)" stroke-width="2"/>
<path fill="transparent" d="M3 5L5.63214 19.0381C5.8353 20.1216 6.90196 21 8.00855 21H15.9916C17.1009 21 18.1657 20.1166 18.368 19.0371L21.0001 4.99223"  stroke="var(--icon-color, #FFFFFF)" stroke-width="2"/>
<path fill="transparent" d="M7 6C7 7 5 9.04138 3.95862 9.04138"  stroke="var(--icon-color, #FFFFFF)"/>
<path fill="transparent" d="M12 7C12 8 6 14 5 14"  stroke="var(--icon-color, #FFFFFF)"/>
<path fill="transparent" d="M18 7C18 8.5 7.5 19 6 19"  stroke="var(--icon-color, #FFFFFF)"/>
<path fill="transparent" d="M10 21C11.5 21 20.0125 12.5 20.0125 10.9875"  stroke="var(--icon-color, #FFFFFF)"/>
<path fill="transparent" d="M17.5 6.5C17.5 7.5 19.5 9.5 20.5 9.5"  stroke="var(--icon-color, #FFFFFF)"/>
<path fill="transparent" d="M12 7C12 8 18 14 19 14"  stroke="var(--icon-color, #FFFFFF)"/>
<path fill="transparent" d="M6 7C6 8.5 16.5 19.0104 18.0104 19.0104"  stroke="var(--icon-color, #FFFFFF)"/>
<path fill="transparent" d="M14 21C12.5 21 4 12.5 4 11"  stroke="var(--icon-color, #FFFFFF)"/>
</svg>
