<svg width="24" height="24" viewBox="0 0 24 24" xmlns="http://www.w3.org/2000/svg">
<path d="M3 16V5.99558C3 5.44574 3.44749 5 3.9985 5H15.0015C15.553 5 16 5.44484 16 5.99558V16"  stroke="var(--icon-color, #FFFFFF)" stroke-width="2" stroke-linecap="round" stroke-linejoin="round"/>
<path d="M5 16H2M17 7L19.2171 7.00261C20.3243 7.00261 21.1224 7.89847 21 9V16H22H20L17 7ZM16 16H9H16Z"  stroke="var(--icon-color, #FFFFFF)" stroke-width="2" stroke-linecap="round" stroke-linejoin="round"/>
<path fill-rule="evenodd" clip-rule="evenodd" d="M16 9.99896C16 9.44725 16.4427 9 16.999 9H18.001C18.5528 9 19 9.44266 19 9.99896V11.001C19 11.5528 18.5573 12 18.001 12H16.999C16.4472 12 16 11.5573 16 11.001V9.99896Z" fill="var(--icon-color, #FFFFFF)"/>
<path fill-rule="evenodd" clip-rule="evenodd" d="M7 19C5.89543 19 5 18.1046 5 17C5 15.8954 5.89543 15 7 15C8.10457 15 9 15.8954 9 17C9 18.1046 8.10457 19 7 19ZM18 19C16.8954 19 16 18.1046 16 17C16 15.8954 16.8954 15 18 15C19.1046 15 20 15.8954 20 17C20 18.1046 19.1046 19 18 19Z"  stroke="var(--icon-color, #FFFFFF)" stroke-width="2"/>
</svg>
