<svg width="24" height="24" viewBox="0 0 24 24" xmlns="http://www.w3.org/2000/svg">
<path d="M14.2572 15H7.00001C4.20064 15 2.39035 16.1679 1.52558 18.0896C1.07424 19.0926 0.949022 20.1109 0.995552 20.9699C0.99861 21.0263 1.00149 21.0633 1.00497 21.0995C1.05992 21.649 1.54997 22.05 2.09951 21.995C2.64905 21.9401 3.05 21.45 2.99504 20.9005C2.99556 20.9071 2.994 20.8872 2.99262 20.8617C2.96186 20.2938 3.05022 19.5753 3.34943 18.9104C3.89091 17.7071 4.98687 17 7.00001 17H12.0071H13.207C13.417 16.2576 13.779 15.579 14.2572 15Z" fill="var(--icon-color, #FFFFFF)"/>
<path fill-rule="evenodd" clip-rule="evenodd" d="M18.5 23C16.0147 23 14 20.9853 14 18.5C14 16.0147 16.0147 14 18.5 14C20.9853 14 23 16.0147 23 18.5C23 20.9853 20.9853 23 18.5 23ZM16.4977 19H20.5023C20.7852 19 21 18.7761 21 18.5C21 18.2319 20.7772 18 20.5023 18H16.4977C16.2148 18 16 18.2239 16 18.5C16 18.7681 16.2228 19 16.4977 19Z" fill="var(--icon-color, #FFFFFF)"/>
<path d="M12 13C14.7614 13 17 10.7614 17 8C17 5.23858 14.7614 3 12 3C9.23858 3 7 5.23858 7 8C7 10.7614 9.23858 13 12 13Z"  stroke="var(--icon-color, #FFFFFF)" stroke-width="2"/>
</svg>
