<svg width="24" height="24" viewBox="0 0 24 24" xmlns="http://www.w3.org/2000/svg">
<g clip-path="url(#clip0)">
<path d="M8.27455 11.9478C5.85693 11.5964 4 9.51504 4 7C4 4.23858 6.23858 2 9 2C10.3739 2 11.6185 2.55417 12.5222 3.45118C11.8469 3.70681 11.2215 4.06388 10.6646 4.5038C10.1883 4.18555 9.61582 4 9 4C7.34315 4 6 5.34315 6 7C6 8.30697 6.83577 9.41874 8.00202 9.83001C8.00068 9.88651 8 9.94318 8 10C8 10.6759 8.0958 11.3294 8.27455 11.9478ZM8.67363 13H5C2.85717 13 1.39436 13.9752 0.605573 15.5528C0.14867 16.4666 0 17.3586 0 18C0 18.5523 0.447715 19 1 19C1.55228 19 2 18.5523 2 18C2 17.9269 2.01177 17.7622 2.04889 17.5394C2.11167 17.1627 2.22417 16.7877 2.39443 16.4472C2.85564 15.5248 3.64283 15 5 15H10.101C9.51513 14.4259 9.02973 13.7496 8.67363 13Z" fill="var(--icon-color, #FFFFFF)"/>
<path d="M7 21C7 21 7 17 11 17C15 17 14.9938 17 19 17C23.0062 17 23.0062 21 23.0062 21"  stroke="var(--icon-color, #FFFFFF)" stroke-width="2" stroke-linecap="round" stroke-linejoin="round"/>
<path d="M15 14C17.2091 14 19 12.2091 19 10C19 7.79086 17.2091 6 15 6C12.7909 6 11 7.79086 11 10C11 12.2091 12.7909 14 15 14Z"  stroke="var(--icon-color, #FFFFFF)" stroke-width="2"/>
</g>
<defs>
<clipPath id="clip0">
<rect width="24" height="24" fill="var(--icon-color, #FFFFFF)"/>
</clipPath>
</defs>
</svg>
