<svg width="24" height="24" viewBox="0 0 24 24" xmlns="http://www.w3.org/2000/svg">
<path fill-rule="evenodd" clip-rule="evenodd" d="M5.5 16C3.01472 16 1 13.9853 1 11.5C1 9.01472 3.01472 7 5.5 7C7.98528 7 10 9.01472 10 11.5C10 13.9853 7.98528 16 5.5 16ZM18.5 16C16.0147 16 14 13.9853 14 11.5C14 9.01472 16.0147 7 18.5 7C20.9853 7 23 9.01472 23 11.5C23 13.9853 20.9853 16 18.5 16Z"  stroke="var(--icon-color, #FFFFFF)" stroke-width="2"/>
<path d="M18.5 15H5.5V17H18.5V15Z" fill="var(--icon-color, #FFFFFF)"/>
</svg>
