<svg width="24" height="24" viewBox="0 0 24 24" xmlns="http://www.w3.org/2000/svg">
<path fill-rule="evenodd" clip-rule="evenodd" d="M8.39241 18H8L8.80243 22.0122C8.91155 22.5577 9.45098 23 9.99078 23H14.0092C14.5564 23 15.0887 22.5563 15.1976 22.0122L16 18H15.6076C14.554 18.6348 13.3197 19 12 19C10.6803 19 9.44596 18.6348 8.39241 18ZM15.6076 6H16L15.1976 1.98784C15.0887 1.44372 14.5564 1 14.0092 1H9.99078C9.45098 1 8.91155 1.44227 8.80243 1.98784L8 6H8.39241C9.44596 5.36518 10.6803 5 12 5C13.3197 5 14.554 5.36518 15.6076 6Z"  stroke="var(--icon-color, #FFFFFF)" stroke-width="2" stroke-linejoin="round"/>
<path d="M12 19C15.866 19 19 15.866 19 12C19 8.13401 15.866 5 12 5C8.13401 5 5 8.13401 5 12C5 15.866 8.13401 19 12 19Z"  stroke="var(--icon-color, #FFFFFF)" stroke-width="2"/>
<path opacity="0.5" d="M12 8V12H15"  stroke="var(--icon-color, #FFFFFF)" stroke-width="2" stroke-linecap="round" stroke-linejoin="round"/>
</svg>
