<svg width="24" height="26" viewBox="0 0 24 26" xmlns="http://www.w3.org/2000/svg">
<path fill-rule="evenodd" clip-rule="evenodd" d="M21.3704 2.52141C21.1112 1.19233 19.649 0.524821 18.5126 1.21681L12.8577 4.6603C12.3887 4.94588 12.0606 5.42285 11.9555 5.97174L11.7536 7.02649L10.6227 6.73418C10.0674 6.59065 9.47863 6.7093 9.01757 7.05764L4.52565 10.4597C2.40483 11.8582 1 14.2997 1 17.0777C1 21.4198 4.43225 24.9398 8.66615 24.9398C12.9001 24.9398 16.3323 21.4198 16.3323 17.0777C16.3323 15.7941 16.0324 14.5309 15.5005 13.424L21.4386 7.33403C21.8917 6.86933 22.0884 6.20313 21.9628 5.55871L21.3704 2.52141ZM14.4174 11.7551L20.0834 5.94419L19.4911 2.90689L13.8361 6.35038L13.6342 7.40514C13.6342 10.4597 13.926 10.3355 11.2852 8.93243L10.1543 8.64012L8.66615 9.76447L7.95462 10.3355C6.88196 11.1113 6.42527 11.5337 5.52164 12.1403L5.00749 12.5287C3.73045 13.6103 2.91654 15.2465 2.91654 17.0777C2.91654 20.3343 5.49073 22.9743 8.66615 22.9743C11.8416 22.9743 14.4158 20.3343 14.4158 17.0777C14.4158 15.7692 13.7012 14.0837 12.998 13.1056L14.4158 11.7531L14.4174 11.7551Z" fill="var(--icon-color, #FFFFFF)"/>
<line x1="11" y1="3.59712" x2="11" y2="2.59712" stroke="#F7F7F7" stroke-width="2" stroke-linecap="round"/>
<line x1="8.46268" y1="5.47886" x2="7.07963" y2="5.32302" stroke="#F7F7F7" stroke-width="2" stroke-linecap="round"/>
<circle cx="8.74643" cy="17.2796" r="2" fill="var(--icon-color, #FFFFFF)"/>
</svg>
