<svg width="24" height="24" viewBox="0 0 24 24" xmlns="http://www.w3.org/2000/svg">
<path d="M22 3H2C1.44772 3 1 3.44772 1 4V20C1 20.5523 1.44772 21 2 21H22C22.5523 21 23 20.5523 23 20V4C23 3.44772 22.5523 3 22 3Z"  stroke="var(--icon-color, #FFFFFF)" stroke-width="2"/>
<path d="M23 7H1V8H23V7Z" fill="var(--icon-color, #FFFFFF)"/>
<path fill-rule="evenodd" clip-rule="evenodd" d="M3.5 6C3.22386 6 3 5.77614 3 5.5C3 5.22386 3.22386 5 3.5 5C3.77614 5 4 5.22386 4 5.5C4 5.77614 3.77614 6 3.5 6ZM5.5 6C5.22386 6 5 5.77614 5 5.5C5 5.22386 5.22386 5 5.5 5C5.77614 5 6 5.22386 6 5.5C6 5.77614 5.77614 6 5.5 6ZM7.5 6C7.22386 6 7 5.77614 7 5.5C7 5.22386 7.22386 5 7.5 5C7.77614 5 8 5.22386 8 5.5C8 5.77614 7.77614 6 7.5 6Z" fill="var(--icon-color, #FFFFFF)"/>
</svg>
