<svg width="24" height="24" viewBox="0 0 24 24" xmlns="http://www.w3.org/2000/svg">
<path d="M4.00697 18.626C2.143 18.9843 1 19.4679 1 20C1 21.1046 5.92487 22 12 22C18.0751 22 23 21.1046 23 20C23 19.4714 21.8719 18.9906 20.0295 18.633"  stroke="var(--icon-color, #FFFFFF)" stroke-width="2" stroke-linecap="round"/>
<path d="M2 20H4L12 2L20 20H22"  stroke="var(--icon-color, #FFFFFF)" stroke-width="2" stroke-linecap="round" stroke-linejoin="round"/>
<path d="M14.0466 16.9357C17.2854 16.7146 18 16 18 16M6 16C6 16 6.73021 16.7233 10.0211 16.9396L6 16Z"  stroke="var(--icon-color, #FFFFFF)" stroke-width="3"/>
<path d="M13 15H11C10.4477 15 10 15.4477 10 16V18C10 18.5523 10.4477 19 11 19H13C13.5523 19 14 18.5523 14 18V16C14 15.4477 13.5523 15 13 15Z"  stroke="var(--icon-color, #FFFFFF)" stroke-width="2"/>
</svg>
