<svg width="24" height="24" viewBox="0 0 24 24" xmlns="http://www.w3.org/2000/svg">
<path d="M20 17H4C2.89543 17 2 17.8954 2 19V20C2 21.1046 2.89543 22 4 22H20C21.1046 22 22 21.1046 22 20V19C22 17.8954 21.1046 17 20 17Z"  stroke="var(--icon-color, #FFFFFF)" stroke-width="2"/>
<path d="M10.008 7.22981C5.54848 8.32384 4 13.1123 4 17H20C20 13.1178 18.4559 8.33735 14.0109 7.23446"  stroke="var(--icon-color, #FFFFFF)" stroke-width="2"/>
<path opacity="0.5" d="M11.5 8C11.5 8 11 8 10.5 11.5C10 15 10 18 10 18"  stroke="var(--icon-color, #FFFFFF)"/>
<path opacity="0.5" d="M12.5 8C12.5 8 13 8 13.5 11.5C14 15 14 17 14 17"  stroke="var(--icon-color, #FFFFFF)"/>
<path opacity="0.5" d="M13.5 7.5C13.5 7.5 15 8.5 16 11.5C17 14.5 17 17 17 17"  stroke="var(--icon-color, #FFFFFF)"/>
<path opacity="0.5" d="M10.5 7.5C10.5 7.5 9 8.5 8 11.5C7 14.5 7 17 7 17"  stroke="var(--icon-color, #FFFFFF)"/>
<path d="M12 8C13.6569 8 15 6.65685 15 5C15 3.34315 13.6569 2 12 2C10.3431 2 9 3.34315 9 5C9 6.65685 10.3431 8 12 8Z"  stroke="var(--icon-color, #FFFFFF)" stroke-width="2"/>
</svg>
