<svg width="24" height="24" viewBox="0 0 24 24" xmlns="http://www.w3.org/2000/svg">
<path d="M19.6817 15.692C20.518 14.3258 21 12.7192 21 11C21 9.95546 20.5 9 20 8C19.5 7 19.567 6.0053 18.8594 5.17313C17.85 3.98605 16 3.5 15 3C14 2.5 13.0678 2 12 2C10.9413 2 9.94346 2.66424 9 3C8.05654 3.33576 6.16593 3.97231 5.15268 5.159C4.4375 5.99659 4.37107 6.93892 4 8C3.62893 9.06108 3 9.95858 3 11C3 12.6968 3.46955 14.2839 4.2858 15.6385"  stroke="var(--icon-color, #FFFFFF)" stroke-width="2"/>
<path fill-rule="evenodd" clip-rule="evenodd" d="M12 15C12.5841 15 12.9998 14.725 13.5 14.5C14.0002 14.275 14.4797 14.1749 14.8187 13.8381C15.1868 13.4726 15.2957 12.9855 15.5 12.5C15.7043 12.0145 16 11.5498 16 11C16 10.6553 15.582 9.81915 15.5 9.5C15.418 9.18085 15.3362 8.68642 14.8484 8.19171C14.4903 7.82848 13.9748 7.70566 13.5 7.5C13.0252 7.29434 12.5644 7 12 7C11.4326 7 10.989 7.28695 10.5 7.5C10.011 7.71305 9.54425 7.80544 9.19783 8.14556C8.82867 8.508 8.70702 9.0176 8.5 9.5C8.29298 9.9824 8 10.4403 8 11C8 11.5757 8.28104 12.0054 8.5 12.5C8.71896 12.9946 8.81644 13.4694 9.15587 13.8126C9.548 14.2091 9.97098 14.2944 10.5 14.5C11.029 14.7056 11.4891 15 12 15Z"  stroke="var(--icon-color, #FFFFFF)" stroke-width="2"/>
<path d="M14 17.5L18.1508 15.7705C19.1721 15.345 20 15.8867 20 16.9981V21.0019C20 22.1054 19.1657 22.6524 18.1508 22.2295L14 20.5"  stroke="var(--icon-color, #FFFFFF)" stroke-width="2" stroke-linejoin="round"/>
<path d="M10 17.5L5.84916 15.7469C4.8279 15.3156 4 15.8564 4 16.9725V20.9934C4 22.1016 4.83427 22.6524 5.84916 22.2295L10 20.5"  stroke="var(--icon-color, #FFFFFF)" stroke-width="2" stroke-linejoin="round"/>
<path fill-rule="evenodd" clip-rule="evenodd" d="M10 18.499C10 17.9472 10.4302 17.3634 10.9579 17.2091C10.9579 17.2091 11.5 17 12 17C12.5 17 13.0421 17.2091 13.0421 17.2091C13.5711 17.3698 14 17.9427 14 18.499V19.501C14 20.0528 13.5698 20.6366 13.0421 20.7909C13.0421 20.7909 12.5 21 12 21C11.5 21 10.9579 20.7909 10.9579 20.7909C10.4289 20.6302 10 20.0573 10 19.501V18.499Z"  stroke="var(--icon-color, #FFFFFF)" stroke-width="2"/>
<path opacity="0.3" fill-rule="evenodd" clip-rule="evenodd" d="M11 4.5C11 3.94772 11.4439 3.5 12 3.5C12.5523 3.5 13 3.94386 13 4.5C13 5.05228 12.5561 5.5 12 5.5C11.4477 5.5 11 5.05614 11 4.5ZM15.5 6.5C15.5 5.94772 15.9439 5.5 16.5 5.5C17.0523 5.5 17.5 5.94386 17.5 6.5C17.5 7.05228 17.0561 7.5 16.5 7.5C15.9477 7.5 15.5 7.05614 15.5 6.5ZM6.5 6.5C6.5 5.94772 6.94386 5.5 7.5 5.5C8.05228 5.5 8.5 5.94386 8.5 6.5C8.5 7.05228 8.05614 7.5 7.5 7.5C6.94772 7.5 6.5 7.05614 6.5 6.5ZM15.5 15.5C15.5 14.9477 15.9439 14.5 16.5 14.5C17.0523 14.5 17.5 14.9439 17.5 15.5C17.5 16.0523 17.0561 16.5 16.5 16.5C15.9477 16.5 15.5 16.0561 15.5 15.5ZM6.5 15.5C6.5 14.9477 6.94386 14.5 7.5 14.5C8.05228 14.5 8.5 14.9439 8.5 15.5C8.5 16.0523 8.05614 16.5 7.5 16.5C6.94772 16.5 6.5 16.0561 6.5 15.5ZM4.5 11C4.5 10.4477 4.94386 10 5.5 10C6.05228 10 6.5 10.4439 6.5 11C6.5 11.5523 6.05614 12 5.5 12C4.94772 12 4.5 11.5561 4.5 11ZM17.5 11C17.5 10.4477 17.9439 10 18.5 10C19.0523 10 19.5 10.4439 19.5 11C19.5 11.5523 19.0561 12 18.5 12C17.9477 12 17.5 11.5561 17.5 11Z" fill="var(--icon-color, #FFFFFF)"/>
</svg>
