<svg width="24" height="24" viewBox="0 0 24 24" xmlns="http://www.w3.org/2000/svg">
<g clip-path="url(#clip0)">
<path fill-rule="evenodd" clip-rule="evenodd" d="M19.2061 2.00133C17.4118 1.29821 15.2932 1.67156 13.8434 3.12135C11.8908 5.07397 11.8908 8.2398 13.8434 10.1924C15.7961 12.145 18.9619 12.145 20.9145 10.1924C22.3643 8.74262 22.7376 6.62401 22.0345 4.82975L19.1996 7.6647C18.8127 8.05162 18.1855 8.05179 17.7853 7.65155L17.0848 6.95107C16.3037 6.17002 16.3057 4.90169 17.0833 4.12412L19.2061 2.00133V2.00133Z"  stroke="var(--icon-color, #FFFFFF)" stroke-width="2" stroke-linecap="round" stroke-linejoin="round"/>
<path fill-rule="evenodd" clip-rule="evenodd" d="M12.1351 9.0724L14.9635 11.9008L6.92601 21.0865C5.89764 22.2618 4.17459 22.3251 3.0669 21.2174L2.81843 20.969C1.71547 19.866 1.76649 18.1449 2.94937 17.1099L12.1351 9.0724Z"  stroke="var(--icon-color, #FFFFFF)" stroke-width="2"/>
<path d="M4.35686 19.679C4.74738 20.0695 5.38055 20.0695 5.77107 19.679C6.1616 19.2885 6.1616 18.6553 5.77107 18.2648C5.38055 17.8743 4.74738 17.8743 4.35686 18.2648C3.96633 18.6553 3.96633 19.2885 4.35686 19.679Z" fill="var(--icon-color, #FFFFFF)"/>
</g>
<defs>
<clipPath id="clip0">
<rect width="24" height="24" fill="var(--icon-color, #FFFFFF)"/>
</clipPath>
</defs>
</svg>
