<svg width="24" height="24" viewBox="0 0 24 24" xmlns="http://www.w3.org/2000/svg">
<path fill-rule="evenodd" clip-rule="evenodd" d="M22.7803 7.45167C22.7803 7.45167 22.5654 5.88404 21.9057 5.1937C21.0691 4.28765 20.1314 4.28315 19.7014 4.23013C16.6228 4 12.0048 4 12.0048 4H11.9952C11.9952 4 7.37728 4 4.29859 4.23013C3.86854 4.28315 2.93116 4.28765 2.09428 5.1937C1.43466 5.88404 1.22001 7.45167 1.22001 7.45167C1.22001 7.45167 1 9.29259 1 11.1335V12.8593C1 14.7002 1.22001 16.5411 1.22001 16.5411C1.22001 16.5411 1.43466 18.1088 2.09428 18.7991C2.93116 19.7052 4.03046 19.6765 4.52009 19.7715C6.28011 19.946 12 20 12 20C12 20 16.6228 19.9928 19.7014 19.7627C20.1314 19.7097 21.0691 19.7052 21.9057 18.7991C22.5654 18.1088 22.7803 16.5411 22.7803 16.5411C22.7803 16.5411 23 14.7002 23 12.8593V11.1335C23 9.29259 22.7803 7.45167 22.7803 7.45167Z"  stroke="var(--icon-color, #FFFFFF)" stroke-width="2"/>
<path fill-rule="evenodd" clip-rule="evenodd" d="M9.50107 15L9.5 9L15.7723 12.0105L9.50107 15Z" fill="var(--icon-color, #FFFFFF)"/>
</svg>
